<svg xmlns="http://www.w3.org/2000/svg" viewBox="0 0 92.42 112.53"><defs><style>.cls-1{fill:none;}.cls-1,.cls-3{stroke:#435871;stroke-miterlimit:10;}.cls-2{fill:#435871;}.cls-3{fill:#f2f2f4;}</style></defs><title>lafayette-house-logo-blue</title><g id="Layer_2" data-name="Layer 2"><g id="Layer_1-2" data-name="Layer 1"><rect class="cls-1" x="16.15" y="3.28" width="49.02" height="103.58"/><line class="cls-1" x1="16.15" y1="10" x2="65.17" y2="10"/><line class="cls-1" x1="20.45" y1="3.37" x2="20.47" y2="8.02"/><line class="cls-1" x1="25.5" y1="3.35" x2="25.52" y2="7.99"/><line class="cls-1" x1="30.55" y1="3.32" x2="30.57" y2="7.97"/><line class="cls-1" x1="35.6" y1="3.3" x2="35.62" y2="7.95"/><line class="cls-1" x1="40.65" y1="3.28" x2="40.67" y2="7.92"/><line class="cls-1" x1="45.7" y1="3.25" x2="45.72" y2="7.9"/><line class="cls-1" x1="50.75" y1="3.23" x2="50.77" y2="7.87"/><line class="cls-1" x1="55.8" y1="3.2" x2="55.82" y2="7.85"/><line class="cls-1" x1="60.85" y1="3.18" x2="60.87" y2="7.82"/><polygon class="cls-1" points="65.15 3.28 16.13 3.28 14.61 0.5 66.53 0.5 65.15 3.28"/><polygon class="cls-1" points="90.26 112.03 2.13 112.03 12.52 106.86 79.69 106.86 90.26 112.03"/><rect class="cls-1" x="21.89" y="85.17" width="6.9" height="15.08"/><line class="cls-1" x1="25.34" y1="85.17" x2="25.34" y2="100.25"/><line class="cls-1" x1="21.89" y1="88.46" x2="28.79" y2="88.46"/><line class="cls-1" x1="21.89" y1="97.59" x2="28.79" y2="97.59"/><polygon class="cls-1" points="30.13 82.84 20.56 82.84 21.77 85.17 28.67 85.17 30.13 82.84"/><rect class="cls-1" x="22.06" y="19.48" width="6.9" height="9.32"/><line class="cls-1" x1="25.51" y1="19.48" x2="25.51" y2="28.8"/><line class="cls-1" x1="22.06" y1="24.14" x2="28.96" y2="24.14"/><polygon class="cls-1" points="30.29 17.15 20.73 17.15 21.94 19.48 28.84 19.48 30.29 17.15"/><polygon class="cls-1" points="19.82 30.25 31.59 30.25 30.1 28.8 21.61 28.8 19.82 30.25"/><rect class="cls-1" x="18.61" y="19.48" width="3.45" height="9.32"/><line class="cls-1" x1="18.61" y1="21.65" x2="22.06" y2="21.65"/><line class="cls-1" x1="18.61" y1="24.14" x2="22.06" y2="24.14"/><line class="cls-1" x1="18.61" y1="26.62" x2="22.06" y2="26.62"/><rect class="cls-1" x="28.96" y="19.48" width="3.45" height="9.32"/><line class="cls-1" x1="28.96" y1="21.65" x2="32.41" y2="21.65"/><line class="cls-1" x1="28.96" y1="24.14" x2="32.41" y2="24.14"/><line class="cls-1" x1="28.96" y1="26.62" x2="32.41" y2="26.62"/><rect class="cls-1" x="37.25" y="19.48" width="6.9" height="9.32"/><line class="cls-1" x1="40.7" y1="19.48" x2="40.7" y2="28.8"/><line class="cls-1" x1="37.25" y1="24.14" x2="44.16" y2="24.14"/><polygon class="cls-1" points="45.49 17.15 35.92 17.15 37.13 19.48 44.03 19.48 45.49 17.15"/><polygon class="cls-1" points="35.02 30.25 46.78 30.25 45.29 28.8 36.8 28.8 35.02 30.25"/><rect class="cls-1" x="33.8" y="19.48" width="3.45" height="9.32"/><line class="cls-1" x1="33.8" y1="21.65" x2="37.25" y2="21.65"/><line class="cls-1" x1="33.8" y1="24.14" x2="37.25" y2="24.14"/><line class="cls-1" x1="33.8" y1="26.62" x2="37.25" y2="26.62"/><rect class="cls-1" x="44.16" y="19.48" width="3.45" height="9.32"/><line class="cls-1" x1="44.16" y1="21.65" x2="47.61" y2="21.65"/><line class="cls-1" x1="44.16" y1="24.14" x2="47.61" y2="24.14"/><line class="cls-1" x1="44.16" y1="26.62" x2="47.61" y2="26.62"/><rect class="cls-1" x="52.45" y="19.48" width="6.9" height="9.32"/><line class="cls-1" x1="55.9" y1="19.48" x2="55.9" y2="28.8"/><line class="cls-1" x1="52.45" y1="24.14" x2="59.35" y2="24.14"/><polygon class="cls-1" points="60.68 17.15 51.12 17.15 52.33 19.48 59.23 19.48 60.68 17.15"/><polygon class="cls-1" points="50.21 30.25 61.98 30.25 60.49 28.8 52 28.8 50.21 30.25"/><rect class="cls-1" x="49" y="19.48" width="3.45" height="9.32"/><line class="cls-1" x1="49" y1="21.65" x2="52.45" y2="21.65"/><line class="cls-1" x1="49" y1="24.14" x2="52.45" y2="24.14"/><line class="cls-1" x1="49" y1="26.62" x2="52.45" y2="26.62"/><rect class="cls-1" x="59.35" y="19.48" width="3.45" height="9.32"/><line class="cls-1" x1="59.35" y1="21.65" x2="62.8" y2="21.65"/><line class="cls-1" x1="59.35" y1="24.14" x2="62.8" y2="24.14"/><line class="cls-1" x1="59.35" y1="26.62" x2="62.8" y2="26.62"/><rect class="cls-1" x="21.89" y="40.31" width="6.9" height="9.32"/><line class="cls-1" x1="25.34" y1="40.31" x2="25.34" y2="49.63"/><line class="cls-1" x1="21.89" y1="44.97" x2="28.79" y2="44.97"/><polygon class="cls-1" points="30.13 37.98 20.56 37.98 21.77 40.31 28.67 40.31 30.13 37.98"/><polygon class="cls-1" points="19.66 51.09 31.42 51.09 29.93 49.63 21.44 49.63 19.66 51.09"/><rect class="cls-1" x="18.44" y="40.31" width="3.45" height="9.32"/><line class="cls-1" x1="18.44" y1="42.49" x2="21.89" y2="42.49"/><line class="cls-1" x1="18.44" y1="44.97" x2="21.89" y2="44.97"/><line class="cls-1" x1="18.44" y1="47.46" x2="21.89" y2="47.46"/><rect class="cls-1" x="28.79" y="40.31" width="3.45" height="9.32"/><line class="cls-1" x1="28.79" y1="42.49" x2="32.24" y2="42.49"/><line class="cls-1" x1="28.79" y1="44.97" x2="32.24" y2="44.97"/><line class="cls-1" x1="28.79" y1="47.46" x2="32.24" y2="47.46"/><rect class="cls-1" x="37.09" y="40.31" width="6.9" height="9.32"/><line class="cls-1" x1="40.54" y1="40.31" x2="40.54" y2="49.63"/><line class="cls-1" x1="37.09" y1="44.97" x2="43.99" y2="44.97"/><polygon class="cls-1" points="45.32 37.98 35.76 37.98 36.97 40.31 43.87 40.31 45.32 37.98"/><polygon class="cls-1" points="34.85 51.09 46.62 51.09 45.13 49.63 36.64 49.63 34.85 51.09"/><rect class="cls-1" x="33.64" y="40.31" width="3.45" height="9.32"/><line class="cls-1" x1="33.64" y1="42.49" x2="37.09" y2="42.49"/><line class="cls-1" x1="33.64" y1="44.97" x2="37.09" y2="44.97"/><line class="cls-1" x1="33.64" y1="47.46" x2="37.09" y2="47.46"/><rect class="cls-1" x="43.99" y="40.31" width="3.45" height="9.32"/><line class="cls-1" x1="43.99" y1="42.49" x2="47.44" y2="42.49"/><line class="cls-1" x1="43.99" y1="44.97" x2="47.44" y2="44.97"/><line class="cls-1" x1="43.99" y1="47.46" x2="47.44" y2="47.46"/><rect class="cls-1" x="52.28" y="40.31" width="6.9" height="9.32"/><line class="cls-1" x1="55.73" y1="40.31" x2="55.73" y2="49.63"/><line class="cls-1" x1="52.28" y1="44.97" x2="59.18" y2="44.97"/><polygon class="cls-1" points="60.52 37.98 50.95 37.98 52.16 40.31 59.06 40.31 60.52 37.98"/><polygon class="cls-1" points="50.05 51.09 61.81 51.09 60.32 49.63 51.83 49.63 50.05 51.09"/><rect class="cls-1" x="48.83" y="40.31" width="3.45" height="9.32"/><line class="cls-1" x1="48.83" y1="42.49" x2="52.28" y2="42.49"/><line class="cls-1" x1="48.83" y1="44.97" x2="52.28" y2="44.97"/><line class="cls-1" x1="48.83" y1="47.46" x2="52.28" y2="47.46"/><rect class="cls-1" x="59.18" y="40.31" width="3.45" height="9.32"/><line class="cls-1" x1="59.18" y1="42.49" x2="62.63" y2="42.49"/><line class="cls-1" x1="59.18" y1="44.97" x2="62.63" y2="44.97"/><line class="cls-1" x1="59.18" y1="47.46" x2="62.63" y2="47.46"/><rect class="cls-1" x="21.89" y="61.14" width="6.9" height="9.32"/><line class="cls-1" x1="25.34" y1="61.14" x2="25.34" y2="70.47"/><line class="cls-1" x1="21.89" y1="65.81" x2="28.79" y2="65.81"/><polygon class="cls-1" points="30.13 58.82 20.56 58.82 21.77 61.15 28.67 61.15 30.13 58.82"/><polygon class="cls-1" points="19.66 71.92 31.42 71.92 29.93 70.47 21.44 70.47 19.66 71.92"/><rect class="cls-1" x="18.44" y="61.14" width="3.45" height="9.32"/><line class="cls-1" x1="18.44" y1="63.32" x2="21.89" y2="63.32"/><line class="cls-1" x1="18.44" y1="65.81" x2="21.89" y2="65.81"/><line class="cls-1" x1="18.44" y1="68.29" x2="21.89" y2="68.29"/><rect class="cls-1" x="28.79" y="61.14" width="3.45" height="9.32"/><line class="cls-1" x1="28.79" y1="63.32" x2="32.24" y2="63.32"/><line class="cls-1" x1="28.79" y1="65.81" x2="32.24" y2="65.81"/><line class="cls-1" x1="28.79" y1="68.29" x2="32.24" y2="68.29"/><rect class="cls-1" x="37.09" y="61.14" width="6.9" height="9.32"/><line class="cls-1" x1="40.54" y1="61.14" x2="40.54" y2="70.47"/><line class="cls-1" x1="37.09" y1="65.81" x2="43.99" y2="65.81"/><polygon class="cls-1" points="45.32 58.82 35.76 58.82 36.97 61.15 43.87 61.15 45.32 58.82"/><polygon class="cls-1" points="34.85 71.92 46.62 71.92 45.13 70.47 36.64 70.47 34.85 71.92"/><rect class="cls-1" x="33.64" y="61.14" width="3.45" height="9.32"/><line class="cls-1" x1="33.64" y1="63.32" x2="37.09" y2="63.32"/><line class="cls-1" x1="33.64" y1="65.81" x2="37.09" y2="65.81"/><line class="cls-1" x1="33.64" y1="68.29" x2="37.09" y2="68.29"/><rect class="cls-1" x="43.99" y="61.14" width="3.45" height="9.32"/><line class="cls-1" x1="43.99" y1="63.32" x2="47.44" y2="63.32"/><line class="cls-1" x1="43.99" y1="65.81" x2="47.44" y2="65.81"/><line class="cls-1" x1="43.99" y1="68.29" x2="47.44" y2="68.29"/><rect class="cls-1" x="52.28" y="61.14" width="6.9" height="9.32"/><line class="cls-1" x1="55.73" y1="61.14" x2="55.73" y2="70.47"/><line class="cls-1" x1="52.28" y1="65.81" x2="59.18" y2="65.81"/><polygon class="cls-1" points="60.52 58.82 50.95 58.82 52.16 61.15 59.06 61.15 60.52 58.82"/><polygon class="cls-1" points="50.05 71.92 61.81 71.92 60.32 70.47 51.83 70.47 50.05 71.92"/><rect class="cls-1" x="48.83" y="61.14" width="3.45" height="9.32"/><line class="cls-1" x1="48.83" y1="63.32" x2="52.28" y2="63.32"/><line class="cls-1" x1="48.83" y1="65.81" x2="52.28" y2="65.81"/><line class="cls-1" x1="48.83" y1="68.29" x2="52.28" y2="68.29"/><rect class="cls-1" x="59.18" y="61.14" width="3.45" height="9.32"/><line class="cls-1" x1="59.18" y1="63.32" x2="62.63" y2="63.32"/><line class="cls-1" x1="59.18" y1="65.81" x2="62.63" y2="65.81"/><line class="cls-1" x1="59.18" y1="68.29" x2="62.63" y2="68.29"/><rect class="cls-1" x="37.09" y="85.17" width="6.9" height="9.32"/><line class="cls-1" x1="40.54" y1="85.17" x2="40.54" y2="94.49"/><line class="cls-1" x1="37.09" y1="89.83" x2="43.99" y2="89.83"/><polygon class="cls-1" points="45.32 82.84 35.76 82.84 36.97 85.17 43.87 85.17 45.32 82.84"/><polygon class="cls-1" points="34.85 95.94 46.62 95.94 45.13 94.49 36.64 94.49 34.85 95.94"/><rect class="cls-1" x="33.64" y="85.17" width="3.45" height="9.32"/><line class="cls-1" x1="33.64" y1="87.34" x2="37.09" y2="87.34"/><line class="cls-1" x1="33.64" y1="89.83" x2="37.09" y2="89.83"/><line class="cls-1" x1="33.64" y1="92.31" x2="37.09" y2="92.31"/><rect class="cls-1" x="43.99" y="85.17" width="3.45" height="9.32"/><line class="cls-1" x1="43.99" y1="87.34" x2="47.44" y2="87.34"/><line class="cls-1" x1="43.99" y1="89.83" x2="47.44" y2="89.83"/><line class="cls-1" x1="43.99" y1="92.31" x2="47.44" y2="92.31"/><rect class="cls-1" x="52.28" y="85.17" width="6.9" height="9.32"/><line class="cls-1" x1="55.73" y1="85.17" x2="55.73" y2="94.49"/><line class="cls-1" x1="52.28" y1="89.83" x2="59.18" y2="89.83"/><polygon class="cls-1" points="60.52 82.84 50.95 82.84 52.16 85.17 59.06 85.17 60.52 82.84"/><polygon class="cls-1" points="50.05 95.94 61.81 95.94 60.32 94.49 51.83 94.49 50.05 95.94"/><rect class="cls-1" x="48.83" y="85.17" width="3.45" height="9.32"/><line class="cls-1" x1="48.83" y1="87.34" x2="52.28" y2="87.34"/><line class="cls-1" x1="48.83" y1="89.83" x2="52.28" y2="89.83"/><line class="cls-1" x1="48.83" y1="92.31" x2="52.28" y2="92.31"/><rect class="cls-1" x="59.18" y="85.17" width="3.45" height="9.32"/><line class="cls-1" x1="59.18" y1="87.34" x2="62.63" y2="87.34"/><line class="cls-1" x1="59.18" y1="89.83" x2="62.63" y2="89.83"/><line class="cls-1" x1="59.18" y1="92.31" x2="62.63" y2="92.31"/><rect class="cls-1" x="18.44" y="85.17" width="3.45" height="15.08"/><line class="cls-1" x1="18.44" y1="87.34" x2="21.89" y2="87.34"/><line class="cls-1" x1="18.44" y1="89.83" x2="21.89" y2="89.83"/><line class="cls-1" x1="18.44" y1="92.31" x2="21.89" y2="92.31"/><line class="cls-1" x1="18.44" y1="94.95" x2="21.89" y2="94.95"/><line class="cls-1" x1="18.44" y1="97.59" x2="21.89" y2="97.59"/><rect class="cls-1" x="28.79" y="85.17" width="3.45" height="15.08"/><line class="cls-1" x1="28.79" y1="87.34" x2="32.24" y2="87.34"/><line class="cls-1" x1="28.79" y1="89.83" x2="32.24" y2="89.83"/><line class="cls-1" x1="28.79" y1="92.31" x2="32.24" y2="92.31"/><line class="cls-1" x1="28.79" y1="94.95" x2="32.24" y2="94.95"/><line class="cls-1" x1="28.79" y1="97.59" x2="32.24" y2="97.59"/><line class="cls-1" x1="79.09" y1="72.58" x2="79.09" y2="110.1"/><rect class="cls-2" x="77.87" y="98.87" width="2.45" height="11.23"/><line class="cls-1" x1="75.7" y1="79.81" x2="82.49" y2="79.81"/><polygon class="cls-2" points="79.09 61.15 81.83 67.63 76.36 67.63 79.09 61.15"/><polygon class="cls-1" points="79.09 74.19 77.05 68.61 81.14 68.61 79.09 74.19"/><line class="cls-1" x1="85.38" y1="56.34" x2="82.28" y2="62.2"/><line class="cls-1" x1="91.69" y1="68.29" x2="85.44" y2="68.29"/><line class="cls-1" x1="66.45" y1="68.29" x2="72.59" y2="68.29"/><line class="cls-1" x1="72.76" y1="56.34" x2="75.76" y2="61.99"/><rect class="cls-3" x="13.41" y="105.25" width="23.43" height="1.61"/><rect class="cls-3" x="14.8" y="103.64" width="20.67" height="1.61"/><rect class="cls-1" x="16.25" y="102.03" width="17.77" height="1.61"/><rect class="cls-1" x="17.67" y="100.36" width="14.92" height="1.61"/></g></g></svg>