<svg xmlns="http://www.w3.org/2000/svg" viewBox="0 0 764.75 126.48"><defs><style>.cls-1{fill:none;stroke:#fff;stroke-miterlimit:10;}.cls-2{fill:#fff;}</style></defs><title>lafayette-house-logotype</title><g id="Layer_2" data-name="Layer 2"><g id="Layer_1-2" data-name="Layer 1"><rect class="cls-1" x="16.15" y="3.28" width="49.02" height="103.58"/><line class="cls-1" x1="16.15" y1="10" x2="65.17" y2="10"/><line class="cls-1" x1="20.45" y1="3.37" x2="20.47" y2="8.02"/><line class="cls-1" x1="25.5" y1="3.35" x2="25.52" y2="7.99"/><line class="cls-1" x1="30.55" y1="3.32" x2="30.57" y2="7.97"/><line class="cls-1" x1="35.6" y1="3.3" x2="35.62" y2="7.95"/><line class="cls-1" x1="40.65" y1="3.28" x2="40.67" y2="7.92"/><line class="cls-1" x1="45.7" y1="3.25" x2="45.72" y2="7.9"/><line class="cls-1" x1="50.75" y1="3.23" x2="50.77" y2="7.87"/><line class="cls-1" x1="55.8" y1="3.2" x2="55.82" y2="7.85"/><line class="cls-1" x1="60.85" y1="3.18" x2="60.87" y2="7.82"/><polygon class="cls-1" points="65.15 3.28 16.13 3.28 14.61 0.5 66.53 0.5 65.15 3.28"/><polygon class="cls-1" points="90.26 112.03 2.13 112.03 12.52 106.86 79.69 106.86 90.26 112.03"/><rect class="cls-1" x="21.89" y="85.17" width="6.9" height="15.08"/><line class="cls-1" x1="25.34" y1="85.17" x2="25.34" y2="100.25"/><line class="cls-1" x1="21.89" y1="88.46" x2="28.79" y2="88.46"/><line class="cls-1" x1="21.89" y1="97.59" x2="28.79" y2="97.59"/><polygon class="cls-1" points="30.13 82.84 20.56 82.84 21.77 85.17 28.67 85.17 30.13 82.84"/><rect class="cls-1" x="22.06" y="19.48" width="6.9" height="9.32"/><line class="cls-1" x1="25.51" y1="19.48" x2="25.51" y2="28.8"/><line class="cls-1" x1="22.06" y1="24.14" x2="28.96" y2="24.14"/><polygon class="cls-1" points="30.29 17.15 20.73 17.15 21.94 19.48 28.84 19.48 30.29 17.15"/><polygon class="cls-1" points="19.82 30.25 31.59 30.25 30.1 28.8 21.61 28.8 19.82 30.25"/><rect class="cls-1" x="18.61" y="19.48" width="3.45" height="9.32"/><line class="cls-1" x1="18.61" y1="21.65" x2="22.06" y2="21.65"/><line class="cls-1" x1="18.61" y1="24.14" x2="22.06" y2="24.14"/><line class="cls-1" x1="18.61" y1="26.62" x2="22.06" y2="26.62"/><rect class="cls-1" x="28.96" y="19.48" width="3.45" height="9.32"/><line class="cls-1" x1="28.96" y1="21.65" x2="32.41" y2="21.65"/><line class="cls-1" x1="28.96" y1="24.14" x2="32.41" y2="24.14"/><line class="cls-1" x1="28.96" y1="26.62" x2="32.41" y2="26.62"/><rect class="cls-1" x="37.25" y="19.48" width="6.9" height="9.32"/><line class="cls-1" x1="40.7" y1="19.48" x2="40.7" y2="28.8"/><line class="cls-1" x1="37.25" y1="24.14" x2="44.16" y2="24.14"/><polygon class="cls-1" points="45.49 17.15 35.92 17.15 37.13 19.48 44.03 19.48 45.49 17.15"/><polygon class="cls-1" points="35.02 30.25 46.78 30.25 45.29 28.8 36.8 28.8 35.02 30.25"/><rect class="cls-1" x="33.8" y="19.48" width="3.45" height="9.32"/><line class="cls-1" x1="33.8" y1="21.65" x2="37.25" y2="21.65"/><line class="cls-1" x1="33.8" y1="24.14" x2="37.25" y2="24.14"/><line class="cls-1" x1="33.8" y1="26.62" x2="37.25" y2="26.62"/><rect class="cls-1" x="44.16" y="19.48" width="3.45" height="9.32"/><line class="cls-1" x1="44.16" y1="21.65" x2="47.61" y2="21.65"/><line class="cls-1" x1="44.16" y1="24.14" x2="47.61" y2="24.14"/><line class="cls-1" x1="44.16" y1="26.62" x2="47.61" y2="26.62"/><rect class="cls-1" x="52.45" y="19.48" width="6.9" height="9.32"/><line class="cls-1" x1="55.9" y1="19.48" x2="55.9" y2="28.8"/><line class="cls-1" x1="52.45" y1="24.14" x2="59.35" y2="24.14"/><polygon class="cls-1" points="60.68 17.15 51.12 17.15 52.33 19.48 59.23 19.48 60.68 17.15"/><polygon class="cls-1" points="50.21 30.25 61.98 30.25 60.49 28.8 52 28.8 50.21 30.25"/><rect class="cls-1" x="49" y="19.48" width="3.45" height="9.32"/><line class="cls-1" x1="49" y1="21.65" x2="52.45" y2="21.65"/><line class="cls-1" x1="49" y1="24.14" x2="52.45" y2="24.14"/><line class="cls-1" x1="49" y1="26.62" x2="52.45" y2="26.62"/><rect class="cls-1" x="59.35" y="19.48" width="3.45" height="9.32"/><line class="cls-1" x1="59.35" y1="21.65" x2="62.8" y2="21.65"/><line class="cls-1" x1="59.35" y1="24.14" x2="62.8" y2="24.14"/><line class="cls-1" x1="59.35" y1="26.62" x2="62.8" y2="26.62"/><rect class="cls-1" x="21.89" y="40.31" width="6.9" height="9.32"/><line class="cls-1" x1="25.34" y1="40.31" x2="25.34" y2="49.63"/><line class="cls-1" x1="21.89" y1="44.97" x2="28.79" y2="44.97"/><polygon class="cls-1" points="30.13 37.98 20.56 37.98 21.77 40.31 28.67 40.31 30.13 37.98"/><polygon class="cls-1" points="19.66 51.09 31.42 51.09 29.93 49.63 21.44 49.63 19.66 51.09"/><rect class="cls-1" x="18.44" y="40.31" width="3.45" height="9.32"/><line class="cls-1" x1="18.44" y1="42.49" x2="21.89" y2="42.49"/><line class="cls-1" x1="18.44" y1="44.97" x2="21.89" y2="44.97"/><line class="cls-1" x1="18.44" y1="47.46" x2="21.89" y2="47.46"/><rect class="cls-1" x="28.79" y="40.31" width="3.45" height="9.32"/><line class="cls-1" x1="28.79" y1="42.49" x2="32.24" y2="42.49"/><line class="cls-1" x1="28.79" y1="44.97" x2="32.24" y2="44.97"/><line class="cls-1" x1="28.79" y1="47.46" x2="32.24" y2="47.46"/><rect class="cls-1" x="37.09" y="40.31" width="6.9" height="9.32"/><line class="cls-1" x1="40.54" y1="40.31" x2="40.54" y2="49.63"/><line class="cls-1" x1="37.09" y1="44.97" x2="43.99" y2="44.97"/><polygon class="cls-1" points="45.32 37.98 35.76 37.98 36.97 40.31 43.87 40.31 45.32 37.98"/><polygon class="cls-1" points="34.85 51.09 46.62 51.09 45.13 49.63 36.64 49.63 34.85 51.09"/><rect class="cls-1" x="33.64" y="40.31" width="3.45" height="9.32"/><line class="cls-1" x1="33.64" y1="42.49" x2="37.09" y2="42.49"/><line class="cls-1" x1="33.64" y1="44.97" x2="37.09" y2="44.97"/><line class="cls-1" x1="33.64" y1="47.46" x2="37.09" y2="47.46"/><rect class="cls-1" x="43.99" y="40.31" width="3.45" height="9.32"/><line class="cls-1" x1="43.99" y1="42.49" x2="47.44" y2="42.49"/><line class="cls-1" x1="43.99" y1="44.97" x2="47.44" y2="44.97"/><line class="cls-1" x1="43.99" y1="47.46" x2="47.44" y2="47.46"/><rect class="cls-1" x="52.28" y="40.31" width="6.9" height="9.32"/><line class="cls-1" x1="55.73" y1="40.31" x2="55.73" y2="49.63"/><line class="cls-1" x1="52.28" y1="44.97" x2="59.18" y2="44.97"/><polygon class="cls-1" points="60.52 37.98 50.95 37.98 52.16 40.31 59.06 40.31 60.52 37.98"/><polygon class="cls-1" points="50.05 51.09 61.81 51.09 60.32 49.63 51.83 49.63 50.05 51.09"/><rect class="cls-1" x="48.83" y="40.31" width="3.45" height="9.32"/><line class="cls-1" x1="48.83" y1="42.49" x2="52.28" y2="42.49"/><line class="cls-1" x1="48.83" y1="44.97" x2="52.28" y2="44.97"/><line class="cls-1" x1="48.83" y1="47.46" x2="52.28" y2="47.46"/><rect class="cls-1" x="59.18" y="40.31" width="3.45" height="9.32"/><line class="cls-1" x1="59.18" y1="42.49" x2="62.63" y2="42.49"/><line class="cls-1" x1="59.18" y1="44.97" x2="62.63" y2="44.97"/><line class="cls-1" x1="59.18" y1="47.46" x2="62.63" y2="47.46"/><rect class="cls-1" x="21.89" y="61.14" width="6.9" height="9.32"/><line class="cls-1" x1="25.34" y1="61.14" x2="25.34" y2="70.47"/><line class="cls-1" x1="21.89" y1="65.81" x2="28.79" y2="65.81"/><polygon class="cls-1" points="30.13 58.82 20.56 58.82 21.77 61.15 28.67 61.15 30.13 58.82"/><polygon class="cls-1" points="19.66 71.92 31.42 71.92 29.93 70.47 21.44 70.47 19.66 71.92"/><rect class="cls-1" x="18.44" y="61.14" width="3.45" height="9.32"/><line class="cls-1" x1="18.44" y1="63.32" x2="21.89" y2="63.32"/><line class="cls-1" x1="18.44" y1="65.81" x2="21.89" y2="65.81"/><line class="cls-1" x1="18.44" y1="68.29" x2="21.89" y2="68.29"/><rect class="cls-1" x="28.79" y="61.14" width="3.45" height="9.32"/><line class="cls-1" x1="28.79" y1="63.32" x2="32.24" y2="63.32"/><line class="cls-1" x1="28.79" y1="65.81" x2="32.24" y2="65.81"/><line class="cls-1" x1="28.79" y1="68.29" x2="32.24" y2="68.29"/><rect class="cls-1" x="37.09" y="61.14" width="6.9" height="9.32"/><line class="cls-1" x1="40.54" y1="61.14" x2="40.54" y2="70.47"/><line class="cls-1" x1="37.09" y1="65.81" x2="43.99" y2="65.81"/><polygon class="cls-1" points="45.32 58.82 35.76 58.82 36.97 61.15 43.87 61.15 45.32 58.82"/><polygon class="cls-1" points="34.85 71.92 46.62 71.92 45.13 70.47 36.64 70.47 34.85 71.92"/><rect class="cls-1" x="33.64" y="61.14" width="3.45" height="9.32"/><line class="cls-1" x1="33.64" y1="63.32" x2="37.09" y2="63.32"/><line class="cls-1" x1="33.64" y1="65.81" x2="37.09" y2="65.81"/><line class="cls-1" x1="33.64" y1="68.29" x2="37.09" y2="68.29"/><rect class="cls-1" x="43.99" y="61.14" width="3.45" height="9.32"/><line class="cls-1" x1="43.99" y1="63.32" x2="47.44" y2="63.32"/><line class="cls-1" x1="43.99" y1="65.81" x2="47.44" y2="65.81"/><line class="cls-1" x1="43.99" y1="68.29" x2="47.44" y2="68.29"/><rect class="cls-1" x="52.28" y="61.14" width="6.9" height="9.32"/><line class="cls-1" x1="55.73" y1="61.14" x2="55.73" y2="70.47"/><line class="cls-1" x1="52.28" y1="65.81" x2="59.18" y2="65.81"/><polygon class="cls-1" points="60.52 58.82 50.95 58.82 52.16 61.15 59.06 61.15 60.52 58.82"/><polygon class="cls-1" points="50.05 71.92 61.81 71.92 60.32 70.47 51.83 70.47 50.05 71.92"/><rect class="cls-1" x="48.83" y="61.14" width="3.45" height="9.32"/><line class="cls-1" x1="48.83" y1="63.32" x2="52.28" y2="63.32"/><line class="cls-1" x1="48.83" y1="65.81" x2="52.28" y2="65.81"/><line class="cls-1" x1="48.83" y1="68.29" x2="52.28" y2="68.29"/><rect class="cls-1" x="59.18" y="61.14" width="3.45" height="9.32"/><line class="cls-1" x1="59.18" y1="63.32" x2="62.63" y2="63.32"/><line class="cls-1" x1="59.18" y1="65.81" x2="62.63" y2="65.81"/><line class="cls-1" x1="59.18" y1="68.29" x2="62.63" y2="68.29"/><rect class="cls-1" x="37.09" y="85.17" width="6.9" height="9.32"/><line class="cls-1" x1="40.54" y1="85.17" x2="40.54" y2="94.49"/><line class="cls-1" x1="37.09" y1="89.83" x2="43.99" y2="89.83"/><polygon class="cls-1" points="45.32 82.84 35.76 82.84 36.97 85.17 43.87 85.17 45.32 82.84"/><polygon class="cls-1" points="34.85 95.94 46.62 95.94 45.13 94.49 36.64 94.49 34.85 95.94"/><rect class="cls-1" x="33.64" y="85.17" width="3.45" height="9.32"/><line class="cls-1" x1="33.64" y1="87.34" x2="37.09" y2="87.34"/><line class="cls-1" x1="33.64" y1="89.83" x2="37.09" y2="89.83"/><line class="cls-1" x1="33.64" y1="92.31" x2="37.09" y2="92.31"/><rect class="cls-1" x="43.99" y="85.17" width="3.45" height="9.32"/><line class="cls-1" x1="43.99" y1="87.34" x2="47.44" y2="87.34"/><line class="cls-1" x1="43.99" y1="89.83" x2="47.44" y2="89.83"/><line class="cls-1" x1="43.99" y1="92.31" x2="47.44" y2="92.31"/><rect class="cls-1" x="52.28" y="85.17" width="6.9" height="9.32"/><line class="cls-1" x1="55.73" y1="85.17" x2="55.73" y2="94.49"/><line class="cls-1" x1="52.28" y1="89.83" x2="59.18" y2="89.83"/><polygon class="cls-1" points="60.52 82.84 50.95 82.84 52.16 85.17 59.06 85.17 60.52 82.84"/><polygon class="cls-1" points="50.05 95.94 61.81 95.94 60.32 94.49 51.83 94.49 50.05 95.94"/><rect class="cls-1" x="48.83" y="85.17" width="3.45" height="9.32"/><line class="cls-1" x1="48.83" y1="87.34" x2="52.28" y2="87.34"/><line class="cls-1" x1="48.83" y1="89.83" x2="52.28" y2="89.83"/><line class="cls-1" x1="48.83" y1="92.31" x2="52.28" y2="92.31"/><rect class="cls-1" x="59.18" y="85.17" width="3.45" height="9.32"/><line class="cls-1" x1="59.18" y1="87.34" x2="62.63" y2="87.34"/><line class="cls-1" x1="59.18" y1="89.83" x2="62.63" y2="89.83"/><line class="cls-1" x1="59.18" y1="92.31" x2="62.63" y2="92.31"/><rect class="cls-1" x="18.44" y="85.17" width="3.45" height="15.08"/><line class="cls-1" x1="18.44" y1="87.34" x2="21.89" y2="87.34"/><line class="cls-1" x1="18.44" y1="89.83" x2="21.89" y2="89.83"/><line class="cls-1" x1="18.44" y1="92.31" x2="21.89" y2="92.31"/><line class="cls-1" x1="18.44" y1="94.95" x2="21.89" y2="94.95"/><line class="cls-1" x1="18.44" y1="97.59" x2="21.89" y2="97.59"/><rect class="cls-1" x="28.79" y="85.17" width="3.45" height="15.08"/><line class="cls-1" x1="28.79" y1="87.34" x2="32.24" y2="87.34"/><line class="cls-1" x1="28.79" y1="89.83" x2="32.24" y2="89.83"/><line class="cls-1" x1="28.79" y1="92.31" x2="32.24" y2="92.31"/><line class="cls-1" x1="28.79" y1="94.95" x2="32.24" y2="94.95"/><line class="cls-1" x1="28.79" y1="97.59" x2="32.24" y2="97.59"/><line class="cls-1" x1="79.09" y1="72.58" x2="79.09" y2="110.1"/><rect class="cls-2" x="77.87" y="98.87" width="2.45" height="11.23"/><line class="cls-1" x1="75.7" y1="79.81" x2="82.49" y2="79.81"/><polygon class="cls-2" points="79.09 61.15 81.83 67.63 76.36 67.63 79.09 61.15"/><polygon class="cls-1" points="79.09 74.19 77.05 68.61 81.14 68.61 79.09 74.19"/><line class="cls-1" x1="85.38" y1="56.34" x2="82.28" y2="62.2"/><line class="cls-1" x1="91.69" y1="68.29" x2="85.44" y2="68.29"/><line class="cls-1" x1="66.45" y1="68.29" x2="72.59" y2="68.29"/><line class="cls-1" x1="72.76" y1="56.34" x2="75.76" y2="61.99"/><rect class="cls-1" x="13.41" y="105.25" width="23.43" height="1.61"/><rect class="cls-1" x="14.8" y="103.64" width="20.67" height="1.61"/><rect class="cls-1" x="16.25" y="102.03" width="17.77" height="1.61"/><rect class="cls-1" x="17.67" y="100.36" width="14.92" height="1.61"/><path class="cls-2" d="M180.75,84a42.53,42.53,0,0,1-17.21,3.43q-8,0-10.29-2.59a2.51,2.51,0,0,1-.65-1.69,3,3,0,0,1,.8-1.89,6.11,6.11,0,0,1,2.29-1.59q3-1.39,8.73-1.39T180,81.77q7.06-4.62,17.31-18.6-10.15-.3-16.56-4.48t-6.27-10.64q0-6.51,6-12A19.5,19.5,0,0,1,194,30.4q1.09,0,1.09.6t-2.73.72a15.42,15.42,0,0,0-5.59,1.77A16.32,16.32,0,0,0,182,37.12q-3.83,4.33-3.83,9a16.43,16.43,0,0,0,1.42,7.41,12.47,12.47,0,0,0,4.05,4.62q5.17,3.53,14.67,3.63l6.76-9.8q12.33-18.4,22.68-26.46,10.09-7.81,20.94-7.81,5.77,0,7.66,3.53a6.85,6.85,0,0,1,.6,3.13,12.41,12.41,0,0,1-1.32,4.9A29.76,29.76,0,0,1,252,35.18a53.29,53.29,0,0,1-5.59,6.07,79.21,79.21,0,0,1-7.06,5.87,93.53,93.53,0,0,1-8.13,5.37q-4.3,2.54-8.78,4.62a66.12,66.12,0,0,1-17.65,5.57Q193.83,77.3,183,82.91q9.05,3.23,21.63,3.23,11.14,0,16.26-5.12.75-.75.95-.3.35.8-.75,1.89a23.47,23.47,0,0,1-16,6Q196,88.58,180.75,84Zm-16.61-3.18Q154,80.83,154,83.31q0,1.69,5.12,2.64a29,29,0,0,0,4.82.3,28.58,28.58,0,0,0,13.82-3.13A57,57,0,0,0,164.14,80.83ZM206,61.08q10.44-1.79,22.13-8.55a72.31,72.31,0,0,0,18.05-14.32q7.51-8.3,7.51-14.82,0-2.88-3.18-4.18a5.2,5.2,0,0,0-2-.4q-15.81,0-30.88,24.76l-6,9.35Q208.75,57.31,206,61.08Z"/><path class="cls-2" d="M253.35,87.44q-5,0-5-3.08,0-2.54,2.88-6.37l3.13-4-.5-.2q-8.35,10.29-15.76,12.93a11.19,11.19,0,0,1-3.53.7q-6.12,0-6.12-6.51,0-7.66,6.12-14.62,9-10.54,18.2-12.48a24.4,24.4,0,0,1,4.67-.55,13.48,13.48,0,0,1,3.06.27,7.28,7.28,0,0,1,2,.77,3.31,3.31,0,0,1,1.79,2.81,8.41,8.41,0,0,1-.6,3.16l4.87-6a8.76,8.76,0,0,0,2.49.4,31.28,31.28,0,0,0,4.23-.2L258.52,74.66q-6,7-6,9.8,0,1.59,1.89,1.59a10.56,10.56,0,0,0,4.35-1.14,28.77,28.77,0,0,0,4.9-2.93,49.83,49.83,0,0,0,4.75-4q2.31-2.19,4.28-4.28t3.46-3.88l2.39-2.69,1,.85-2.54,2.88Q262.75,87.44,253.35,87.44Zm-13.77-17.9q-7,8.5-7,13.92,0,2.49,2.24,2.49,7.26,0,20.94-16.06l4.18-5q3-4.52,3-6.56,0-3.48-3.48-3.48-4.73,0-13.58,8.06A69,69,0,0,0,239.58,69.54Z"/><path class="cls-2" d="M276,80.18a85.92,85.92,0,0,1-8.3,31.83q-4.48,9.05-10,12.63a9.89,9.89,0,0,1-5.32,1.84,5.21,5.21,0,0,1-3.85-1.37A4.46,4.46,0,0,1,247,122a16,16,0,0,1,.22-3.26,16.81,16.81,0,0,1,1.19-3.66Q249.37,113,251,110t4.2-7.14l6.22-9.8,13.13-19.89a15.1,15.1,0,0,1-2-4.67,10.54,10.54,0,0,1-.32-3.83,5,5,0,0,1,1.07-2.51,2.59,2.59,0,0,1,2.06-1,2.65,2.65,0,0,1,2,.8,2.51,2.51,0,0,1,.77,1.79,4.83,4.83,0,0,1-.27,1.72,6.32,6.32,0,0,1-.72,1.37A6,6,0,0,1,274.83,69a9.76,9.76,0,0,0,.85,2.44l24.42-37.84a126.4,126.4,0,0,1,7.44-10.24,103.53,103.53,0,0,1,7.23-8.3q6.27-6.27,9.95-6.27a3.93,3.93,0,0,1,3.18,1.24A6.4,6.4,0,0,1,329,14q.1,2.66-1.89,7.36a63.47,63.47,0,0,1-5.47,10,116.76,116.76,0,0,1-8.13,10.84q-4.65,5.55-9.87,10.77a132,132,0,0,1-21.38,17.4l-3.53,5.47A10.34,10.34,0,0,0,285,78.09a20.3,20.3,0,0,0,7.34-.82,24.72,24.72,0,0,0,6.12-2.76,34.84,34.84,0,0,0,7.61-7.31l1.14.8a17.1,17.1,0,0,0-1.49,1.64,30.54,30.54,0,0,1-2.36,2.51,36.82,36.82,0,0,1-3.28,2.79,22.53,22.53,0,0,1-4.25,2.51,21.62,21.62,0,0,1-11.59,1.84A12.91,12.91,0,0,1,278,77Zm-1.64,2.49-16.76,25.66-4,6.56Q250,121.1,250,123.14a2,2,0,0,0,.62,1.47,2.5,2.5,0,0,0,1.84.62,6.34,6.34,0,0,0,3.23-1.39,24.13,24.13,0,0,0,4.28-4,47.51,47.51,0,0,0,4.58-6.34,62.24,62.24,0,0,0,4.3-8.48A76.34,76.34,0,0,0,274.34,82.67Zm9.75-15.12q14.37-9.8,28.35-27.2,10.24-12.73,13.38-22,1.94-5.77.25-7.66a2,2,0,0,0-1.52-.7,3.87,3.87,0,0,0-2,.67A13.84,13.84,0,0,0,319.89,13a85.37,85.37,0,0,0-7.71,10.64Z"/><path class="cls-2" d="M325.6,87.44q-5,0-5-3.08,0-2.54,2.88-6.37l3.13-4-.5-.2q-8.36,10.29-15.76,12.93a11.19,11.19,0,0,1-3.53.7q-6.12,0-6.12-6.51,0-7.66,6.12-14.62,9-10.54,18.2-12.48a24.42,24.42,0,0,1,4.67-.55,13.46,13.46,0,0,1,3.06.27,7.29,7.29,0,0,1,2,.77,3.31,3.31,0,0,1,1.79,2.81,8.43,8.43,0,0,1-.6,3.16l4.87-6a8.76,8.76,0,0,0,2.49.4,31.26,31.26,0,0,0,4.23-.2L330.78,74.66q-6,7-6,9.8,0,1.59,1.89,1.59A10.56,10.56,0,0,0,331,84.9a28.77,28.77,0,0,0,4.9-2.93,50,50,0,0,0,4.75-4Q343,75.8,345,73.71t3.46-3.88l2.39-2.69,1,.85-2.54,2.88Q335,87.44,325.6,87.44Zm-13.77-17.9q-7,8.5-7,13.92,0,2.49,2.24,2.49,7.26,0,20.94-16.06l4.18-5q3-4.52,3-6.56,0-3.48-3.48-3.48-4.73,0-13.58,8.06A69.16,69.16,0,0,0,311.83,69.54Z"/><path class="cls-2" d="M345.94,83.86q0,2.29,2.93,2.29a16.72,16.72,0,0,0,6.49-1.52,37.47,37.47,0,0,0,7-4,59.44,59.44,0,0,0,12.18-11.54q8.75-10,10.49-12.08l2.69-3.33a18,18,0,0,0,2.83.35,27.23,27.23,0,0,0,3.83-.2l-17.3,21.33L368.27,87l-7.56,9.85q12.83-6.17,19.69-12.28a77.88,77.88,0,0,0,8.4-8.75L396,67.15l1,.85-6.27,7.41a93.54,93.54,0,0,1-9.3,9.8,74.13,74.13,0,0,1-6.81,5.32A129.06,129.06,0,0,1,359,99,184.87,184.87,0,0,1,345,115.14a68.79,68.79,0,0,1-7.43,6.44,29.21,29.21,0,0,1-5.32,3,26.09,26.09,0,0,1-10.39,1.89q-3,0-4-2.14a4.46,4.46,0,0,1-.3-1.89,7.12,7.12,0,0,1,1.67-3.61,24.34,24.34,0,0,1,5.69-5.15q8.06-5.67,27.85-14L373,74l-.55-.2a45.77,45.77,0,0,1-9.65,8.06q-9.2,5.57-14.72,5.57a6.58,6.58,0,0,1-4.18-1.12,3.39,3.39,0,0,1-1.39-2.73,13.36,13.36,0,0,1,.3-2.93A15.18,15.18,0,0,1,344,77.49a105.11,105.11,0,0,1,7-10.79q2.29-2.83,5.52-6.12l6.91-7,2.34.25q.79,0,2.46,0a27.41,27.41,0,0,0,3-.15,84.36,84.36,0,0,0-6.61,6.46l-3.53,4q-11,12.18-12.38,14.22Q345.94,82.37,345.94,83.86Zm5.07,18q-25,10.69-30.08,17a7,7,0,0,0-1.79,4.33,2,2,0,0,0,.67,1.27q.67.72,2.86.72a14.29,14.29,0,0,0,4.85-1,23,23,0,0,0,5.94-3.51Q339.48,115.88,351,101.81Z"/><path class="cls-2" d="M414.89,83a33.24,33.24,0,0,1-6.81,3.31,20.81,20.81,0,0,1-6.94,1.29,14.35,14.35,0,0,1-5-.67,7.39,7.39,0,0,1-2.81-1.86q-4.67-5.07,0-15a24.19,24.19,0,0,1,6.17-8,47,47,0,0,1,7.26-5.4,23.07,23.07,0,0,1,11.39-3.48q5.27,0,5.52,3.28.35,5.32-12.93,11.59a111.3,111.3,0,0,1-12.28,4.72q-2.93,4.77-2.93,7.78t1.57,4.28a7.13,7.13,0,0,0,4.58,1.27,18.91,18.91,0,0,0,6.51-1.29,32.78,32.78,0,0,0,6.56-3.28,39.48,39.48,0,0,0,5.54-4.33q2.49-2.34,4.4-4.48t3.13-3.7a18.51,18.51,0,0,1,1.67-2l1,.85a17,17,0,0,0-2,2.24q-1.32,1.69-3.33,3.85t-4.62,4.55A42.06,42.06,0,0,1,414.89,83ZM399.65,71.13q15-5.27,19.34-10.49a5.37,5.37,0,0,0,1.44-3.38q0-2.78-2.59-2.78-4.58,0-11.44,8A88.42,88.42,0,0,0,399.65,71.13Z"/><path class="cls-2" d="M424.21,84.46q0,1.49,2.39,1.54a11,11,0,0,0,4.8-1,29.16,29.16,0,0,0,4.8-2.79,42.48,42.48,0,0,0,4.62-3.8q2.24-2.11,4.18-4.2t3.48-3.93l2.59-3.08,1.09.85-2.58,3Q435.7,87.44,426.25,87.44a6.48,6.48,0,0,1-4.1-1.09A3.08,3.08,0,0,1,420.78,84a15.11,15.11,0,0,1,.13-2.14,8.69,8.69,0,0,1,.52-1.86,20.77,20.77,0,0,1,1.17-2.41q.77-1.39,2.06-3.38L432.42,63l12.83-18.05h-3.93q-1.49,0-1.49-.72t1.89-.72h4.53l9.2-12.93a21.94,21.94,0,0,0,6.91,0l-9.6,12.93h12.83q1.39,0,1.39.72t-1.24.72H451.66l-20.59,28A87.55,87.55,0,0,0,425,82.17,7.73,7.73,0,0,0,424.21,84.46Z"/><path class="cls-2" d="M445.75,84.46q0,1.49,2.39,1.54a11,11,0,0,0,4.8-1,29.16,29.16,0,0,0,4.8-2.79,42.48,42.48,0,0,0,4.62-3.8q2.24-2.11,4.18-4.2T470,70.23l2.59-3.08,1.09.85-2.58,3q-13.87,16.46-23.32,16.46a6.48,6.48,0,0,1-4.1-1.09A3.08,3.08,0,0,1,442.31,84a15.11,15.11,0,0,1,.13-2.14A8.69,8.69,0,0,1,443,80a20.77,20.77,0,0,1,1.17-2.41q.77-1.39,2.06-3.38L454,63l12.83-18.05h-3.93q-1.49,0-1.49-.72t1.89-.72h4.53L477,30.55a21.94,21.94,0,0,0,6.91,0l-9.6,12.93h12.83q1.39,0,1.39.72t-1.24.72H473.2l-20.59,28a87.55,87.55,0,0,0-6.09,9.25A7.73,7.73,0,0,0,445.75,84.46Z"/><path class="cls-2" d="M491.47,83a33.24,33.24,0,0,1-6.81,3.31,20.81,20.81,0,0,1-6.94,1.29,14.35,14.35,0,0,1-5-.67,7.39,7.39,0,0,1-2.81-1.86q-4.67-5.07,0-15a24.19,24.19,0,0,1,6.17-8,47,47,0,0,1,7.26-5.4,23.07,23.07,0,0,1,11.39-3.48q5.27,0,5.52,3.28.35,5.32-12.93,11.59a111.3,111.3,0,0,1-12.28,4.72q-2.93,4.77-2.93,7.78t1.57,4.28a7.13,7.13,0,0,0,4.58,1.27,18.91,18.91,0,0,0,6.51-1.29,32.78,32.78,0,0,0,6.56-3.28,39.48,39.48,0,0,0,5.54-4.33q2.49-2.34,4.4-4.48t3.13-3.7a18.51,18.51,0,0,1,1.67-2l1,.85a17,17,0,0,0-2,2.24q-1.32,1.69-3.33,3.85t-4.62,4.55A42.06,42.06,0,0,1,491.47,83ZM476.23,71.13q15-5.27,19.34-10.49A5.37,5.37,0,0,0,497,57.26q0-2.78-2.59-2.78-4.58,0-11.44,8A88.42,88.42,0,0,0,476.23,71.13Z"/><path class="cls-2" d="M531.48,79.88l-.85.72a3.29,3.29,0,0,1-2.21.72,4.13,4.13,0,0,1-2.11-.45v.3a4.16,4.16,0,0,0,2.11,3.58,8.87,8.87,0,0,0,5,1.39,21.32,21.32,0,0,0,12.88-4.67,61.92,61.92,0,0,0,9.5-9l9.3-11.14q-1.44.4-2.78.85l-2.54.8q-14,4.87-18.6,11.93-.25.45-.57.45t-.25-.27a3.78,3.78,0,0,0,.1-.45,6.26,6.26,0,0,1,.45-1,8.89,8.89,0,0,1,1.77-2.19,28.07,28.07,0,0,1,3-2.56A43.06,43.06,0,0,1,556.26,63q5.1-1.84,10.07-3.28,3-4.18,5.92-7.81,7.36-8.85,9.8-11.49l4-4.28q-8.75,5.42-14.12,5.42a6.93,6.93,0,0,1-4.2-1.22,3.68,3.68,0,0,1-1.67-3.08,12.93,12.93,0,0,1,.3-3.06,8.93,8.93,0,0,1,1.09-2.49,22.93,22.93,0,0,1,5.47-5.62,11.44,11.44,0,0,0,2.73-2.54,2.68,2.68,0,0,0,.2-.8,2.79,2.79,0,0,0-1.57-2.44,10.45,10.45,0,0,0-5.15-.94,19.82,19.82,0,0,0-13.82,5.42,2.26,2.26,0,0,1-1.29.7c-.33,0-.5-.12-.5-.35s.3-.8.89-1.39a21.82,21.82,0,0,1,14.92-5.42,11.53,11.53,0,0,1,6.44,1.52A4.75,4.75,0,0,1,578.07,24,8.81,8.81,0,0,1,576.83,29a20.38,20.38,0,0,1-6.41,6.12,10.05,10.05,0,0,0-2,1.52,1.61,1.61,0,0,0-.45,1,2,2,0,0,0,.22.94,2.51,2.51,0,0,0,.77.82,5.83,5.83,0,0,0,3.26.85,14.21,14.21,0,0,0,4-.6,26.21,26.21,0,0,0,4.33-1.74,41.56,41.56,0,0,0,8.9-6Q600.79,22,603,20.53a37.42,37.42,0,0,1,3.23-2l1.49-.7a1.93,1.93,0,0,1,.87-.2q.47,0,.47.22a.38.38,0,0,1-.22.35l-.62.37-.67.4-.67.4-2.49,1.79a62.93,62.93,0,0,0-9.2,9.5L587.42,40.8l-7,9.7-5.47,6.91,19.24-4.77,2.54-3A146.14,146.14,0,0,1,621,26.87q13.13-9.65,19.34-9.65a4.84,4.84,0,0,1,3.36,1,3.35,3.35,0,0,1,1.12,2.59,8.23,8.23,0,0,1-1.37,3.9,27.59,27.59,0,0,1-4,5,59.77,59.77,0,0,1-6.39,5.64,88.86,88.86,0,0,1-8.55,5.82,109.74,109.74,0,0,1-22.87,10.39Q588.86,67.2,584.43,76.8A12.78,12.78,0,0,0,583,82a4.64,4.64,0,0,0,.94,3.16q.94,1.07,3.46,1.07a11.82,11.82,0,0,0,5.52-1.62,22.72,22.72,0,0,0,5.79-4.6,41.22,41.22,0,0,0,9.15-16.51Q608.3,62,609,62q.4,0,.57,1.62a10.16,10.16,0,0,1-.65,4.1,27.53,27.53,0,0,1-2.36,5.15,36.48,36.48,0,0,1-3.75,5.27,35.71,35.71,0,0,1-4.8,4.7q-5.72,4.63-11.29,4.63a5.81,5.81,0,0,1-6-4.13,8.08,8.08,0,0,1-.45-2.91,22.35,22.35,0,0,1,.6-4.52,32,32,0,0,1,2-6,79.91,79.91,0,0,1,9.95-15.66q-4.53,1.29-9.55,2.49l-9.85,2.44-7.36,8.5a98.26,98.26,0,0,1-11.51,11.19A69.37,69.37,0,0,1,547.09,84a26.51,26.51,0,0,1-13.28,3.43,11.45,11.45,0,0,1-6.71-1.94,5.67,5.67,0,0,1-2.74-4.72,3.67,3.67,0,0,1,3-3.88,5.66,5.66,0,0,1,1.59-.25q2.49,0,2.49,2.24Zm71.71-30a104.25,104.25,0,0,0,28.34-16.16q7.36-6,10.19-10.29A7,7,0,0,0,643.11,20q0-1.69-2.16-1.69a11.08,11.08,0,0,0-4.75,1.24,39.89,39.89,0,0,0-5.64,3.41,77.47,77.47,0,0,0-6.46,5.17q-3.41,3-6.94,6.51T610,42Z"/><path class="cls-2" d="M642,79.33a2.86,2.86,0,0,1-2.68-1.49q-5.92,6.71-12.78,8.9a15.24,15.24,0,0,1-4.45.7,12.13,12.13,0,0,1-3.71-.5,6.9,6.9,0,0,1-2.54-1.39q-4-3.48-.8-12a29,29,0,0,1,3.21-6.22,37.24,37.24,0,0,1,9.72-9.75q6.41-4.33,12.53-4.33A7.63,7.63,0,0,1,645,54.64a4.92,4.92,0,0,1,2.06,3.93,18.85,18.85,0,0,1-.3,4.8,25.55,25.55,0,0,1-1.34,4.48,32.88,32.88,0,0,1-5.07,8.65,1.76,1.76,0,0,0,1.91,1.44,6.49,6.49,0,0,0,3-.72,19,19,0,0,0,2.83-1.79A30.39,30.39,0,0,0,650.9,73q1.37-1.32,2.51-2.51l1.89-2.09q.8-.94,1.14-1.29l1.09.85q-.65.6-1.64,1.69T653.66,72L651,74.61Q645.9,79.34,642,79.33Zm-20.64,6.22a5.1,5.1,0,0,0,2.24.4q3.23,0,8.3-3.63a37.36,37.36,0,0,0,6.91-6.42v-.2A7.17,7.17,0,0,1,642,69.34a6.27,6.27,0,0,1,1.59-.85q2.39-5.07,2.24-8.3-.3-5.12-3.78-5.12-5.87,0-16.46,13.23-6.81,8.55-6.41,13.33A4.13,4.13,0,0,0,621.33,85.55Z"/><path class="cls-2" d="M652.06,84.41q0,1.79,2.39,1.79a13.16,13.16,0,0,0,7.16-2.54q8.25-5.52,17.21-16.51l11.29-13.58a35.19,35.19,0,0,0,4.33.3,29,29,0,0,0,3.23-.15l-4.87,5.62-17.6,21.43a6.23,6.23,0,0,0-1.74,3.48q0,1.79,2.39,1.79a11.13,11.13,0,0,0,4.95-1.27,32.17,32.17,0,0,0,5.12-3.21,59.23,59.23,0,0,0,5-4.25q2.43-2.31,4.42-4.4l5.22-5.77,1,.85-1.94,2.19q-1.44,1.64-3.53,3.78l-4.62,4.52q-9.5,9-15.76,9a5,5,0,0,1-3.36-1.12,4,4,0,0,1-1.42-3,15.94,15.94,0,0,1,2.54-8.21Q662,87.44,654.05,87.44q-4.48,0-5.72-3.18a7.11,7.11,0,0,1-.4-2.29,9,9,0,0,1,.67-3.33,22.7,22.7,0,0,1,2.16-4.2,59.51,59.51,0,0,1,3.53-4.9l9-10.84q2.09-2.58,4.43-5.12a21.59,21.59,0,0,0,3.13.3h1.69a14.87,14.87,0,0,0,2.74-.15q-5.82,6.37-8.16,9.2l-9.9,11.88Q652,80.88,652.06,84.41Z"/><path class="cls-2" d="M715.52,78.19a9.42,9.42,0,0,0,1.52.1,4.87,4.87,0,0,0,2.21-.7,17.85,17.85,0,0,0,2.66-1.79,35.68,35.68,0,0,0,2.71-2.41q1.34-1.32,2.46-2.54t2-2.21l1.14-1.49,1.09.85q-.6.6-1.54,1.64L727.65,72q-6.91,7.46-10.94,7.46h-.85a3.24,3.24,0,0,1-.8-.1q-4.18,9.1-17.75,9.1-5.92,0-8.6-2.83a4.52,4.52,0,0,1-1.14-3.18,5.79,5.79,0,0,1,.92-3.31,8.84,8.84,0,0,1,2.16-2.26,8.06,8.06,0,0,1,4.55-1.84q2,0,2,1.89-.15,1.29-2.19,1.94a4.28,4.28,0,0,1-1.27.2,2,2,0,0,1-1.19-.42,10.11,10.11,0,0,0-.92-.62q-.3.3-.77.7a7.28,7.28,0,0,0-.92.94,4.34,4.34,0,0,0-1.09,2.76,2.88,2.88,0,0,0,.95,2.26A6.49,6.49,0,0,0,692,86a11.6,11.6,0,0,0,8.43-.2,14,14,0,0,0,4.45-3q6-5.72,6.51-17A41,41,0,0,1,713.28,54a1.51,1.51,0,0,0,0-.45L701.59,68a11.46,11.46,0,0,1-1.94,1.89.76.76,0,0,1-.8-.3q-.1-.25.45-.94,12.83-15.32,14.42-17.4.8-3.88,2.59-3.88a2.23,2.23,0,0,1,1.42.45A1.39,1.39,0,0,1,718.3,49a5.36,5.36,0,0,1-1.52,2.66q-1.47,1.72-1.79,2.19a3.15,3.15,0,0,0-.42.8,2.11,2.11,0,0,0-.1.62v.6a16.43,16.43,0,0,0,.25,3.18L716,67.25Q717.06,74,715.52,78.19Z"/><path class="cls-2" d="M749.06,83a33.24,33.24,0,0,1-6.81,3.31,20.81,20.81,0,0,1-6.94,1.29,14.35,14.35,0,0,1-5-.67,7.39,7.39,0,0,1-2.81-1.86q-4.67-5.07,0-15a24.19,24.19,0,0,1,6.17-8,47,47,0,0,1,7.26-5.4,23.07,23.07,0,0,1,11.39-3.48q5.27,0,5.52,3.28.35,5.32-12.93,11.59a111.3,111.3,0,0,1-12.28,4.72q-2.93,4.77-2.93,7.78t1.57,4.28a7.13,7.13,0,0,0,4.58,1.27,18.91,18.91,0,0,0,6.51-1.29A32.78,32.78,0,0,0,749,81.62a39.48,39.48,0,0,0,5.54-4.33Q757,75,758.9,72.82t3.13-3.7a18.51,18.51,0,0,1,1.67-2l1,.85a17,17,0,0,0-2,2.24q-1.32,1.69-3.33,3.85t-4.62,4.55A42.06,42.06,0,0,1,749.06,83ZM733.82,71.13q15-5.27,19.34-10.49a5.37,5.37,0,0,0,1.44-3.38q0-2.78-2.59-2.78-4.58,0-11.44,8A88.42,88.42,0,0,0,733.82,71.13Z"/></g></g></svg>