<svg xmlns="http://www.w3.org/2000/svg" viewBox="0 0 102.55 102.04"><defs><style>.cls-1{fill:#435871;}.cls-2{fill:#fff;}</style></defs><title>lafayette-house-favicon</title><g id="Layer_2" data-name="Layer 2"><g id="Layer_1-2" data-name="Layer 1"><rect class="cls-1" x="1.05" y="0.62" width="101.11" height="101.11"/><path class="cls-2" d="M21.76,51.29a32.89,32.89,0,0,1-13.3,2.65q-6.15,0-8-2A1.94,1.94,0,0,1,0,50.64a2.28,2.28,0,0,1,.62-1.46,4.72,4.72,0,0,1,1.77-1.23,16.54,16.54,0,0,1,6.75-1.08q4.44,0,12.05,2.69Q26.65,46,34.57,35.18q-7.84-.23-12.8-3.46t-4.84-8.23q0-5,4.61-9.31A15.08,15.08,0,0,1,32,9.84q.85,0,.85.46t-2.11.56a11.92,11.92,0,0,0-4.33,1.37A12.62,12.62,0,0,0,22.76,15a10.39,10.39,0,0,0-3,6.92,12.7,12.7,0,0,0,1.1,5.73A9.64,9.64,0,0,0,24,31.26Q28,34,35.38,34.07l5.23-7.58Q50.14,12.27,58.14,6q7.8-6,16.19-6,4.46,0,5.92,2.73a5.29,5.29,0,0,1,.46,2.42,9.59,9.59,0,0,1-1,3.79,23,23,0,0,1-2.85,4.59,41.11,41.11,0,0,1-4.33,4.69,61.16,61.16,0,0,1-5.46,4.54,72.43,72.43,0,0,1-6.29,4.15q-3.33,2-6.79,3.58A51.11,51.11,0,0,1,40.34,34.8q-8.46,11.3-16.8,15.65a49.84,49.84,0,0,0,16.73,2.5q8.61,0,12.57-4,.58-.58.73-.23.27.62-.58,1.46a18.14,18.14,0,0,1-12.34,4.61Q33.57,54.83,21.76,51.29ZM8.92,48.83q-7.84,0-7.84,1.92,0,1.31,4,2A22.45,22.45,0,0,0,8.77,53,22.1,22.1,0,0,0,19.46,50.6,44.07,44.07,0,0,0,8.92,48.83ZM41.26,33.57A52.13,52.13,0,0,0,58.37,27a55.91,55.91,0,0,0,14-11.07q5.81-6.42,5.81-11.46a3.38,3.38,0,0,0-2.46-3.23A4,4,0,0,0,74.1.88Q61.87.88,50.22,20L45.6,27.26Q43.41,30.65,41.26,33.57Z"/><path class="cls-2" d="M18.28,96.43l-.63.54A2.45,2.45,0,0,1,16,97.5a3.07,3.07,0,0,1-1.57-.33v.22A3.09,3.09,0,0,0,16,100a6.59,6.59,0,0,0,3.71,1,15.85,15.85,0,0,0,9.57-3.47,46,46,0,0,0,7.06-6.69l6.91-8.28q-1.07.3-2.07.63l-1.88.59q-10.42,3.62-13.82,8.87-.19.33-.43.33c-.16,0-.22-.07-.18-.2a2.9,2.9,0,0,0,.07-.33,4.67,4.67,0,0,1,.33-.78,6.65,6.65,0,0,1,1.31-1.63,20.87,20.87,0,0,1,2.25-1.9,32,32,0,0,1,7.85-4.32q3.79-1.37,7.48-2.44,2.25-3.1,4.4-5.8,5.47-6.58,7.28-8.54l3-3.18q-6.51,4-10.5,4a5.15,5.15,0,0,1-3.12-.91A2.74,2.74,0,0,1,44,64.77a9.59,9.59,0,0,1,.22-2.27A6.61,6.61,0,0,1,45,60.65a17,17,0,0,1,4.07-4.18,8.53,8.53,0,0,0,2-1.88,2,2,0,0,0,.15-.59,2.08,2.08,0,0,0-1.17-1.81,7.76,7.76,0,0,0-3.83-.7,14.73,14.73,0,0,0-10.28,4,1.68,1.68,0,0,1-1,.52q-.37,0-.37-.26t.67-1a16.21,16.21,0,0,1,11.09-4,8.57,8.57,0,0,1,4.79,1.13,3.53,3.53,0,0,1,1.68,3.09A6.56,6.56,0,0,1,52,58.58a15.14,15.14,0,0,1-4.77,4.55,7.47,7.47,0,0,0-1.51,1.13,1.19,1.19,0,0,0-.33.78,1.48,1.48,0,0,0,.17.7,1.87,1.87,0,0,0,.57.61,4.33,4.33,0,0,0,2.42.63,10.56,10.56,0,0,0,3-.44,19.43,19.43,0,0,0,3.21-1.29,30.88,30.88,0,0,0,6.62-4.47q8.46-7.35,10.13-8.45a27.83,27.83,0,0,1,2.4-1.46L75,50.34a1.43,1.43,0,0,1,.65-.15c.23,0,.35.06.35.17a.29.29,0,0,1-.17.26l-.46.28-.5.3-.5.3L72.5,52.81a46.83,46.83,0,0,0-6.84,7.06l-5.8,7.5-5.21,7.21-4.07,5.14,14.3-3.55,1.88-2.25A108.65,108.65,0,0,1,84.85,57q9.76-7.17,14.38-7.17a3.6,3.6,0,0,1,2.49.76,2.49,2.49,0,0,1,.83,1.92,6.11,6.11,0,0,1-1,2.9,20.5,20.5,0,0,1-3,3.75,44.41,44.41,0,0,1-4.75,4.19,66.13,66.13,0,0,1-6.36,4.32,81.59,81.59,0,0,1-17,7.72Q60.94,87,57.65,94.14A9.5,9.5,0,0,0,56.58,98a3.44,3.44,0,0,0,.7,2.35,3.33,3.33,0,0,0,2.57.79,8.79,8.79,0,0,0,4.1-1.2,16.89,16.89,0,0,0,4.31-3.42,30.64,30.64,0,0,0,6.8-12.27q.33-1.11.89-1.11.3,0,.43,1.2a7.53,7.53,0,0,1-.48,3,20.44,20.44,0,0,1-1.75,3.83,27.11,27.11,0,0,1-2.79,3.92,26.51,26.51,0,0,1-3.57,3.49Q63.52,102,59.38,102A4.31,4.31,0,0,1,54.95,99a6,6,0,0,1-.33-2.16,16.58,16.58,0,0,1,.44-3.36A23.81,23.81,0,0,1,56.58,89,59.41,59.41,0,0,1,64,77.32q-3.36,1-7.1,1.85L49.55,81,44.08,87.3a73.08,73.08,0,0,1-8.56,8.32,51.55,51.55,0,0,1-5.64,3.88A19.71,19.71,0,0,1,20,102a8.51,8.51,0,0,1-5-1.44,4.21,4.21,0,0,1-2-3.51,2.73,2.73,0,0,1,2.25-2.88A4.2,4.2,0,0,1,16.44,94q1.85,0,1.85,1.66Zm53.3-22.29a77.49,77.49,0,0,0,21.07-12,37.19,37.19,0,0,0,7.58-7.65,5.18,5.18,0,0,0,1-2.59q0-1.26-1.61-1.26a8.24,8.24,0,0,0-3.53.92,29.58,29.58,0,0,0-4.19,2.53,57.33,57.33,0,0,0-4.81,3.84Q84.59,60.17,82,62.77t-5.29,5.49Z"/></g></g></svg>