<svg xmlns="http://www.w3.org/2000/svg" viewBox="0 0 732.75 348.34"><defs><style>.cls-1{fill:#fff;stroke-width:5px;}.cls-1,.cls-3{stroke:#435871;stroke-miterlimit:10;}.cls-2{fill:#435871;}.cls-3{fill:none;}</style></defs><title>review-01</title><g id="Layer_2" data-name="Layer 2"><g id="Layer_1-2" data-name="Layer 1"><rect class="cls-1" x="2.5" y="2.5" width="727.75" height="343.34"/><path class="cls-2" d="M196.8,57l.12.31a4.46,4.46,0,0,0-2.42,3,1.93,1.93,0,0,1,1.19-.58c.41,0,.63.32.63.8a2.22,2.22,0,0,1-1.87,2.11c-.7,0-1-.52-1-1.33C193.46,59.74,194.72,58,196.8,57Zm3.78,0,.12.31a4.46,4.46,0,0,0-2.42,3,1.94,1.94,0,0,1,1.19-.58c.41,0,.63.32.63.8a2.22,2.22,0,0,1-1.87,2.11c-.7,0-1-.52-1-1.33C197.24,59.74,198.49,58,200.58,57Z"/><path class="cls-2" d="M203.49,71.19a4.81,4.81,0,0,0-.19,1.1c0,.68.43.81,1.53.86l-.09.46c-.71,0-1.84-.07-2.89-.07s-2.23,0-2.9.07l.12-.46c1.5-.07,1.87-.3,2.3-2l3-11.29a4.64,4.64,0,0,0,.19-1.09c0-.69-.44-.82-1.53-.87l.11-.46c.62,0,1.71.07,2.89.07s2.19,0,2.91-.07l-.11.46c-1.57.07-1.91.3-2.34,2Z"/><path class="cls-2" d="M215.54,71.67a3.14,3.14,0,0,0-.14.8c0,.39.17.61.53.61.59,0,1.09-.59,1.7-2.32l.3-.84h.43l-.57,1.67c-.6,1.72-1.58,2.34-2.73,2.34s-1.57-.64-1.57-1.48a6.4,6.4,0,0,1,.31-1.71l3.71-12.31a2.52,2.52,0,0,0,.11-.63c0-.59-.41-.87-1.54-.87l.16-.48a8.85,8.85,0,0,0,4.05-.93Z"/><path class="cls-2" d="M226.56,61.6c1.89,0,3.11,1.16,3.11,3.57,0,3.34-2.31,8.76-6.56,8.76-1.89,0-3.12-1.17-3.12-3.58C220,67,222.31,61.6,226.56,61.6Zm-4.62,9.9c0,1.36.43,2,1.3,2,2.46,0,4.48-5.38,4.48-9.44,0-1.39-.43-2-1.29-2C224,62.05,221.94,67.44,221.94,71.49Z"/><path class="cls-2" d="M239.72,62.53a1,1,0,0,1,1-1c.88,0,1.29.92,1.29,2.3a8.9,8.9,0,0,1-.06.9c-.52,4.47-3,9.15-7.19,9.15a2.38,2.38,0,0,1-2.61-2.58c0-.08,0-.17,0-.24.19-2.55,2.3-5.81,5.28-8.65-1,.37-2.18,1.44-3,1.44-.57,0-.93-.58-1.43-.58s-.74.34-1.11,1.41l-.26.84h-.43l.5-1.66c.5-1.82,1.34-2.32,2.14-2.32s1.18.89,2.07.89a2.75,2.75,0,0,0,1.91-.71l.23-.43.48.23a16.74,16.74,0,0,0-4.1,9.14c0,.19,0,.37,0,.53,0,1.37.4,1.92,1,1.92,3.6,0,5.82-5.39,6-8.19A2.63,2.63,0,0,1,239.72,62.53Z"/><path class="cls-2" d="M245.39,68.58a9.83,9.83,0,0,0-.26,2.2c0,1.54.61,2.19,1.57,2.19s2.34-.58,3.51-2.28l.37.18c-.89,1.52-2.64,3.05-4.58,3.05s-3-1.1-3-3.21c0-3.3,3.18-9.12,7.5-9.12a1.5,1.5,0,0,1,1.69,1.5C252.19,65.87,248,67.69,245.39,68.58Zm.1-.43a11.24,11.24,0,0,0,3.1-1.47,4.53,4.53,0,0,0,1.78-3.63c0-.87-.13-1-.37-1C248.51,62,246.34,64.88,245.49,68.15Z"/><path class="cls-2" d="M263.66,69.92l-.53,1.67c-.57,1.84-1.72,2.34-2.63,2.34a1.28,1.28,0,0,1-1.43-1.42,7.78,7.78,0,0,1,.29-1.77l.3-1.14c-1.48,3.12-2.91,4.33-4.52,4.33-1.43,0-2.37-1-2.37-3,0-3.63,3.13-9.32,7.34-9.32a1.48,1.48,0,0,1,1.39,1.09l1.13-4.25a2.26,2.26,0,0,0,.1-.61c0-.6-.41-.89-1.56-.89l.14-.48a8.64,8.64,0,0,0,4-.93l-4.45,16.15a2.93,2.93,0,0,0-.13.78c0,.37.13.63.54.63.59,0,1.07-.59,1.65-2.32l.28-.84Zm-3.17-3.49.84-3.16c-.2-.82-.69-1.16-1.21-1.16-2.91,0-5.34,5.46-5.34,9.1,0,1.34.34,2,1,2C257.12,73.19,259.33,70.08,260.5,66.43Z"/><path class="cls-2" d="M273.23,68.58a9.83,9.83,0,0,0-.26,2.2c0,1.54.61,2.19,1.57,2.19s2.34-.58,3.51-2.28l.37.18c-.89,1.52-2.64,3.05-4.58,3.05s-3-1.1-3-3.21c0-3.3,3.18-9.12,7.5-9.12a1.5,1.5,0,0,1,1.69,1.5C280,65.87,275.85,67.69,273.23,68.58Zm.1-.43a11.24,11.24,0,0,0,3.1-1.47,4.53,4.53,0,0,0,1.78-3.63c0-.87-.13-1-.37-1C276.35,62,274.17,64.88,273.33,68.15Z"/><path class="cls-2" d="M289.44,62.53a1,1,0,0,1,1-1c.88,0,1.29.92,1.29,2.3a8.77,8.77,0,0,1-.06.9c-.52,4.47-3,9.15-7.19,9.15a2.38,2.38,0,0,1-2.61-2.58c0-.08,0-.17,0-.24.19-2.55,2.3-5.81,5.28-8.65-1,.37-2.18,1.44-3,1.44-.57,0-.93-.58-1.43-.58s-.74.34-1.11,1.41l-.26.84h-.43l.5-1.66c.5-1.82,1.34-2.32,2.14-2.32s1.18.89,2.07.89a2.75,2.75,0,0,0,1.91-.71l.23-.43.48.23a16.73,16.73,0,0,0-4.1,9.14c0,.19,0,.37,0,.53,0,1.37.4,1.92,1,1.92,3.6,0,5.82-5.39,6-8.19A2.63,2.63,0,0,1,289.44,62.53Z"/><path class="cls-2" d="M295.11,68.58a9.83,9.83,0,0,0-.26,2.2c0,1.54.61,2.19,1.57,2.19s2.34-.58,3.51-2.28l.37.18c-.89,1.52-2.64,3.05-4.58,3.05s-3-1.1-3-3.21c0-3.3,3.18-9.12,7.5-9.12a1.5,1.5,0,0,1,1.69,1.5C301.91,65.87,297.74,67.69,295.11,68.58Zm.1-.43a11.24,11.24,0,0,0,3.1-1.47,4.53,4.53,0,0,0,1.78-3.63c0-.87-.13-1-.37-1C298.24,62,296.06,64.88,295.22,68.15Z"/><path class="cls-2" d="M312.54,62.88a1.65,1.65,0,0,1-1.6,1.64.81.81,0,0,1-.9-.82,1.53,1.53,0,0,1,1-1.46.33.33,0,0,0-.26-.09c-1.66,0-3.69,3.93-5.37,9.54L305,73.6h-2l2.72-9.76a3.32,3.32,0,0,0,.17-.89c0-.37-.17-.52-.48-.52-.67,0-1.19.64-1.78,2.32l-.3.84h-.43l.58-1.66c.66-1.91,1.81-2.34,2.74-2.34a1.16,1.16,0,0,1,1.31,1.32,8.66,8.66,0,0,1-.32,1.86l-.73,2.89c1.64-4.44,3-6.07,4.73-6.07A1.24,1.24,0,0,1,312.54,62.88Z"/><path class="cls-2" d="M322.31,63.44c0,3.07-2.32,7.39-4.48,10.1a13.57,13.57,0,0,1-4.49,3.78,4.87,4.87,0,0,1-2,.57c-.61,0-1.14-.32-1.14-.93a1.11,1.11,0,0,1,1.23-1,3.15,3.15,0,0,1,1.89.89,12.46,12.46,0,0,0,3.41-2.72l-1.68-10.2c-.17-.93-.34-1.25-.73-1.25s-.72.37-1.34,2.09l-.29.84h-.43l.57-1.66c.63-1.84,1.63-2.32,2.62-2.32s1.41.48,1.63,2.09l1.17,8.55a19.87,19.87,0,0,0,3.43-7.39c-.71-.38-1.73-1.1-1.73-2.1a1.08,1.08,0,0,1,1.16-1.16C321.94,61.6,322.31,62.23,322.31,63.44Z"/><path class="cls-2" d="M325.58,71.67a1.84,1.84,0,0,0-.08.51.87.87,0,0,0,1,.9c.66,0,1.34-.39,2-2.28l.32-.89h.43l-.48,1.43c-.67,2-1.73,2.58-3.12,2.58s-2-.73-2-1.89a4.94,4.94,0,0,1,.21-1.3l2.41-8.38h-2l.11-.46h2.07l1-3.45a6.92,6.92,0,0,0,2-.32l-1.08,3.78h3l-.07.46h-3.07Z"/><path class="cls-2" d="M341,71.58c-.66,1.91-1.82,2.34-2.75,2.34-1.17,0-1.6-.53-1.6-1.4a5.82,5.82,0,0,1,.38-1.79l2.16-6.51a3.67,3.67,0,0,0,.24-1.13.68.68,0,0,0-.74-.78c-1.68,0-3.87,3.39-5.55,8.43l-.83,2.85h-2l4.5-15.17a2.37,2.37,0,0,0,.11-.62c0-.6-.43-.88-1.57-.88l.13-.48a8.87,8.87,0,0,0,4.1-.93l-3.3,11.27c1.7-3.79,3.24-5.2,5.14-5.2,1.38,0,1.83.74,1.83,1.72a5.75,5.75,0,0,1-.33,1.71l-2.21,6.64a3.25,3.25,0,0,0-.17.87c0,.33.13.54.53.54.57,0,1.11-.5,1.75-2.32l.29-.84h.43Z"/><path class="cls-2" d="M346.26,63.84a2.74,2.74,0,0,0,.17-.83c0-.38-.17-.58-.49-.58-.71,0-1.21.75-1.8,2.32l-.32.84h-.42l.59-1.66c.68-1.91,1.89-2.34,2.82-2.34,1.14,0,1.51.62,1.51,1.42a5.72,5.72,0,0,1-.38,1.75l-2.43,6.9a2.5,2.5,0,0,0-.18.83c0,.37.18.58.54.58.61,0,1.11-.57,1.78-2.32l.31-.84h.43l-.59,1.67c-.63,1.77-1.75,2.34-2.8,2.34s-1.59-.58-1.59-1.39a5.58,5.58,0,0,1,.4-1.8Zm2.37-7.52a1.13,1.13,0,0,1,1.16,1.19,1.79,1.79,0,0,1-1.71,1.72,1.12,1.12,0,0,1-1.14-1.17A1.8,1.8,0,0,1,348.62,56.32Z"/><path class="cls-2" d="M361,71.58c-.66,1.91-1.82,2.34-2.75,2.34a1.55,1.55,0,0,1-1.43-.67,1.43,1.43,0,0,1-.18-.75,5.86,5.86,0,0,1,.39-1.78l2.16-6.51a3.73,3.73,0,0,0,.23-1.12c0-.43-.17-.79-.73-.79-1.79,0-4.4,4.19-6,9.7l-.4,1.59h-2L353,63.84a3.17,3.17,0,0,0,.17-.86c0-.31-.11-.56-.5-.56-.67,0-1.12.56-1.75,2.32l-.3.84h-.43l.58-1.66c.66-1.91,1.72-2.34,2.7-2.34a1.18,1.18,0,0,1,1.34,1.34,8,8,0,0,1-.31,1.83l-.79,3.11c2-4.67,3.63-6.29,5.7-6.29,1.38,0,1.83.73,1.83,1.71a5.88,5.88,0,0,1-.33,1.72l-2.21,6.64a2.85,2.85,0,0,0-.18.86.49.49,0,0,0,.54.56c.57,0,1.12-.5,1.75-2.32l.3-.84h.42Z"/><path class="cls-2" d="M374.18,60.3a1.36,1.36,0,0,1-1.27,1.32.61.61,0,0,1-.64-.67,1.33,1.33,0,0,1,.3-.81.18.18,0,0,0-.13,0,1.33,1.33,0,0,0-.56.22,4.62,4.62,0,0,0-1.24,1.49,2.24,2.24,0,0,1,1.7,2.33,4.93,4.93,0,0,1-4.51,4.59c-1.34.75-2.7,1.34-2.7,1.94,0,.31.48.54,1.37.77l1.66.43c1.56.41,2.58.84,2.58,2,0,1.64-2.17,4.21-6.75,4.21-2.37,0-3.44-.7-3.44-1.66s.84-2.11,3.88-3.3a1.28,1.28,0,0,1-.87-1.19c0-.9.52-1.69,3.5-3.13-1.84,0-3.09-.82-3.09-2.48a4.86,4.86,0,0,1,5.13-4.69,5.38,5.38,0,0,1,1.17.11A6,6,0,0,1,371.72,60a2.68,2.68,0,0,1,1.48-.5C373.79,59.5,374.18,59.73,374.18,60.3Zm-9.42,12.9c-2.06,1.1-2.32,2.14-2.32,2.8,0,1.11.93,1.67,2.17,1.67,2.07,0,4.58-1.28,4.58-3,0-.41-.46-.48-1.37-.72Zm5.55-9.71c0-.82-.3-1.48-1.34-1.48-2.57,0-3,4.13-3,4.87,0,1.09.52,1.48,1.37,1.48C369.83,68.35,370.31,65.23,370.31,63.48Z"/><path class="cls-2" d="M389.47,69.89l-.57,1.67c-.67,1.82-1.73,2.37-2.62,2.37a1.44,1.44,0,0,1-1.26-.6,1.58,1.58,0,0,1-.19-.8,7.55,7.55,0,0,1,.36-1.81l.41-1.66c-1.5,3.51-3,4.87-4.58,4.87s-2.14-1.14-2.14-2.75c0-3.64,3.28-9.58,6.72-9.58.8,0,1.37.61,1.46,1.7l.36-1.39a7.74,7.74,0,0,0,2.1-.31l-2.84,10.05a3.34,3.34,0,0,0-.17.84c0,.31.12.57.51.57.59,0,1.18-.57,1.74-2.32l.28-.84Zm-3.13-3.73.42-1.66c0-.18,0-.34,0-.5,0-1.2-.44-2-1.26-2-2,0-4.63,5.39-4.63,9.41,0,1.3.29,1.75.79,1.75C383,73.19,385.2,69.95,386.33,66.16Z"/><path class="cls-2" d="M401.17,64.79c0,3.44-2.41,9.13-6.67,9.13a1.94,1.94,0,0,1-1.91-1.52L390.66,74l-.34-.17a4.8,4.8,0,0,0,.43-1.31l4-14.06a2.7,2.7,0,0,0,.09-.61c0-.6-.38-.89-1.52-.89l.11-.48a8.44,8.44,0,0,0,4-.93l-2.94,10.74c1.44-3.31,2.8-4.67,4.33-4.67S401.17,62.64,401.17,64.79Zm-2-.5c0-1.33-.41-2-1.07-2-1.25,0-3.15,3.12-4.5,7l-.79,2.86c.39.94.92,1.27,1.62,1.27C397.06,73.4,399.21,67.72,399.21,64.29Z"/><path class="cls-2" d="M409.08,61.6c1.89,0,3.11,1.16,3.11,3.57,0,3.34-2.31,8.76-6.56,8.76-1.89,0-3.12-1.17-3.12-3.58C402.51,67,404.83,61.6,409.08,61.6Zm-4.62,9.9c0,1.36.43,2,1.3,2,2.46,0,4.48-5.38,4.48-9.44,0-1.39-.43-2-1.29-2C406.51,62.05,404.46,67.44,404.46,71.49Z"/><path class="cls-2" d="M424.91,69.92l-.57,1.67c-.67,1.91-1.82,2.34-2.75,2.34a1.28,1.28,0,0,1-1.17-.62,1.6,1.6,0,0,1-.13-.7,8.23,8.23,0,0,1,.32-1.87l.72-2.85c-1.82,4.43-3.4,6-5.32,6-1.37,0-1.92-.69-1.92-1.75a5.44,5.44,0,0,1,.33-1.69l2.2-6.64a3,3,0,0,0,.18-.86c0-.37-.17-.56-.53-.56-.58,0-1.12.5-1.75,2.32l-.3.84h-.43l.58-1.66c.66-1.91,1.81-2.34,2.74-2.34,1.21,0,1.6.59,1.6,1.41a6.2,6.2,0,0,1-.37,1.77l-2.17,6.51a3.71,3.71,0,0,0-.22,1.13c0,.53.24.78.72.78,1.76,0,4.23-4.09,5.82-9.93l.34-1.36a7.2,7.2,0,0,0,2.08-.31l-2.82,10.08a3.5,3.5,0,0,0-.17.89c0,.32.13.52.49.52.66,0,1.18-.63,1.77-2.32l.3-.84Z"/><path class="cls-2" d="M428.77,71.67a1.84,1.84,0,0,0-.08.51c0,.63.43.9,1,.9s1.34-.39,2-2.28l.32-.89h.43L432,71.35c-.67,2-1.73,2.58-3.12,2.58s-2-.73-2-1.89a4.94,4.94,0,0,1,.21-1.3l2.41-8.38h-2l.11-.46h2.07l1-3.45a6.93,6.93,0,0,0,2-.32l-1.08,3.78h3l-.07.46h-3.07Z"/><path class="cls-2" d="M442.16,71.67a1.84,1.84,0,0,0-.08.51.87.87,0,0,0,1,.9c.66,0,1.34-.39,2-2.28l.32-.89h.43l-.48,1.43c-.67,2-1.73,2.58-3.12,2.58s-2-.73-2-1.89a4.94,4.94,0,0,1,.21-1.3l2.41-8.38h-2l.11-.46H443l1-3.45a6.92,6.92,0,0,0,2-.32l-1.08,3.78h3l-.07.46H444.8Z"/><path class="cls-2" d="M457.53,71.58c-.66,1.91-1.82,2.34-2.75,2.34-1.17,0-1.6-.53-1.6-1.4a5.8,5.8,0,0,1,.38-1.79l2.15-6.51a3.69,3.69,0,0,0,.24-1.13.68.68,0,0,0-.74-.78c-1.68,0-3.87,3.39-5.55,8.43l-.83,2.85h-2l4.5-15.17a2.37,2.37,0,0,0,.11-.62c0-.6-.43-.88-1.57-.88l.13-.48a8.87,8.87,0,0,0,4.1-.93l-3.3,11.27c1.7-3.79,3.24-5.2,5.14-5.2,1.38,0,1.83.74,1.83,1.72a5.77,5.77,0,0,1-.33,1.71l-2.21,6.64a3.27,3.27,0,0,0-.17.87c0,.33.13.54.53.54.57,0,1.11-.5,1.76-2.32l.29-.84h.43Z"/><path class="cls-2" d="M462.84,63.84A2.74,2.74,0,0,0,463,63c0-.38-.17-.58-.49-.58-.71,0-1.21.75-1.8,2.32l-.32.84H460l.59-1.66c.68-1.91,1.89-2.34,2.82-2.34,1.14,0,1.51.62,1.51,1.42a5.72,5.72,0,0,1-.38,1.75l-2.43,6.9a2.5,2.5,0,0,0-.18.83c0,.37.18.58.54.58.61,0,1.11-.57,1.78-2.32l.31-.84H465l-.59,1.67c-.63,1.77-1.75,2.34-2.8,2.34S460,73.35,460,72.54a5.58,5.58,0,0,1,.4-1.8Zm2.37-7.52a1.13,1.13,0,0,1,1.16,1.19,1.79,1.79,0,0,1-1.71,1.72,1.12,1.12,0,0,1-1.14-1.17A1.8,1.8,0,0,1,465.2,56.32Z"/><path class="cls-2" d="M468.49,73.47a2.15,2.15,0,0,0,2.3-2.34,4.87,4.87,0,0,0-1.19-3,5.49,5.49,0,0,1-1.48-3.3,3.3,3.3,0,0,1,3.53-3.22c1.29,0,2.78.36,2.78,2a1.12,1.12,0,0,1-1.06,1.18.9.9,0,0,1-.91-1,2.44,2.44,0,0,1,.64-1.52A2.23,2.23,0,0,0,472,62a2,2,0,0,0-2,2.15c0,1,.48,1.52,1.37,2.84a6.26,6.26,0,0,1,1.34,3.34,3.69,3.69,0,0,1-3.91,3.58c-1.58,0-3.08-.62-3.08-2.25a.92.92,0,0,1,.89-1c.73,0,1,.7,1,1.43a5.54,5.54,0,0,1-.16,1.18A2,2,0,0,0,468.49,73.47Z"/><path class="cls-2" d="M492.19,64.79c0,3.44-2.41,9.13-6.67,9.13a1.94,1.94,0,0,1-1.85-1.31l-.86,3a2,2,0,0,0-.09.54c0,.84.78,1.1,1.93,1.1l-.14.48c-.61,0-1.81-.1-3-.1-1,0-2,.08-2.52.1l.13-.48c1.09,0,1.48-.34,1.78-1.41l4.25-15.16a15.55,15.55,0,0,1-3.84,5.1l-.26-.29a17.46,17.46,0,0,0,4.64-6.72l.09-.33a7.14,7.14,0,0,0,2.07-.32l-2.38,8.32c1.46-3.43,2.82-4.83,4.39-4.83S492.19,62.64,492.19,64.79Zm-2-.5c0-1.33-.4-2-1.07-2-1.32,0-3.39,3.5-4.73,7.64L483.83,72c.4,1,.93,1.37,1.67,1.37C488.06,73.4,490.22,67.72,490.22,64.29Z"/><path class="cls-2" d="M495.36,71.67a3.14,3.14,0,0,0-.14.8c0,.39.17.61.53.61.59,0,1.09-.59,1.7-2.32l.3-.84h.43l-.57,1.67c-.6,1.72-1.58,2.34-2.73,2.34s-1.57-.64-1.57-1.48a6.4,6.4,0,0,1,.31-1.71l3.71-12.31a2.52,2.52,0,0,0,.11-.63c0-.59-.41-.87-1.54-.87l.16-.48a8.85,8.85,0,0,0,4.05-.93Z"/><path class="cls-2" d="M510.12,69.89l-.57,1.67c-.67,1.82-1.73,2.37-2.62,2.37a1.44,1.44,0,0,1-1.26-.6,1.58,1.58,0,0,1-.19-.8,7.53,7.53,0,0,1,.36-1.81l.41-1.66c-1.5,3.51-3,4.87-4.58,4.87s-2.14-1.14-2.14-2.75c0-3.64,3.28-9.58,6.72-9.58.8,0,1.37.61,1.46,1.7l.36-1.39a7.74,7.74,0,0,0,2.1-.31l-2.84,10.05a3.36,3.36,0,0,0-.17.84c0,.31.12.57.51.57.59,0,1.18-.57,1.74-2.32l.28-.84ZM507,66.16l.42-1.66c0-.18,0-.34,0-.5,0-1.2-.44-2-1.26-2-2,0-4.63,5.39-4.63,9.41,0,1.3.29,1.75.79,1.75C503.61,73.19,505.85,69.95,507,66.16Z"/><path class="cls-2" d="M513.75,70.78c0,1.54.64,2.19,1.6,2.19s2.24-.58,3.41-2.28l.46.18c-.89,1.52-2.64,3.05-4.58,3.05s-3-1.12-3-3.34c0-3.51,2.61-9,6.86-9,1.34,0,2.47.72,2.47,1.93a1.75,1.75,0,0,1-1.62,1.82.85.85,0,0,1-.93-.89,1.91,1.91,0,0,1,1.71-1.71,1.72,1.72,0,0,0-1.54-.7C516.26,62.05,513.75,66.16,513.75,70.78Z"/><path class="cls-2" d="M523.72,68.58a9.83,9.83,0,0,0-.26,2.2c0,1.54.61,2.19,1.57,2.19s2.34-.58,3.51-2.28l.37.18c-.89,1.52-2.64,3.05-4.58,3.05s-3-1.1-3-3.21c0-3.3,3.18-9.12,7.5-9.12a1.5,1.5,0,0,1,1.69,1.5C530.51,65.87,526.34,67.69,523.72,68.58Zm.1-.43a11.24,11.24,0,0,0,3.1-1.47,4.53,4.53,0,0,0,1.78-3.63c0-.87-.13-1-.37-1C526.84,62,524.66,64.88,523.82,68.15Z"/><path class="cls-2" d="M532.48,71a1.13,1.13,0,0,1,1.16,1.19,1.79,1.79,0,0,1-1.71,1.72,1.12,1.12,0,0,1-1.14-1.17A1.8,1.8,0,0,1,532.48,71Z"/><path class="cls-2" d="M165.9,98.87c-.67,1.91-1.82,2.34-2.75,2.34-1.17,0-1.59-.54-1.59-1.42a5.85,5.85,0,0,1,.36-1.77l2.17-6.51a3.76,3.76,0,0,0,.23-1.13c0-.43-.17-.78-.73-.78-1.78,0-4.12,3.78-5.84,9.29l-.56,2h-2l4.31-15.35a7.93,7.93,0,0,1-3.08.48,22.24,22.24,0,0,1-3.49-.32L149.6,98.25a4.48,4.48,0,0,0-.2,1.16c0,.79.52,1,1.91,1l-.09.46c-.8,0-2.1-.07-3.4-.07s-2.59,0-3.32.07l.1-.46c1.91-.07,2.39-.54,2.89-2.19l3.42-12.87a20.37,20.37,0,0,0-2.92-.27,5.71,5.71,0,0,0-2.56.39,2.41,2.41,0,0,1,.41,1.31,1.19,1.19,0,0,1-1.13,1.32c-.67,0-1-.46-1-1.13a1.9,1.9,0,0,1,1.2-1.78,7.76,7.76,0,0,1,3.06-.52c3.15,0,5.52.87,8.62.87a6.67,6.67,0,0,0,3.07-.54l.53-1.89a7.67,7.67,0,0,0,2.07-.32l-3.34,11.9c1.81-4.25,3.41-5.82,5.41-5.82,1.35,0,1.83.7,1.83,1.7a5.94,5.94,0,0,1-.33,1.73L163.62,99a2.65,2.65,0,0,0-.19.86.49.49,0,0,0,.56.56c.57,0,1.11-.5,1.74-2.32l.3-.84h.43Z"/><path class="cls-2" d="M170.25,95.87a9.83,9.83,0,0,0-.26,2.2c0,1.54.61,2.19,1.57,2.19s2.34-.58,3.51-2.28l.37.18c-.89,1.52-2.64,3.05-4.58,3.05s-3-1.1-3-3.21c0-3.3,3.18-9.12,7.5-9.12a1.5,1.5,0,0,1,1.69,1.5C177.05,93.16,172.88,95,170.25,95.87Zm.1-.43a11.24,11.24,0,0,0,3.1-1.47,4.53,4.53,0,0,0,1.78-3.63c0-.87-.13-1-.37-1C173.38,89.32,171.2,92.17,170.35,95.44Z"/><path class="cls-2" d="M193.43,90.17a1.65,1.65,0,0,1-1.6,1.64.81.81,0,0,1-.9-.82,1.53,1.53,0,0,1,1-1.46.33.33,0,0,0-.26-.09c-1.65,0-3.69,3.93-5.37,9.54l-.48,1.9h-2l2.72-9.76a3.33,3.33,0,0,0,.17-.89c0-.37-.17-.52-.48-.52-.67,0-1.19.64-1.78,2.32l-.3.84h-.43l.58-1.66c.66-1.91,1.81-2.34,2.74-2.34a1.16,1.16,0,0,1,1.31,1.32,8.69,8.69,0,0,1-.32,1.86l-.73,2.89c1.64-4.44,3-6.07,4.73-6.07A1.24,1.24,0,0,1,193.43,90.17Z"/><path class="cls-2" d="M199.38,88.88c1.89,0,3.11,1.16,3.11,3.57,0,3.34-2.31,8.76-6.56,8.76-1.89,0-3.12-1.17-3.12-3.58C192.8,94.29,195.13,88.88,199.38,88.88Zm-4.62,9.9c0,1.36.43,2,1.3,2,2.46,0,4.48-5.38,4.48-9.44,0-1.39-.43-2-1.29-2C196.8,89.34,194.76,94.73,194.76,98.78Z"/><path class="cls-2" d="M210.47,88.88c1.89,0,3.11,1.16,3.11,3.57,0,3.34-2.31,8.76-6.56,8.76-1.89,0-3.12-1.17-3.12-3.58C203.9,94.29,206.22,88.88,210.47,88.88Zm-4.62,9.9c0,1.36.43,2,1.3,2,2.46,0,4.48-5.38,4.48-9.44,0-1.39-.43-2-1.29-2C207.9,89.34,205.85,94.73,205.85,98.78Z"/><path class="cls-2" d="M231.21,98.87c-.66,1.91-1.82,2.34-2.75,2.34a1.53,1.53,0,0,1-1.41-.62,1.44,1.44,0,0,1-.19-.78,6.23,6.23,0,0,1,.38-1.79l2.15-6.51a4.3,4.3,0,0,0,.23-1.2c0-.42-.14-.71-.5-.71-1.8,0-4.12,4.55-6.08,10.83l0-.11-.16.57h-2.06l2.84-9.38a4,4,0,0,0,.23-1.17c0-.43-.17-.74-.63-.74-1.7,0-4.12,4.33-5.67,9.82l-.37,1.47h-2L218,91.13a3.15,3.15,0,0,0,.17-.83c0-.31-.11-.58-.48-.58-.67,0-1.19.64-1.78,2.32l-.3.84h-.43l.58-1.66c.66-1.91,1.81-2.34,2.74-2.34s1.32.6,1.32,1.37a6.85,6.85,0,0,1-.33,1.81l-.72,2.87c1.83-4.48,3.32-6,5.27-6,1.16,0,1.49.71,1.49,1.6a7.45,7.45,0,0,1-.3,1.83l-.81,3c1.89-4.65,3.32-6.44,5.44-6.44,1.2,0,1.6.75,1.6,1.7a5.67,5.67,0,0,1-.32,1.73L228.93,99a3.05,3.05,0,0,0-.17.87c0,.37.16.54.53.54.57,0,1.12-.5,1.76-2.32l.3-.84h.42Z"/><path class="cls-2" d="M252.94,93.46c0,3.42-1.63,7.75-5.61,7.75a2.39,2.39,0,0,1-2.4-1.4,4.7,4.7,0,0,1-3.14,1.4c-2.1,0-2.82-1.25-2.82-2.6,0-2.83,3.52-6.22,6.54-8.5a6,6,0,0,1-2.22,1.07c-.57,0-.91-.58-1.43-.58s-.78.34-1.12,1.41l-.27.84H240l.52-1.66c.59-1.8,1.32-2.32,2.11-2.32s1.21.89,2.1.89a2.6,2.6,0,0,0,1.82-.71l.31-.43.48.23c-3.13,2.63-6.19,6-6.19,9.62,0,1.52.48,2,1.26,2a3.67,3.67,0,0,0,2.35-1.09,4.77,4.77,0,0,1-.17-1.34c0-2.69,2.07-5.37,3.32-5.37.66,0,.79.91.79,1.59A6.17,6.17,0,0,1,246.13,99a1.91,1.91,0,0,0,1.82,1.5c3.1,0,4.49-4.21,4.49-7.05a6,6,0,0,0-.17-1.5c-.87-.16-2.17-.77-2.17-2a1,1,0,0,1,1-1.09c.89,0,1.41,1.16,1.69,2.68A9.1,9.1,0,0,1,252.94,93.46Zm-7.09,3.72a6.2,6.2,0,0,0,.16,1.46,6,6,0,0,0,2.21-4.34c0-.61-.09-1.07-.43-1.07C247,93.23,245.85,95.2,245.85,97.18Z"/><path class="cls-2" d="M265,97.18l-.57,1.67c-.67,1.82-1.73,2.37-2.62,2.37a1.44,1.44,0,0,1-1.26-.6,1.58,1.58,0,0,1-.19-.8,7.53,7.53,0,0,1,.36-1.81l.41-1.66c-1.5,3.51-3,4.87-4.58,4.87s-2.14-1.14-2.14-2.75c0-3.64,3.28-9.58,6.72-9.58.8,0,1.37.61,1.46,1.7l.36-1.39a7.74,7.74,0,0,0,2.1-.31l-2.84,10.05a3.36,3.36,0,0,0-.17.84c0,.31.12.57.51.57.59,0,1.18-.57,1.74-2.32l.28-.84Zm-3.13-3.73.42-1.66c0-.18,0-.34,0-.5,0-1.2-.44-2-1.26-2-2,0-4.63,5.39-4.63,9.41,0,1.3.29,1.75.79,1.75C258.52,100.48,260.76,97.24,261.89,93.45Z"/><path class="cls-2" d="M268.52,100.76a2.15,2.15,0,0,0,2.3-2.34,4.87,4.87,0,0,0-1.19-3,5.49,5.49,0,0,1-1.48-3.3,3.3,3.3,0,0,1,3.53-3.22c1.29,0,2.78.36,2.78,2A1.12,1.12,0,0,1,273.41,92a.9.9,0,0,1-.91-1,2.44,2.44,0,0,1,.64-1.52,2.23,2.23,0,0,0-1.14-.27,2,2,0,0,0-2,2.15c0,1,.48,1.52,1.37,2.84a6.26,6.26,0,0,1,1.34,3.34,3.69,3.69,0,0,1-3.91,3.58c-1.58,0-3.08-.62-3.08-2.25a.92.92,0,0,1,.89-1c.73,0,1,.7,1,1.43a5.54,5.54,0,0,1-.16,1.18A2,2,0,0,0,268.52,100.76Z"/><path class="cls-2" d="M282.93,100.76a2.15,2.15,0,0,0,2.3-2.34,4.87,4.87,0,0,0-1.19-3,5.49,5.49,0,0,1-1.48-3.3,3.3,3.3,0,0,1,3.53-3.22c1.29,0,2.78.36,2.78,2A1.12,1.12,0,0,1,287.82,92a.9.9,0,0,1-.91-1,2.44,2.44,0,0,1,.64-1.52,2.23,2.23,0,0,0-1.14-.27,2,2,0,0,0-2,2.15c0,1,.48,1.52,1.37,2.84a6.26,6.26,0,0,1,1.34,3.34,3.69,3.69,0,0,1-3.91,3.58c-1.58,0-3.08-.62-3.08-2.25a.92.92,0,0,1,.89-1c.73,0,1,.7,1,1.43a5.54,5.54,0,0,1-.16,1.18A2,2,0,0,0,282.93,100.76Z"/><path class="cls-2" d="M296.26,88.88c1.89,0,3.11,1.16,3.11,3.57,0,3.34-2.31,8.76-6.56,8.76-1.89,0-3.12-1.17-3.12-3.58C289.68,94.29,292,88.88,296.26,88.88Zm-4.62,9.9c0,1.36.43,2,1.3,2,2.46,0,4.48-5.38,4.48-9.44,0-1.39-.43-2-1.29-2C293.68,89.34,291.64,94.73,291.64,98.78Z"/><path class="cls-2" d="M308.72,95.87a9.83,9.83,0,0,0-.26,2.2c0,1.54.61,2.19,1.57,2.19s2.34-.58,3.51-2.28l.37.18c-.89,1.52-2.64,3.05-4.58,3.05s-3-1.1-3-3.21c0-3.3,3.18-9.12,7.5-9.12a1.5,1.5,0,0,1,1.69,1.5C315.51,93.16,311.34,95,308.72,95.87Zm.1-.43a11.24,11.24,0,0,0,3.1-1.47,4.53,4.53,0,0,0,1.78-3.63c0-.87-.13-1-.37-1C311.84,89.32,309.66,92.17,308.82,95.44Z"/><path class="cls-2" d="M318.13,99a3.14,3.14,0,0,0-.14.8c0,.39.17.61.53.61.59,0,1.09-.59,1.7-2.32l.3-.84H321l-.57,1.67c-.6,1.72-1.58,2.34-2.73,2.34s-1.57-.64-1.57-1.48A6.42,6.42,0,0,1,316.4,98l3.71-12.31a2.52,2.52,0,0,0,.11-.63c0-.59-.41-.87-1.54-.87l.16-.48a8.85,8.85,0,0,0,4.05-.93Z"/><path class="cls-2" d="M324.77,95.87a9.83,9.83,0,0,0-.26,2.2c0,1.54.61,2.19,1.57,2.19s2.34-.58,3.51-2.28l.37.18c-.89,1.52-2.64,3.05-4.58,3.05s-3-1.1-3-3.21c0-3.3,3.18-9.12,7.5-9.12a1.5,1.5,0,0,1,1.69,1.5C331.57,93.16,327.39,95,324.77,95.87Zm.1-.43A11.24,11.24,0,0,0,328,94a4.53,4.53,0,0,0,1.78-3.63c0-.87-.13-1-.37-1C327.89,89.32,325.72,92.17,324.87,95.44Z"/><path class="cls-2" d="M343.33,87.58a1.36,1.36,0,0,1-1.27,1.32.61.61,0,0,1-.64-.67,1.33,1.33,0,0,1,.3-.81.18.18,0,0,0-.13,0,1.33,1.33,0,0,0-.56.22,4.62,4.62,0,0,0-1.24,1.49,2.24,2.24,0,0,1,1.7,2.33A4.93,4.93,0,0,1,337,96c-1.34.75-2.7,1.34-2.7,1.94,0,.31.48.54,1.37.77l1.66.43c1.56.41,2.58.84,2.58,2,0,1.64-2.17,4.21-6.75,4.21-2.37,0-3.44-.7-3.44-1.66s.84-2.11,3.88-3.3a1.28,1.28,0,0,1-.87-1.19c0-.9.52-1.69,3.5-3.13-1.84,0-3.09-.82-3.09-2.48a4.86,4.86,0,0,1,5.13-4.69,5.38,5.38,0,0,1,1.17.11,6,6,0,0,1,1.48-1.71,2.68,2.68,0,0,1,1.48-.5C342.94,86.78,343.33,87,343.33,87.58Zm-9.42,12.9c-2.06,1.1-2.32,2.14-2.32,2.8,0,1.11.93,1.67,2.17,1.67,2.07,0,4.58-1.28,4.58-3,0-.41-.46-.48-1.37-.72Zm5.55-9.71c0-.82-.3-1.48-1.34-1.48-2.57,0-3,4.13-3,4.87,0,1.09.52,1.48,1.37,1.48C339,95.64,339.46,92.52,339.46,90.77Z"/><path class="cls-2" d="M352.87,97.18l-.57,1.67c-.67,1.82-1.73,2.37-2.62,2.37a1.44,1.44,0,0,1-1.26-.6,1.58,1.58,0,0,1-.19-.8,7.53,7.53,0,0,1,.36-1.81l.41-1.66c-1.5,3.51-3,4.87-4.58,4.87s-2.14-1.14-2.14-2.75c0-3.64,3.28-9.58,6.72-9.58.8,0,1.37.61,1.46,1.7l.36-1.39a7.74,7.74,0,0,0,2.1-.31l-2.84,10.05a3.36,3.36,0,0,0-.17.84c0,.31.12.57.51.57.59,0,1.18-.57,1.74-2.32l.28-.84Zm-3.13-3.73.42-1.66c0-.18,0-.34,0-.5,0-1.2-.44-2-1.26-2-2,0-4.63,5.39-4.63,9.41,0,1.3.29,1.75.79,1.75C346.36,100.48,348.6,97.24,349.74,93.45Z"/><path class="cls-2" d="M365.46,98.87c-.66,1.91-1.82,2.34-2.75,2.34a1.55,1.55,0,0,1-1.43-.67,1.43,1.43,0,0,1-.18-.75,5.86,5.86,0,0,1,.39-1.78l2.16-6.51a3.73,3.73,0,0,0,.23-1.12c0-.43-.17-.79-.73-.79-1.79,0-4.4,4.19-6,9.7l-.4,1.59h-2l2.72-9.76a3.17,3.17,0,0,0,.17-.86c0-.31-.11-.56-.5-.56-.67,0-1.12.56-1.75,2.32l-.3.84h-.43l.58-1.66c.66-1.91,1.72-2.34,2.7-2.34a1.18,1.18,0,0,1,1.34,1.34,8,8,0,0,1-.31,1.83l-.79,3.11c2-4.67,3.63-6.29,5.7-6.29,1.38,0,1.83.73,1.83,1.71a5.88,5.88,0,0,1-.33,1.72L363.18,99a2.85,2.85,0,0,0-.18.86.49.49,0,0,0,.54.56c.57,0,1.12-.5,1.75-2.32l.3-.84H366Z"/><path class="cls-2" d="M369.92,99a1.84,1.84,0,0,0-.08.51c0,.63.43.9,1,.9s1.34-.39,2-2.28l.32-.89h.43l-.48,1.43c-.67,2-1.73,2.58-3.12,2.58s-2-.73-2-1.89a4.94,4.94,0,0,1,.21-1.3l2.41-8.37h-2l.11-.46h2.07l1-3.45a6.93,6.93,0,0,0,2-.32l-1.08,3.78h3l-.07.46h-3.07Z"/><path class="cls-2" d="M374.39,103.94l-.11-.31a4.41,4.41,0,0,0,2.41-3,1.94,1.94,0,0,1-1.19.58.77.77,0,0,1-.85-.8,2.32,2.32,0,0,1,2.09-2.11c.71,0,1,.66,1,1.33C377.74,101.21,376.49,102.91,374.39,103.94Z"/><path class="cls-2" d="M396.77,98.87c-.66,1.91-1.82,2.34-2.75,2.34-1.17,0-1.6-.53-1.6-1.4a5.82,5.82,0,0,1,.38-1.79l2.16-6.51a3.67,3.67,0,0,0,.24-1.13.68.68,0,0,0-.74-.78c-1.68,0-3.87,3.39-5.55,8.43l-.83,2.85h-2l4.5-15.17a2.37,2.37,0,0,0,.11-.62c0-.6-.43-.88-1.57-.88l.13-.48a8.87,8.87,0,0,0,4.1-.93l-3.3,11.27c1.7-3.79,3.24-5.2,5.14-5.2,1.38,0,1.83.74,1.83,1.72a5.75,5.75,0,0,1-.33,1.71L394.49,99a3.25,3.25,0,0,0-.17.87c0,.33.13.54.53.54.57,0,1.11-.5,1.75-2.32l.29-.84h.43Z"/><path class="cls-2" d="M405.53,88.88c1.89,0,3.11,1.16,3.11,3.57,0,3.34-2.31,8.76-6.56,8.76-1.89,0-3.12-1.17-3.12-3.58C399,94.29,401.28,88.88,405.53,88.88Zm-4.62,9.9c0,1.36.43,2,1.3,2,2.46,0,4.48-5.38,4.48-9.44,0-1.39-.43-2-1.29-2C403,89.34,400.91,94.73,400.91,98.78Z"/><path class="cls-2" d="M426.27,98.87c-.66,1.91-1.82,2.34-2.75,2.34a1.53,1.53,0,0,1-1.41-.62,1.44,1.44,0,0,1-.19-.78,6.23,6.23,0,0,1,.38-1.79l2.15-6.51a4.3,4.3,0,0,0,.23-1.2c0-.42-.14-.71-.5-.71-1.8,0-4.12,4.55-6.08,10.83l0-.11-.16.57h-2.06l2.84-9.38a4,4,0,0,0,.23-1.17c0-.43-.17-.74-.63-.74-1.7,0-4.12,4.33-5.67,9.82l-.37,1.47h-2l2.72-9.76a3.15,3.15,0,0,0,.17-.83c0-.31-.11-.58-.48-.58-.67,0-1.19.64-1.78,2.32l-.3.84h-.43l.58-1.66c.66-1.91,1.81-2.34,2.74-2.34s1.32.6,1.32,1.37a6.85,6.85,0,0,1-.33,1.81l-.72,2.87c1.83-4.48,3.32-6,5.27-6,1.16,0,1.49.71,1.49,1.6a7.45,7.45,0,0,1-.3,1.83l-.81,3c1.89-4.65,3.32-6.44,5.44-6.44,1.2,0,1.6.75,1.6,1.7a5.68,5.68,0,0,1-.32,1.73L424,99a3.07,3.07,0,0,0-.17.87c0,.37.16.54.53.54.57,0,1.12-.5,1.76-2.32l.3-.84h.42Z"/><path class="cls-2" d="M430.63,95.87a9.83,9.83,0,0,0-.26,2.2c0,1.54.61,2.19,1.57,2.19s2.34-.58,3.51-2.28l.37.18c-.89,1.52-2.64,3.05-4.58,3.05s-3-1.1-3-3.21c0-3.3,3.18-9.12,7.5-9.12a1.5,1.5,0,0,1,1.69,1.5C437.43,93.16,433.26,95,430.63,95.87Zm.1-.43a11.24,11.24,0,0,0,3.1-1.47,4.53,4.53,0,0,0,1.78-3.63c0-.87-.13-1-.37-1C433.76,89.32,431.58,92.17,430.73,95.44Z"/><path class="cls-2" d="M448.15,90.73c0,3.07-2.32,7.39-4.48,10.1a13.57,13.57,0,0,1-4.49,3.78,4.86,4.86,0,0,1-2,.57c-.61,0-1.14-.32-1.14-.93a1.11,1.11,0,0,1,1.23-1,3.15,3.15,0,0,1,1.89.89,12.45,12.45,0,0,0,3.41-2.72l-1.68-10.2c-.17-.93-.34-1.25-.73-1.25s-.72.37-1.34,2.09l-.29.84h-.43l.57-1.66c.63-1.84,1.63-2.32,2.62-2.32s1.41.48,1.63,2.09l1.17,8.55a19.88,19.88,0,0,0,3.43-7.39c-.71-.38-1.73-1.1-1.73-2.1A1.08,1.08,0,0,1,447,88.88C447.78,88.88,448.15,89.52,448.15,90.73Z"/><path class="cls-2" d="M465.2,97.18l-.57,1.67c-.67,1.82-1.73,2.37-2.62,2.37a1.44,1.44,0,0,1-1.26-.6,1.58,1.58,0,0,1-.19-.8,7.55,7.55,0,0,1,.36-1.81l.41-1.66c-1.5,3.51-3,4.87-4.58,4.87s-2.14-1.14-2.14-2.75c0-3.64,3.28-9.58,6.72-9.58.8,0,1.37.61,1.46,1.7l.36-1.39a7.74,7.74,0,0,0,2.1-.31L462.4,98.94a3.34,3.34,0,0,0-.17.84c0,.31.12.57.51.57.59,0,1.18-.57,1.74-2.32l.28-.84Zm-3.13-3.73.42-1.66c0-.18,0-.34,0-.5,0-1.2-.44-2-1.26-2-2,0-4.63,5.39-4.63,9.41,0,1.3.29,1.75.79,1.75C458.69,100.48,460.94,97.24,462.07,93.45Z"/><path class="cls-2" d="M477.8,98.87c-.66,1.91-1.82,2.34-2.75,2.34a1.55,1.55,0,0,1-1.43-.67,1.42,1.42,0,0,1-.18-.75,5.86,5.86,0,0,1,.39-1.78L476,91.52a3.71,3.71,0,0,0,.23-1.12c0-.43-.17-.79-.73-.79-1.79,0-4.4,4.19-6,9.7l-.4,1.59h-2l2.72-9.76a3.17,3.17,0,0,0,.17-.86c0-.31-.11-.56-.5-.56-.67,0-1.12.56-1.75,2.32l-.3.84H467l.58-1.66c.66-1.91,1.72-2.34,2.7-2.34a1.18,1.18,0,0,1,1.34,1.34,8,8,0,0,1-.31,1.83l-.79,3.11c2-4.67,3.63-6.29,5.7-6.29,1.38,0,1.83.73,1.83,1.71a5.88,5.88,0,0,1-.33,1.72L475.52,99a2.85,2.85,0,0,0-.18.86.49.49,0,0,0,.54.56c.57,0,1.12-.5,1.76-2.32l.3-.84h.42Z"/><path class="cls-2" d="M490.68,97.2l-.53,1.67c-.57,1.84-1.72,2.34-2.63,2.34a1.28,1.28,0,0,1-1.43-1.42,7.78,7.78,0,0,1,.29-1.77l.3-1.14c-1.48,3.12-2.91,4.33-4.52,4.33-1.43,0-2.37-1-2.37-3,0-3.63,3.13-9.32,7.34-9.32A1.48,1.48,0,0,1,488.51,90l1.13-4.25a2.26,2.26,0,0,0,.1-.61c0-.6-.41-.89-1.55-.89l.14-.48a8.64,8.64,0,0,0,4-.93L487.9,99a2.93,2.93,0,0,0-.13.78c0,.37.13.63.54.63.59,0,1.07-.59,1.66-2.32l.28-.84Zm-3.17-3.49.84-3.16c-.2-.82-.69-1.16-1.21-1.16-2.91,0-5.34,5.46-5.34,9.1,0,1.34.34,2,1,2C484.13,100.48,486.34,97.37,487.51,93.72Z"/><path class="cls-2" d="M500,100.76a2.15,2.15,0,0,0,2.3-2.34,4.87,4.87,0,0,0-1.19-3,5.49,5.49,0,0,1-1.48-3.3,3.3,3.3,0,0,1,3.53-3.22c1.29,0,2.78.36,2.78,2A1.12,1.12,0,0,1,504.85,92a.9.9,0,0,1-.91-1,2.44,2.44,0,0,1,.64-1.52,2.23,2.23,0,0,0-1.14-.27,2,2,0,0,0-2,2.15c0,1,.48,1.52,1.37,2.84a6.26,6.26,0,0,1,1.34,3.34,3.69,3.69,0,0,1-3.91,3.58c-1.58,0-3.08-.62-3.08-2.25a.92.92,0,0,1,.89-1c.73,0,1,.7,1,1.43a5.54,5.54,0,0,1-.16,1.18A2,2,0,0,0,500,100.76Z"/><path class="cls-2" d="M517.91,92.08c0,3.44-2.41,9.13-6.67,9.13a1.94,1.94,0,0,1-1.85-1.31l-.86,3a2.06,2.06,0,0,0-.09.54c0,.84.78,1.1,1.93,1.1l-.14.48c-.61,0-1.81-.1-3-.1-1,0-2,.08-2.52.1l.13-.48c1.09,0,1.48-.34,1.78-1.41L510.84,88a15.55,15.55,0,0,1-3.84,5.1l-.26-.29a17.46,17.46,0,0,0,4.64-6.72l.09-.33a7.14,7.14,0,0,0,2.07-.32l-2.38,8.32c1.46-3.43,2.82-4.83,4.39-4.83S517.91,89.93,517.91,92.08Zm-2-.5c0-1.33-.4-2-1.07-2-1.32,0-3.39,3.5-4.73,7.64l-.59,2.08c.4,1,.93,1.37,1.67,1.37C513.79,100.69,515.95,95,515.95,91.58Z"/><path class="cls-2" d="M529.55,97.18,529,98.85c-.67,1.82-1.73,2.37-2.62,2.37a1.44,1.44,0,0,1-1.26-.6,1.58,1.58,0,0,1-.19-.8,7.55,7.55,0,0,1,.36-1.81l.41-1.66c-1.5,3.51-3,4.87-4.58,4.87S519,100.07,519,98.46c0-3.64,3.28-9.58,6.72-9.58.8,0,1.37.61,1.46,1.7l.36-1.39a7.74,7.74,0,0,0,2.1-.31l-2.84,10.05a3.34,3.34,0,0,0-.17.84c0,.31.12.57.51.57.59,0,1.18-.57,1.74-2.32l.28-.84Zm-3.13-3.73.42-1.66c0-.18,0-.34,0-.5,0-1.2-.44-2-1.26-2-2,0-4.63,5.39-4.63,9.41,0,1.3.29,1.75.79,1.75C523,100.48,525.28,97.24,526.42,93.45Z"/><path class="cls-2" d="M533.18,98.07c0,1.54.64,2.19,1.6,2.19s2.24-.58,3.41-2.28l.46.18c-.89,1.52-2.64,3.05-4.58,3.05s-3-1.12-3-3.34c0-3.51,2.61-9,6.86-9,1.34,0,2.47.72,2.47,1.93a1.75,1.75,0,0,1-1.62,1.82.85.85,0,0,1-.93-.89A1.91,1.91,0,0,1,539.55,90a1.73,1.73,0,0,0-1.54-.7C535.69,89.34,533.18,93.45,533.18,98.07Z"/><path class="cls-2" d="M544.08,91.13a2.74,2.74,0,0,0,.17-.83c0-.38-.17-.58-.49-.58-.71,0-1.21.75-1.8,2.32l-.32.84h-.42l.59-1.66c.68-1.91,1.89-2.34,2.82-2.34,1.14,0,1.51.62,1.51,1.42a5.72,5.72,0,0,1-.38,1.75L543.33,99a2.5,2.5,0,0,0-.18.83c0,.37.18.58.54.58.61,0,1.11-.57,1.78-2.32l.31-.84h.43l-.59,1.67c-.63,1.77-1.75,2.34-2.8,2.34s-1.59-.58-1.59-1.39a5.58,5.58,0,0,1,.4-1.8Zm2.37-7.52a1.13,1.13,0,0,1,1.16,1.19,1.79,1.79,0,0,1-1.71,1.72,1.12,1.12,0,0,1-1.14-1.17A1.8,1.8,0,0,1,546.45,83.61Z"/><path class="cls-2" d="M554.4,88.88c1.89,0,3.11,1.16,3.11,3.57,0,3.34-2.31,8.76-6.56,8.76-1.89,0-3.12-1.17-3.12-3.58C547.82,94.29,550.14,88.88,554.4,88.88Zm-4.62,9.9c0,1.36.43,2,1.3,2,2.46,0,4.48-5.38,4.48-9.44,0-1.39-.43-2-1.29-2C551.82,89.34,549.78,94.73,549.78,98.78Z"/><path class="cls-2" d="M570.22,97.2l-.57,1.67c-.67,1.91-1.82,2.34-2.75,2.34a1.28,1.28,0,0,1-1.17-.62,1.6,1.6,0,0,1-.13-.7,8.21,8.21,0,0,1,.32-1.87l.72-2.85c-1.82,4.43-3.4,6-5.32,6-1.37,0-1.92-.69-1.92-1.75a5.45,5.45,0,0,1,.33-1.69l2.2-6.64a3,3,0,0,0,.18-.86c0-.37-.17-.56-.53-.56-.58,0-1.12.5-1.75,2.32l-.3.84h-.43l.58-1.66c.66-1.91,1.81-2.34,2.74-2.34,1.21,0,1.6.59,1.6,1.41a6.2,6.2,0,0,1-.37,1.77l-2.17,6.51a3.7,3.7,0,0,0-.22,1.13c0,.53.24.78.72.78,1.76,0,4.23-4.09,5.82-9.93l.34-1.36a7.2,7.2,0,0,0,2.08-.31L567.4,99a3.47,3.47,0,0,0-.17.89c0,.32.13.52.49.52.66,0,1.18-.63,1.77-2.32l.3-.84Z"/><path class="cls-2" d="M573.72,100.76a2.15,2.15,0,0,0,2.3-2.34,4.87,4.87,0,0,0-1.19-3,5.49,5.49,0,0,1-1.48-3.3,3.3,3.3,0,0,1,3.53-3.22c1.29,0,2.78.36,2.78,2A1.12,1.12,0,0,1,578.6,92a.9.9,0,0,1-.91-1,2.44,2.44,0,0,1,.64-1.52,2.23,2.23,0,0,0-1.14-.27,2,2,0,0,0-2,2.15c0,1,.48,1.52,1.37,2.84a6.26,6.26,0,0,1,1.34,3.34,3.69,3.69,0,0,1-3.91,3.58c-1.58,0-3.08-.62-3.08-2.25a.92.92,0,0,1,.89-1c.73,0,1,.7,1,1.43a5.54,5.54,0,0,1-.16,1.18A2,2,0,0,0,573.72,100.76Z"/><path class="cls-2" d="M581.65,98.3a1.13,1.13,0,0,1,1.16,1.19,1.79,1.79,0,0,1-1.71,1.72A1.12,1.12,0,0,1,580,100,1.8,1.8,0,0,1,581.65,98.3Z"/><path class="cls-2" d="M262.84,125.77a4.81,4.81,0,0,0-.19,1.1c0,.68.43.81,1.53.86l-.09.46c-.71,0-1.84-.07-2.89-.07s-2.23,0-2.9.07l.12-.46c1.5-.07,1.87-.3,2.3-2l3-11.29a4.64,4.64,0,0,0,.19-1.09c0-.69-.44-.82-1.53-.87l.11-.46c.62,0,1.71.07,2.89.07s2.19,0,2.91-.07l-.11.46c-1.57.07-1.91.3-2.34,2Z"/><path class="cls-2" d="M286.84,120.75c0,3.42-1.63,7.75-5.61,7.75a2.39,2.39,0,0,1-2.4-1.4,4.7,4.7,0,0,1-3.14,1.4c-2.1,0-2.82-1.25-2.82-2.6,0-2.83,3.52-6.22,6.54-8.5a6,6,0,0,1-2.22,1.07c-.57,0-.91-.58-1.43-.58s-.78.34-1.12,1.41l-.27.84h-.43l.52-1.66c.59-1.8,1.32-2.32,2.11-2.32s1.21.89,2.1.89a2.6,2.6,0,0,0,1.82-.71l.31-.43.48.23c-3.13,2.63-6.19,6-6.19,9.62,0,1.52.48,2,1.26,2a3.67,3.67,0,0,0,2.35-1.09,4.79,4.79,0,0,1-.17-1.34c0-2.69,2.07-5.37,3.32-5.37.66,0,.79.91.79,1.59a6.17,6.17,0,0,1-2.61,4.73,1.91,1.91,0,0,0,1.82,1.5c3.1,0,4.49-4.21,4.49-7.05a6,6,0,0,0-.17-1.5c-.87-.16-2.17-.77-2.17-2a1,1,0,0,1,1-1.09c.89,0,1.41,1.16,1.69,2.68A9.1,9.1,0,0,1,286.84,120.75Zm-7.09,3.72a6.2,6.2,0,0,0,.16,1.46,6,6,0,0,0,2.21-4.34c0-.61-.09-1.07-.43-1.07C280.94,120.51,279.75,122.49,279.75,124.47Z"/><path class="cls-2" d="M291.75,118.41a2.74,2.74,0,0,0,.17-.83c0-.38-.17-.58-.49-.58-.71,0-1.21.75-1.8,2.32l-.32.84h-.42l.59-1.66c.68-1.91,1.89-2.34,2.82-2.34,1.14,0,1.51.62,1.51,1.42a5.73,5.73,0,0,1-.38,1.75l-2.43,6.9a2.49,2.49,0,0,0-.18.83c0,.37.18.58.54.58.61,0,1.11-.57,1.78-2.32l.31-.84h.43l-.59,1.67c-.63,1.77-1.75,2.34-2.8,2.34s-1.59-.58-1.59-1.39a5.58,5.58,0,0,1,.4-1.8Zm2.37-7.52a1.13,1.13,0,0,1,1.16,1.19,1.79,1.79,0,0,1-1.71,1.72,1.12,1.12,0,0,1-1.14-1.17A1.8,1.8,0,0,1,294.11,110.89Z"/><path class="cls-2" d="M297.33,126.25a3.14,3.14,0,0,0-.14.8c0,.39.17.61.53.61.59,0,1.09-.59,1.7-2.32l.3-.84h.43l-.57,1.67c-.6,1.72-1.58,2.34-2.73,2.34s-1.57-.64-1.57-1.48a6.41,6.41,0,0,1,.31-1.71L299.31,113a2.53,2.53,0,0,0,.11-.63c0-.59-.41-.87-1.54-.87L298,111a8.85,8.85,0,0,0,4.05-.93Z"/><path class="cls-2" d="M303.63,126.25a3.14,3.14,0,0,0-.14.8c0,.39.17.61.53.61.59,0,1.09-.59,1.7-2.32l.3-.84h.43l-.57,1.67c-.6,1.72-1.58,2.34-2.73,2.34s-1.57-.64-1.57-1.48a6.41,6.41,0,0,1,.31-1.71L305.6,113a2.53,2.53,0,0,0,.11-.63c0-.59-.41-.87-1.54-.87l.16-.48a8.85,8.85,0,0,0,4.05-.93Z"/><path class="cls-2" d="M315.74,128a2.15,2.15,0,0,0,2.3-2.34,4.87,4.87,0,0,0-1.19-3,5.49,5.49,0,0,1-1.48-3.3,3.3,3.3,0,0,1,3.53-3.22c1.29,0,2.78.36,2.78,2a1.12,1.12,0,0,1-1.06,1.18.91.91,0,0,1-.91-1,2.44,2.44,0,0,1,.64-1.52,2.24,2.24,0,0,0-1.14-.27,2,2,0,0,0-2,2.15c0,1,.48,1.52,1.37,2.84a6.26,6.26,0,0,1,1.34,3.34A3.69,3.69,0,0,1,316,128.5c-1.58,0-3.08-.62-3.08-2.25a.92.92,0,0,1,.89-1c.73,0,1,.7,1,1.43a5.52,5.52,0,0,1-.16,1.18A2,2,0,0,0,315.74,128Z"/><path class="cls-2" d="M324.77,126.25a1.84,1.84,0,0,0-.08.51c0,.63.43.9,1,.9s1.34-.39,2-2.28l.32-.89h.43l-.48,1.43c-.67,2-1.73,2.58-3.12,2.58s-2-.73-2-1.89a4.93,4.93,0,0,1,.21-1.3l2.41-8.37h-2l.11-.46h2.07l1-3.45a6.92,6.92,0,0,0,2-.32l-1.08,3.78h3l-.07.46h-3.07Z"/><path class="cls-2" d="M340.44,124.47l-.57,1.67c-.67,1.82-1.73,2.37-2.62,2.37a1.44,1.44,0,0,1-1.26-.6,1.58,1.58,0,0,1-.19-.8,7.54,7.54,0,0,1,.36-1.81l.41-1.66c-1.5,3.51-3,4.87-4.58,4.87s-2.14-1.14-2.14-2.75c0-3.64,3.28-9.58,6.72-9.58.8,0,1.37.61,1.46,1.7l.36-1.39a7.82,7.82,0,0,0,2.1-.31l-2.84,10.05a3.33,3.33,0,0,0-.17.84c0,.31.12.57.51.57.59,0,1.18-.57,1.74-2.32l.28-.84Zm-3.13-3.73.42-1.66c0-.18,0-.34,0-.5,0-1.2-.44-2-1.26-2-2,0-4.63,5.39-4.63,9.41,0,1.3.29,1.75.79,1.75C333.93,127.77,336.17,124.52,337.31,120.74Z"/><path class="cls-2" d="M352,118c0,3.07-2.32,7.39-4.48,10.1a13.57,13.57,0,0,1-4.49,3.78,4.86,4.86,0,0,1-2,.57c-.61,0-1.14-.32-1.14-.93a1.11,1.11,0,0,1,1.23-1,3.15,3.15,0,0,1,1.89.89,12.45,12.45,0,0,0,3.41-2.72l-1.68-10.2c-.17-.93-.34-1.25-.73-1.25s-.72.37-1.34,2.09l-.29.84h-.43l.57-1.66c.63-1.84,1.63-2.32,2.62-2.32s1.41.48,1.63,2.09l1.17,8.55a19.88,19.88,0,0,0,3.43-7.39c-.71-.38-1.73-1.1-1.73-2.1a1.08,1.08,0,0,1,1.16-1.16C351.6,116.17,352,116.8,352,118Z"/><path class="cls-2" d="M368.72,126.16c-.66,1.91-1.82,2.34-2.75,2.34-1.17,0-1.6-.53-1.6-1.4a5.8,5.8,0,0,1,.38-1.79l2.15-6.51a3.67,3.67,0,0,0,.24-1.13.68.68,0,0,0-.74-.78c-1.68,0-3.87,3.39-5.55,8.43l-.83,2.85h-2l4.5-15.17a2.37,2.37,0,0,0,.11-.62c0-.6-.43-.88-1.57-.88l.13-.48a8.87,8.87,0,0,0,4.1-.93L362,121.37c1.7-3.79,3.24-5.2,5.14-5.2,1.38,0,1.83.74,1.83,1.72a5.77,5.77,0,0,1-.33,1.71l-2.21,6.64a3.27,3.27,0,0,0-.17.87c0,.33.13.54.53.54.57,0,1.11-.5,1.76-2.32l.29-.84h.43Z"/><path class="cls-2" d="M373.09,123.16a9.83,9.83,0,0,0-.26,2.2c0,1.54.61,2.19,1.57,2.19s2.34-.58,3.51-2.28l.37.18c-.89,1.52-2.64,3.05-4.58,3.05s-3-1.1-3-3.21c0-3.3,3.18-9.12,7.5-9.12a1.5,1.5,0,0,1,1.69,1.5C379.89,120.45,375.71,122.27,373.09,123.16Zm.1-.43a11.24,11.24,0,0,0,3.1-1.47,4.53,4.53,0,0,0,1.78-3.63c0-.87-.13-1-.37-1C376.21,116.6,374,119.46,373.19,122.73Z"/><path class="cls-2" d="M390.51,117.46a1.65,1.65,0,0,1-1.6,1.64.81.81,0,0,1-.9-.82,1.53,1.53,0,0,1,1-1.46.33.33,0,0,0-.26-.09c-1.66,0-3.69,3.93-5.37,9.54l-.48,1.9h-2l2.72-9.76a3.31,3.31,0,0,0,.17-.89c0-.37-.17-.52-.48-.52-.67,0-1.19.64-1.78,2.32l-.3.84h-.43l.58-1.66c.66-1.91,1.81-2.34,2.74-2.34a1.16,1.16,0,0,1,1.31,1.32,8.67,8.67,0,0,1-.32,1.86l-.73,2.89c1.64-4.44,3-6.06,4.73-6.06A1.24,1.24,0,0,1,390.51,117.46Z"/><path class="cls-2" d="M392.08,123.16a9.83,9.83,0,0,0-.26,2.2c0,1.54.61,2.19,1.57,2.19s2.34-.58,3.51-2.28l.37.18c-.89,1.52-2.64,3.05-4.58,3.05s-3-1.1-3-3.21c0-3.3,3.18-9.12,7.5-9.12a1.5,1.5,0,0,1,1.69,1.5C398.88,120.45,394.7,122.27,392.08,123.16Zm.1-.43a11.24,11.24,0,0,0,3.1-1.47,4.53,4.53,0,0,0,1.78-3.63c0-.87-.13-1-.37-1C395.2,116.6,393,119.46,392.18,122.73Z"/><path class="cls-2" d="M415.71,124.47l-.57,1.67c-.67,1.82-1.73,2.37-2.62,2.37a1.44,1.44,0,0,1-1.26-.6,1.58,1.58,0,0,1-.19-.8,7.52,7.52,0,0,1,.36-1.81l.41-1.66c-1.5,3.51-3,4.87-4.58,4.87s-2.14-1.14-2.14-2.75c0-3.64,3.28-9.58,6.72-9.58.8,0,1.37.61,1.46,1.7l.36-1.39a7.82,7.82,0,0,0,2.1-.31l-2.84,10.05a3.35,3.35,0,0,0-.17.84c0,.31.12.57.51.57.59,0,1.18-.57,1.74-2.32l.28-.84Zm-3.13-3.73.42-1.66c0-.18,0-.34,0-.5,0-1.2-.44-2-1.26-2-2,0-4.63,5.39-4.63,9.41,0,1.3.29,1.75.79,1.75C409.2,127.77,411.44,124.52,412.58,120.74Z"/><path class="cls-2" d="M428.28,114.87a1.36,1.36,0,0,1-1.27,1.32.61.61,0,0,1-.64-.67,1.33,1.33,0,0,1,.3-.81.18.18,0,0,0-.13,0,1.34,1.34,0,0,0-.56.22,4.64,4.64,0,0,0-1.24,1.49,2.24,2.24,0,0,1,1.7,2.33,4.92,4.92,0,0,1-4.51,4.59c-1.34.76-2.7,1.34-2.7,1.94,0,.31.48.54,1.37.77l1.66.43c1.56.41,2.58.84,2.58,2,0,1.64-2.17,4.21-6.75,4.21-2.37,0-3.44-.7-3.44-1.66s.84-2.11,3.88-3.3a1.28,1.28,0,0,1-.87-1.19c0-.9.52-1.69,3.5-3.13-1.84,0-3.09-.82-3.09-2.48a4.86,4.86,0,0,1,5.13-4.69,5.45,5.45,0,0,1,1.17.11,6,6,0,0,1,1.48-1.71,2.68,2.68,0,0,1,1.48-.5C427.89,114.07,428.28,114.31,428.28,114.87Zm-9.42,12.9c-2.06,1.1-2.32,2.14-2.32,2.8,0,1.11.93,1.67,2.17,1.67,2.07,0,4.58-1.28,4.58-3,0-.41-.46-.48-1.37-.72Zm5.55-9.71c0-.82-.3-1.48-1.34-1.48-2.57,0-3,4.13-3,4.87,0,1.09.52,1.48,1.37,1.48C423.94,122.93,424.41,119.8,424.41,118.06Z"/><path class="cls-2" d="M437.82,124.47l-.57,1.67c-.67,1.82-1.73,2.37-2.62,2.37a1.44,1.44,0,0,1-1.26-.6,1.58,1.58,0,0,1-.19-.8,7.52,7.52,0,0,1,.36-1.81l.41-1.66c-1.5,3.51-3,4.87-4.58,4.87s-2.14-1.14-2.14-2.75c0-3.64,3.28-9.58,6.72-9.58.8,0,1.37.61,1.46,1.7l.36-1.39a7.82,7.82,0,0,0,2.1-.31L435,126.22a3.35,3.35,0,0,0-.17.84c0,.31.12.57.51.57.59,0,1.18-.57,1.74-2.32l.28-.84Zm-3.13-3.73.42-1.66c0-.18,0-.34,0-.5,0-1.2-.44-2-1.26-2-2,0-4.63,5.39-4.63,9.41,0,1.3.29,1.75.79,1.75C431.31,127.77,433.55,124.52,434.68,120.74Z"/><path class="cls-2" d="M442.52,118.41a2.73,2.73,0,0,0,.17-.83c0-.38-.17-.58-.49-.58-.71,0-1.21.75-1.8,2.32l-.32.84h-.42l.59-1.66c.68-1.91,1.89-2.34,2.82-2.34,1.14,0,1.51.62,1.51,1.42a5.73,5.73,0,0,1-.38,1.75l-2.43,6.9a2.49,2.49,0,0,0-.18.83c0,.37.18.58.54.58.61,0,1.11-.57,1.78-2.32l.31-.84h.43l-.59,1.67c-.63,1.77-1.75,2.34-2.8,2.34s-1.59-.58-1.59-1.39a5.58,5.58,0,0,1,.4-1.8Zm2.37-7.52a1.13,1.13,0,0,1,1.16,1.19,1.79,1.79,0,0,1-1.71,1.72,1.12,1.12,0,0,1-1.14-1.17A1.8,1.8,0,0,1,444.89,110.89Z"/><path class="cls-2" d="M457.27,126.16c-.66,1.91-1.82,2.34-2.75,2.34a1.55,1.55,0,0,1-1.43-.67,1.41,1.41,0,0,1-.18-.74,5.86,5.86,0,0,1,.39-1.78l2.15-6.51a3.7,3.7,0,0,0,.23-1.12c0-.43-.17-.79-.73-.79-1.79,0-4.4,4.19-6,9.7l-.4,1.59h-2l2.72-9.76a3.15,3.15,0,0,0,.17-.86c0-.31-.11-.55-.5-.55-.67,0-1.12.55-1.75,2.32l-.3.84h-.43l.58-1.66c.66-1.91,1.72-2.34,2.7-2.34a1.18,1.18,0,0,1,1.34,1.34,8,8,0,0,1-.31,1.83l-.79,3.11c2-4.67,3.63-6.29,5.7-6.29,1.38,0,1.83.73,1.83,1.71a5.89,5.89,0,0,1-.33,1.72L455,126.25a2.85,2.85,0,0,0-.18.86.49.49,0,0,0,.54.55c.57,0,1.12-.5,1.76-2.32l.3-.84h.42Z"/><path class="cls-2" d="M460.82,125.59a1.13,1.13,0,0,1,1.16,1.19,1.79,1.79,0,0,1-1.71,1.72,1.12,1.12,0,0,1-1.14-1.17A1.8,1.8,0,0,1,460.82,125.59Zm.3-1.94c1.24-4.82,1.72-9.75,2.43-12.37a1.07,1.07,0,0,1,1-.89c.72,0,1,.41,1,.92a1.57,1.57,0,0,1-.09.49c-.69,2.42-2.75,7.08-4,11.93Z"/><path class="cls-2" d="M467.83,117.59l-.12-.31a4.46,4.46,0,0,0,2.42-3,1.94,1.94,0,0,1-1.19.58c-.41,0-.63-.32-.63-.8a2.22,2.22,0,0,1,1.87-2.11c.7,0,1,.52,1,1.33C471.17,114.87,469.91,116.57,467.83,117.59Zm3.78,0-.12-.31a4.46,4.46,0,0,0,2.42-3,1.94,1.94,0,0,1-1.19.58c-.41,0-.63-.32-.63-.8a2.22,2.22,0,0,1,1.87-2.11c.7,0,1,.52,1,1.33C474.95,114.87,473.69,116.57,471.6,117.59Z"/><path class="cls-2" d="M297.48,249.13q0,1-3.7,12.14t-3.7,14.86a9.1,9.1,0,0,0,.1,1.28,9.56,9.56,0,0,1,.1,1.33q0,.36-.59.57a1.48,1.48,0,0,1-.9.1q-1.23-.21-1.23-3a31,31,0,0,1,1.9-9.55q1.74-4.67,3.54-9.34a24.4,24.4,0,0,0,1.9-7.49q0-1.8-2.57-1.8-3.34,0-9.08,5.44-8.06,7.75-16.06,15.55-.51.46-5.39,6.31-4.26,5.13-4.88,5.13c-.24,0-.38,0-.44-.1a.46.46,0,0,1,0-.36,5.61,5.61,0,0,0,.05-.56q0-.62,5.34-7.34,6-7.49,6.67-8.57,4.88-7.75,4.88-9.8a2.11,2.11,0,0,0-.49-1.33,1.4,1.4,0,0,0-1.1-.62q-3.39,0-12,7.29a113.94,113.94,0,0,0-13.91,14q-6.57,8-7.44,8c-.14,0-.21-.12-.21-.36q0-.82,2-3.23t4.08-4.83A108.55,108.55,0,0,0,253,260.52q4.41-7.39,4.41-10.88a5.08,5.08,0,0,0-1.92-4,6.85,6.85,0,0,0-4.59-1.64,16.25,16.25,0,0,0-8.42,2.41,27.21,27.21,0,0,0-5.8,4.77q-1.69,1.8-3.34,3.59l-.56-.36q2.16-2.46,4.26-4.93a28.53,28.53,0,0,1,6.26-5.18,17,17,0,0,1,8.83-2.46,8.62,8.62,0,0,1,5.59,1.74,5.65,5.65,0,0,1,2.16,4.62,16.16,16.16,0,0,1-.82,5.49,51.85,51.85,0,0,1-4.82,8.67q8.42-7.6,12.73-10.26A11.83,11.83,0,0,1,273,250a3.24,3.24,0,0,1,2.31.82,2.82,2.82,0,0,1,.87,2.16q0,2.52-5.75,11.39,11.55-11.29,15-14.11,5.54-4.52,9.34-4.52Q297.48,245.74,297.48,249.13Z"/><path class="cls-2" d="M317.34,272.53a.7.7,0,0,1-.21.51q-5,4.21-7,5.54Q305,282,301.17,282a2.64,2.64,0,0,1-1.87-.82,2.52,2.52,0,0,1-.85-1.85,4.58,4.58,0,0,1,1.33-2.52q1.23-1.28,2.41-2.62a13.73,13.73,0,0,0-2.08.18,12.54,12.54,0,0,1-1.82.18h-.15a38.6,38.6,0,0,1-8.73,6c-.55,0-.82-.09-.82-.26a1.45,1.45,0,0,1,.46-.87,41,41,0,0,0,8.16-5.18,1,1,0,0,1-.36-.72q0-1,1.62-2.69t2.64-1.72q.87,0,.87.65a3.91,3.91,0,0,1-1.54,2.59,17.59,17.59,0,0,1,2.64-.41q1.42,0,1.42,1t-2,3q-2,1.87-2,2.9A1.72,1.72,0,0,0,301,280a1.77,1.77,0,0,0,1.3.54q2.81,0,7.93-3.34,1.28-.82,6.6-4.88a.34.34,0,0,1,.31-.05A.24.24,0,0,1,317.34,272.53Z"/><path class="cls-2" d="M331.86,272.58a.7.7,0,0,1-.21.51q-5.54,4.62-6.72,5.39a19.56,19.56,0,0,1-10.62,3.18,5.16,5.16,0,0,1-2.82-.72,15,15,0,0,1-1.69-1.49,1.15,1.15,0,0,1,.1-.51,23,23,0,0,1-3,1.54c-.55,0-.82-.09-.82-.26a1.45,1.45,0,0,1,.46-.87A50.08,50.08,0,0,0,316,273.2.4.4,0,0,0,316,273a4.37,4.37,0,0,1,2.87-1.13q2.31,0,2.31,2.16a5.92,5.92,0,0,1-1.44,3.31,9,9,0,0,1-2.57,2.54q2.93,0,7.75-3a72.38,72.38,0,0,0,6.42-4.52.34.34,0,0,1,.31-.05A.24.24,0,0,1,331.86,272.58Zm-12.93,2.14a1.08,1.08,0,0,0-1.23-1.22,3.16,3.16,0,0,0-.92.1,70.58,70.58,0,0,1-6.21,4.89,1.37,1.37,0,0,1,.41.05,6,6,0,0,0,2.82,1.12,5.81,5.81,0,0,0,5.13-4.94Z"/><path class="cls-2" d="M334.94,279.31q0,1.64-2.21,1.64-2.05,0-2.05-1.64t2.1-1.69a2.47,2.47,0,0,1,1.49.49A1.45,1.45,0,0,1,334.94,279.31Z"/><path class="cls-2" d="M411.11,248.77a9.82,9.82,0,0,1-4,1.44,8.61,8.61,0,0,1-2.36-.21l-22.89-5.85a24,24,0,0,0-5.65-.87,20.9,20.9,0,0,0-10.62,3.29q-6.21,3.64-6.21,8.21,0,2.77,3.39,5.11a13.07,13.07,0,0,0,7.6,2.33q3,0,7.8-2.31c.38-.07.62.1.72.51q-6.93,3.18-11.34,3.18a11.12,11.12,0,0,1-7.21-2.18,7.06,7.06,0,0,1-2.69-5.77q0-5.18,6.47-9.39A25.88,25.88,0,0,1,378.52,242q5.44,0,15.35,2.57Q407.31,248.1,411.11,248.77Zm-14.68,1.59q-2.11,2.57-10.62,14.68,6-.72,8-.72.51,0,.36.46a2.39,2.39,0,0,1-2.21,1.49l-7.8.87q-3.75,5.13-7.24,9.34-6.16,7.39-8.16,7.39a1.14,1.14,0,0,1-1.23-1.13q0-.87.46-.87a4.58,4.58,0,0,0,.92-.05q2.26-.77,5.49-4.08A114.15,114.15,0,0,0,383,267.35a33.36,33.36,0,0,0-4.11.41q-4.11.62-5.9.82a1.37,1.37,0,0,1-.26-.82q0-1.49,2.16-1.49,1.9,0,9.8-1.15,4-5.84,11.19-15.33Z"/><path class="cls-2" d="M415.83,272.53a.7.7,0,0,1-.21.51q-5,4.21-7,5.54-5.08,3.39-8.93,3.39a2.64,2.64,0,0,1-1.87-.82,2.52,2.52,0,0,1-.85-1.85,4.58,4.58,0,0,1,1.33-2.52q1.23-1.28,2.41-2.62a13.73,13.73,0,0,0-2.08.18,12.54,12.54,0,0,1-1.82.18h-.15a38.6,38.6,0,0,1-8.73,6c-.55,0-.82-.09-.82-.26a1.45,1.45,0,0,1,.46-.87,41,41,0,0,0,8.16-5.18,1,1,0,0,1-.36-.72q0-1,1.62-2.69t2.64-1.72q.87,0,.87.65a3.91,3.91,0,0,1-1.54,2.59,17.59,17.59,0,0,1,2.64-.41q1.42,0,1.42,1t-2,3q-2,1.87-2,2.9a1.72,1.72,0,0,0,.54,1.26,1.77,1.77,0,0,0,1.3.54q2.81,0,7.93-3.34,1.28-.82,6.6-4.88a.34.34,0,0,1,.31-.05A.24.24,0,0,1,415.83,272.53Z"/><path class="cls-2" d="M435.43,272.58a.69.69,0,0,1-.21.51q-4.93,4.08-6.88,5.41-4.77,3.27-7.9,3.27-2.67,0-2.67-3.8a17.12,17.12,0,0,1-3.28,2.05,8.64,8.64,0,0,1-3.44,1.08,3.67,3.67,0,0,1-1.75-.44,1.3,1.3,0,0,1-.82-1.15q0-2.1,3.88-5.13t6.85-3q1.8,0,1.8.87a1.74,1.74,0,0,1-.59,1.39,1.44,1.44,0,0,1-1.21.41s-.07-.24-.31-.72a1.19,1.19,0,0,0-1.13-.72,7,7,0,0,0-4.34,2.05q-2.39,2.05-2.39,3.64,0,1,.72,1a9.92,9.92,0,0,0,5.39-2,14.58,14.58,0,0,0,2.1-2.1q1-1.18,1.64-1.08t.62.51a5.68,5.68,0,0,1-.8,1.76,5,5,0,0,0-.8,2,1.56,1.56,0,0,0,1.74,1.78q2.21,0,6.88-3.16,1.18-.76,6.36-4.64a.34.34,0,0,1,.31-.05A.24.24,0,0,1,435.43,272.58Z"/><path class="cls-2" d="M457.61,272.58a.7.7,0,0,1-.21.51q-4.67,3.9-6.42,5.08-4.36,2.93-7.49,2.93-2.72,0-2.72-2.87a13.49,13.49,0,0,1,.51-3.13q-3.59,2.05-7.54,4.57a23.32,23.32,0,0,1-3,1.85.92.92,0,0,1-.38-.21c-.19-.14-.28-.24-.28-.31q0-.67,1.8-3.18a37.79,37.79,0,0,0,2.36-3.59,2.07,2.07,0,0,1-.15-.82q0-.41.62-.82a2,2,0,0,1,1-.41q1.64,0,1.64,1.23a8,8,0,0,1-1.54,2.41,28.78,28.78,0,0,1-2.1,2.51q9.08-6.16,11.65-6.16.36,0,.36.62a15.62,15.62,0,0,1-1.46,1.77,5,5,0,0,0-1.46,3.21q0,1.74,2.42,1.75,1.91,0,6-2.82.82-.51,5.87-4.31a.34.34,0,0,1,.31-.05A.24.24,0,0,1,457.61,272.58Z"/><path class="cls-2" d="M475.26,272.74a15,15,0,0,1-2.77,2.57q-2.62,2.1-3.85,2.93-6.06,4.11-11.45,4.11A4.53,4.53,0,0,1,454,281.2a3.61,3.61,0,0,1-1.23-2.77q0-2.41,3.18-5.29A10.57,10.57,0,0,1,463.2,270q1.64,0,1.64,1.39t-2.1,2.72a6.47,6.47,0,0,1-3.23,1.18q-1.08,0-1.08-.51a1.27,1.27,0,0,1,1.44-1.44,1.4,1.4,0,0,1,.56.18,2,2,0,0,0,.92.18,1.7,1.7,0,0,0,1.23-.7,2,2,0,0,0,.62-1.26q0-.5-1.23-.5a7,7,0,0,0-4.65,2.28q-2.44,2.29-2.44,4.08a2.82,2.82,0,0,0,1.13,2.26,4.55,4.55,0,0,0,3,.92,14.91,14.91,0,0,0,6.93-2.21,50.18,50.18,0,0,0,6.06-4.05,29.31,29.31,0,0,1,3-2.21Q475.26,272.27,475.26,272.74Z"/><path class="cls-2" d="M486.91,272.58a.7.7,0,0,1-.21.51q-5.13,4.31-6.42,5.24-4.21,3.08-6.36,3.08a4.38,4.38,0,0,1-2.54-.79,2.27,2.27,0,0,1-1.15-1.87,7.14,7.14,0,0,1,1.85-4.16q1.74-2.21,2.93-2.46.62,0,.62.41a6.87,6.87,0,0,1-1.46,2.1,5.22,5.22,0,0,0-1.46,3.23q0,2,1.75,2,2.1,0,12-7.44a.34.34,0,0,1,.31-.05A.24.24,0,0,1,486.91,272.58ZM479.16,269q0,1.34-1.85,1.33T475.47,269q0-1.39,1.85-1.39T479.16,269Z"/><path class="cls-2" d="M501.44,272.58a.7.7,0,0,1-.21.51q-5.54,4.62-6.72,5.39a19.56,19.56,0,0,1-10.62,3.18,5.16,5.16,0,0,1-2.82-.72,15,15,0,0,1-1.69-1.49,1.15,1.15,0,0,1,.1-.51,23,23,0,0,1-3,1.54c-.55,0-.82-.09-.82-.26a1.45,1.45,0,0,1,.46-.87,50.08,50.08,0,0,0,9.44-6.16.4.4,0,0,0,.05-.15,4.37,4.37,0,0,1,2.87-1.13q2.31,0,2.31,2.16a5.92,5.92,0,0,1-1.44,3.31,9,9,0,0,1-2.57,2.54q2.93,0,7.75-3a72.38,72.38,0,0,0,6.42-4.52.34.34,0,0,1,.31-.05A.24.24,0,0,1,501.44,272.58Zm-12.93,2.14a1.08,1.08,0,0,0-1.23-1.22,3.16,3.16,0,0,0-.92.1,70.58,70.58,0,0,1-6.21,4.89,1.37,1.37,0,0,1,.41.05,6,6,0,0,0,2.82,1.12,5.81,5.81,0,0,0,5.13-4.94Z"/><path class="cls-2" d="M275.43,321.83a4.25,4.25,0,0,0,1.64-.3,3.2,3.2,0,0,0,.54-.28L278,321l.26-.22a.28.28,0,0,1,.15-.09.1.1,0,0,1,.09,0l.25.29a5.06,5.06,0,0,1-1.48,1,4.61,4.61,0,0,1-2,.39,3.73,3.73,0,0,1-1.54-.31,3.3,3.3,0,0,1-1.18-.87,4,4,0,0,1-.75-1.36,5.56,5.56,0,0,1-.26-1.76,6.82,6.82,0,0,1,.4-2.37,5.66,5.66,0,0,1,1.08-1.84,4.81,4.81,0,0,1,3.64-1.62,4.74,4.74,0,0,1,.92.08,3.4,3.4,0,0,1,.75.23,2.85,2.85,0,0,1,.62.38,5.06,5.06,0,0,1,.55.53l-.22.28a.24.24,0,0,1-.18.08.23.23,0,0,1-.14-.07l-.2-.18-.3-.24a2.23,2.23,0,0,0-.43-.24,3.31,3.31,0,0,0-.6-.18,3.82,3.82,0,0,0-.79-.07,4.06,4.06,0,0,0-3.11,1.4,4.91,4.91,0,0,0-.92,1.63,6.47,6.47,0,0,0-.34,2.15,5,5,0,0,0,.23,1.56,3.51,3.51,0,0,0,.64,1.18,2.79,2.79,0,0,0,1,.75A3,3,0,0,0,275.43,321.83Z"/><path class="cls-2" d="M285.91,315.35l-.84,7h-.31a.24.24,0,0,1-.19-.07.28.28,0,0,1-.06-.19l.21-2a6.12,6.12,0,0,1-.63,1,4.32,4.32,0,0,1-.72.73,3.11,3.11,0,0,1-.79.46,2.27,2.27,0,0,1-.82.16,1.35,1.35,0,0,1-1.28-.69,3.19,3.19,0,0,1-.23-1.94l.52-4.43h.66l-.52,4.43a2.9,2.9,0,0,0,.13,1.54,1,1,0,0,0,.94.54,1.75,1.75,0,0,0,.78-.2,3,3,0,0,0,.77-.56,5.13,5.13,0,0,0,.7-.88,6.64,6.64,0,0,0,.58-1.16l.44-3.7Z"/><path class="cls-2" d="M291.54,316.2a.17.17,0,0,1-.15.1.29.29,0,0,1-.17-.09l-.27-.2a2,2,0,0,0-.43-.2,2,2,0,0,0-.64-.09,1.92,1.92,0,0,0-.68.12,1.83,1.83,0,0,0-.55.32,1.53,1.53,0,0,0-.37.46,1.19,1.19,0,0,0-.14.56.84.84,0,0,0,.13.48,1.24,1.24,0,0,0,.35.34,2.61,2.61,0,0,0,.5.25l.57.21c.2.07.39.15.57.23a2.32,2.32,0,0,1,.5.31,1.37,1.37,0,0,1,.35.44,1.39,1.39,0,0,1,.13.63,2.2,2.2,0,0,1-.18.87,2.3,2.3,0,0,1-.51.75,2.54,2.54,0,0,1-.8.52,2.65,2.65,0,0,1-1,.2,2.47,2.47,0,0,1-1.13-.23,2.61,2.61,0,0,1-.79-.61l.17-.24a.23.23,0,0,1,.19-.11s.1,0,.17.11a2.24,2.24,0,0,0,.29.25,2.16,2.16,0,0,0,1.95.22,1.73,1.73,0,0,0,.58-.37,1.7,1.7,0,0,0,.37-.55,1.66,1.66,0,0,0,.13-.66,1,1,0,0,0-.13-.52,1.24,1.24,0,0,0-.35-.36,2.37,2.37,0,0,0-.5-.25l-.57-.21-.57-.22a2.27,2.27,0,0,1-.5-.3,1.32,1.32,0,0,1-.35-.43,1.3,1.3,0,0,1-.13-.62,1.82,1.82,0,0,1,.18-.78,2.11,2.11,0,0,1,.49-.67,2.38,2.38,0,0,1,.75-.46,2.84,2.84,0,0,1,2,0,2.2,2.2,0,0,1,.77.55Z"/><path class="cls-2" d="M293.23,321.15s0-.06,0-.11,0-.1,0-.19,0-.19,0-.33,0-.3.06-.51l.48-4h-.92a.15.15,0,0,1-.11,0,.13.13,0,0,1,0-.12l0-.26,1.1-.08.46-2.49a.23.23,0,0,1,.06-.11.16.16,0,0,1,.12,0h.32l-.33,2.66h2l-.06.5h-2L294,320l-.06.47c0,.12,0,.22,0,.3v.17s0,.07,0,.08a.87.87,0,0,0,.21.66.77.77,0,0,0,.55.2,1.07,1.07,0,0,0,.41-.07,1.82,1.82,0,0,0,.31-.16l.22-.16a.24.24,0,0,1,.13-.07.11.11,0,0,1,.1.07l.13.29a2.12,2.12,0,0,1-.68.47,1.94,1.94,0,0,1-.8.18,1.24,1.24,0,0,1-.9-.32A1.31,1.31,0,0,1,293.23,321.15Z"/><path class="cls-2" d="M299.8,322.41a2.56,2.56,0,0,1-1-.2,2.15,2.15,0,0,1-.78-.57,2.61,2.61,0,0,1-.5-.9,3.74,3.74,0,0,1-.18-1.2,5.24,5.24,0,0,1,.25-1.62,4.5,4.5,0,0,1,.71-1.37,3.57,3.57,0,0,1,1.09-.95,2.79,2.79,0,0,1,1.39-.35,2.56,2.56,0,0,1,1,.2,2.16,2.16,0,0,1,.78.57,2.61,2.61,0,0,1,.5.9,3.69,3.69,0,0,1,.18,1.19,5.17,5.17,0,0,1-.26,1.62,4.65,4.65,0,0,1-.71,1.38,3.56,3.56,0,0,1-1.08,1A2.77,2.77,0,0,1,299.8,322.41Zm.06-.52a2,2,0,0,0,1.11-.32,2.92,2.92,0,0,0,.86-.85,4.18,4.18,0,0,0,.55-1.21,5.14,5.14,0,0,0,.19-1.4,2.64,2.64,0,0,0-.5-1.72,1.69,1.69,0,0,0-1.38-.6,2,2,0,0,0-1.11.32,2.87,2.87,0,0,0-.85.84,4.18,4.18,0,0,0-.55,1.2,5.06,5.06,0,0,0-.2,1.41,2.68,2.68,0,0,0,.49,1.73A1.67,1.67,0,0,0,299.86,321.88Z"/><path class="cls-2" d="M304.52,322.32l.84-7h.3a.22.22,0,0,1,.25.25l-.2,1.95a5.22,5.22,0,0,1,1.26-1.68,2.32,2.32,0,0,1,1.5-.6,1.37,1.37,0,0,1,.67.15,1,1,0,0,1,.41.43,1.92,1.92,0,0,1,.19.7,5.25,5.25,0,0,1,0,.95,5.47,5.47,0,0,1,.6-1,3.85,3.85,0,0,1,.69-.69,2.74,2.74,0,0,1,.74-.41,2.2,2.2,0,0,1,.75-.14,1.46,1.46,0,0,1,.75.18,1.15,1.15,0,0,1,.46.51,2.23,2.23,0,0,1,.19.82,6,6,0,0,1,0,1.11l-.52,4.45h-.65l.52-4.45a5.85,5.85,0,0,0,.05-.88,2,2,0,0,0-.11-.65.79.79,0,0,0-.31-.4,1,1,0,0,0-.55-.13,1.71,1.71,0,0,0-.7.16,2.58,2.58,0,0,0-.69.47,4,4,0,0,0-.64.79,6.11,6.11,0,0,0-.55,1.12l-.47,4h-.65l.53-4.45a7.1,7.1,0,0,0,.06-.88,2,2,0,0,0-.09-.65.75.75,0,0,0-.29-.4,1,1,0,0,0-.54-.13,2,2,0,0,0-1.47.73,6.36,6.36,0,0,0-1.19,2.06l-.44,3.72Z"/><path class="cls-2" d="M320.6,321a6.84,6.84,0,0,1-.67.63,3.67,3.67,0,0,1-.66.43,3,3,0,0,1-.69.25,3.46,3.46,0,0,1-.76.08,2.62,2.62,0,0,1-1-.19,2.07,2.07,0,0,1-.76-.55,2.39,2.39,0,0,1-.47-.86,3.74,3.74,0,0,1-.16-1.14,5.46,5.46,0,0,1,.1-1.06,5.24,5.24,0,0,1,.31-1,4.72,4.72,0,0,1,.51-.92,3.68,3.68,0,0,1,.7-.74,3.2,3.2,0,0,1,.87-.5,2.86,2.86,0,0,1,1-.18,2.32,2.32,0,0,1,.86.14,1.77,1.77,0,0,1,.57.36,1.33,1.33,0,0,1,.32.46,1.28,1.28,0,0,1,.1.47,1.91,1.91,0,0,1-.08.55,1.36,1.36,0,0,1-.27.49,2.16,2.16,0,0,1-.53.43,4.26,4.26,0,0,1-.86.38,10.34,10.34,0,0,1-1.25.31q-.73.14-1.71.24,0,.14,0,.29t0,.29a2.54,2.54,0,0,0,.47,1.63,1.72,1.72,0,0,0,1.42.59,2.56,2.56,0,0,0,.67-.08,2.52,2.52,0,0,0,.53-.21,2.85,2.85,0,0,0,.41-.27l.32-.27.24-.21a.31.31,0,0,1,.19-.08.19.19,0,0,1,.15.07Zm-1.71-5.28a2.16,2.16,0,0,0-1,.23,2.72,2.72,0,0,0-.8.63,3.71,3.71,0,0,0-.58.92,5,5,0,0,0-.35,1.09q.89-.1,1.53-.23a10.22,10.22,0,0,0,1.09-.27,3.55,3.55,0,0,0,.73-.31,1.72,1.72,0,0,0,.43-.35,1,1,0,0,0,.2-.37,1.47,1.47,0,0,0,.05-.39.88.88,0,0,0-.07-.32.83.83,0,0,0-.22-.31,1.27,1.27,0,0,0-.4-.23A1.74,1.74,0,0,0,318.89,315.74Z"/><path class="cls-2" d="M323.18,317.65a6.89,6.89,0,0,1,.63-1.19,3.38,3.38,0,0,1,.72-.8,1.79,1.79,0,0,1,.79-.36,1.56,1.56,0,0,1,.84.1L326,316a1.56,1.56,0,0,0-.9-.09,1.71,1.71,0,0,0-.8.45,3.63,3.63,0,0,0-.69,1,8.15,8.15,0,0,0-.57,1.43l-.43,3.56H322l.84-7h.3a.22.22,0,0,1,.25.25Z"/><path class="cls-2" d="M331,317.65a6.89,6.89,0,0,1,.63-1.19,3.38,3.38,0,0,1,.72-.8,1.79,1.79,0,0,1,.79-.36,1.56,1.56,0,0,1,.84.1l-.12.62a1.56,1.56,0,0,0-.9-.09,1.71,1.71,0,0,0-.8.45,3.63,3.63,0,0,0-.69,1,8.15,8.15,0,0,0-.57,1.43l-.43,3.56h-.65l.84-7h.3a.22.22,0,0,1,.25.25Z"/><path class="cls-2" d="M339.25,321a6.84,6.84,0,0,1-.67.63,3.67,3.67,0,0,1-.66.43,3,3,0,0,1-.69.25,3.46,3.46,0,0,1-.76.08,2.62,2.62,0,0,1-1-.19,2.07,2.07,0,0,1-.76-.55,2.39,2.39,0,0,1-.47-.86,3.74,3.74,0,0,1-.16-1.14,5.46,5.46,0,0,1,.1-1.06,5.24,5.24,0,0,1,.31-1,4.72,4.72,0,0,1,.51-.92,3.68,3.68,0,0,1,.7-.74,3.2,3.2,0,0,1,.87-.5,2.86,2.86,0,0,1,1-.18,2.32,2.32,0,0,1,.86.14,1.77,1.77,0,0,1,.57.36,1.33,1.33,0,0,1,.32.46,1.28,1.28,0,0,1,.1.47,1.91,1.91,0,0,1-.08.55,1.36,1.36,0,0,1-.27.49,2.16,2.16,0,0,1-.53.43,4.26,4.26,0,0,1-.86.38,10.34,10.34,0,0,1-1.25.31q-.73.14-1.71.24,0,.14,0,.29t0,.29a2.54,2.54,0,0,0,.47,1.63,1.72,1.72,0,0,0,1.42.59,2.56,2.56,0,0,0,.67-.08,2.52,2.52,0,0,0,.53-.21,2.85,2.85,0,0,0,.41-.27l.32-.27.24-.21a.31.31,0,0,1,.19-.08.19.19,0,0,1,.15.07Zm-1.71-5.28a2.16,2.16,0,0,0-1,.23,2.72,2.72,0,0,0-.8.63,3.71,3.71,0,0,0-.58.92,5,5,0,0,0-.35,1.09q.89-.1,1.53-.23a10.22,10.22,0,0,0,1.09-.27,3.55,3.55,0,0,0,.73-.31,1.72,1.72,0,0,0,.43-.35,1,1,0,0,0,.2-.37,1.47,1.47,0,0,0,.05-.39.88.88,0,0,0-.07-.32.83.83,0,0,0-.22-.31,1.27,1.27,0,0,0-.4-.23A1.74,1.74,0,0,0,337.53,315.74Z"/><path class="cls-2" d="M346.56,315.35l-3.57,7h-.55l-1.87-7h.51a.2.2,0,0,1,.15.05.23.23,0,0,1,.07.12l1.42,5.5c0,.11,0,.21,0,.32s0,.21,0,.32l.1-.32c0-.1.08-.21.13-.32l2.78-5.5a.31.31,0,0,1,.1-.12.24.24,0,0,1,.15,0Z"/><path class="cls-2" d="M348.61,315.35l-.85,7h-.65l.85-7Zm.51-2.4a.53.53,0,0,1-.05.23.7.7,0,0,1-.14.19.64.64,0,0,1-.19.13.54.54,0,0,1-.22,0,.53.53,0,0,1-.22,0,.57.57,0,0,1-.18-.13.72.72,0,0,1-.13-.19.56.56,0,0,1,0-.23.58.58,0,0,1,0-.24.72.72,0,0,1,.13-.2.61.61,0,0,1,.19-.14.53.53,0,0,1,.22,0,.54.54,0,0,1,.22,0,.65.65,0,0,1,.19.13.62.62,0,0,1,.13.2A.61.61,0,0,1,349.12,312.95Z"/><path class="cls-2" d="M355.15,321a6.84,6.84,0,0,1-.67.63,3.67,3.67,0,0,1-.66.43,3,3,0,0,1-.69.25,3.46,3.46,0,0,1-.76.08,2.62,2.62,0,0,1-1-.19,2.07,2.07,0,0,1-.76-.55,2.39,2.39,0,0,1-.47-.86,3.74,3.74,0,0,1-.16-1.14,5.46,5.46,0,0,1,.1-1.06,5.24,5.24,0,0,1,.31-1,4.72,4.72,0,0,1,.51-.92,3.68,3.68,0,0,1,.7-.74,3.2,3.2,0,0,1,.87-.5,2.86,2.86,0,0,1,1-.18,2.32,2.32,0,0,1,.86.14,1.77,1.77,0,0,1,.57.36,1.33,1.33,0,0,1,.32.46,1.28,1.28,0,0,1,.1.47,1.91,1.91,0,0,1-.08.55,1.36,1.36,0,0,1-.27.49,2.16,2.16,0,0,1-.53.43,4.26,4.26,0,0,1-.86.38,10.34,10.34,0,0,1-1.25.31q-.73.14-1.71.24,0,.14,0,.29t0,.29a2.54,2.54,0,0,0,.47,1.63,1.72,1.72,0,0,0,1.42.59,2.56,2.56,0,0,0,.67-.08,2.52,2.52,0,0,0,.53-.21,2.85,2.85,0,0,0,.41-.27l.32-.27.24-.21a.31.31,0,0,1,.19-.08.19.19,0,0,1,.15.07Zm-1.71-5.28a2.16,2.16,0,0,0-1,.23,2.72,2.72,0,0,0-.8.63,3.71,3.71,0,0,0-.58.92,5,5,0,0,0-.35,1.09q.89-.1,1.53-.23a10.22,10.22,0,0,0,1.09-.27,3.55,3.55,0,0,0,.73-.31,1.72,1.72,0,0,0,.43-.35,1,1,0,0,0,.2-.37,1.47,1.47,0,0,0,.05-.39.88.88,0,0,0-.07-.32.83.83,0,0,0-.22-.31,1.27,1.27,0,0,0-.4-.23A1.74,1.74,0,0,0,353.44,315.74Z"/><path class="cls-2" d="M365.86,315.35l-3,7h-.48c-.07,0-.12,0-.13-.15l-1.06-5.66a2,2,0,0,1,0-.33l-.06.16-.06.17-2.47,5.66c0,.1-.09.15-.17.15h-.46l-1.29-7h.47a.2.2,0,0,1,.22.17l.93,5.5q0,.31,0,.59l.11-.29.12-.3,2.39-5.54a.2.2,0,0,1,.2-.15h.26a.15.15,0,0,1,.17.15l1,5.54c0,.1,0,.2,0,.3s0,.2,0,.29l.1-.29.1-.31,2.28-5.5a.31.31,0,0,1,.1-.12.23.23,0,0,1,.14,0Z"/><path class="cls-2" d="M371.44,316.06l-.74,6.11-.29,1.61a.34.34,0,0,1-.34.29h-.24l1-8-.87-.06a.23.23,0,0,1-.13-.06.15.15,0,0,1,0-.13l0-.26h1.06l.11-.88a3.69,3.69,0,0,1,.28-1,2.46,2.46,0,0,1,.51-.75,2,2,0,0,1,.69-.45,2.27,2.27,0,0,1,.83-.15,1.93,1.93,0,0,1,.39,0,1.72,1.72,0,0,1,.35.11l-.07.34a.08.08,0,0,1-.06.07h-.13l-.19,0-.26,0a1.7,1.7,0,0,0-.6.11,1.39,1.39,0,0,0-.5.33,1.88,1.88,0,0,0-.38.59,3.32,3.32,0,0,0-.22.89l-.11.86h2l-.07.49Z"/><path class="cls-2" d="M375.19,317.65a6.89,6.89,0,0,1,.63-1.19,3.38,3.38,0,0,1,.72-.8,1.79,1.79,0,0,1,.79-.36,1.56,1.56,0,0,1,.84.1L378,316a1.56,1.56,0,0,0-.9-.09,1.71,1.71,0,0,0-.8.45,3.63,3.63,0,0,0-.69,1,8.15,8.15,0,0,0-.57,1.43l-.43,3.56H374l.84-7h.3a.22.22,0,0,1,.25.25Z"/><path class="cls-2" d="M380.7,322.41a2.56,2.56,0,0,1-1-.2,2.15,2.15,0,0,1-.78-.57,2.61,2.61,0,0,1-.5-.9,3.74,3.74,0,0,1-.18-1.2,5.24,5.24,0,0,1,.25-1.62,4.5,4.5,0,0,1,.71-1.37,3.57,3.57,0,0,1,1.09-.95,2.79,2.79,0,0,1,1.39-.35,2.56,2.56,0,0,1,1,.2,2.16,2.16,0,0,1,.78.57,2.61,2.61,0,0,1,.5.9,3.69,3.69,0,0,1,.18,1.19,5.17,5.17,0,0,1-.26,1.62,4.65,4.65,0,0,1-.71,1.38,3.56,3.56,0,0,1-1.08,1A2.77,2.77,0,0,1,380.7,322.41Zm.06-.52a2,2,0,0,0,1.11-.32,2.92,2.92,0,0,0,.86-.85,4.18,4.18,0,0,0,.55-1.21,5.14,5.14,0,0,0,.19-1.4,2.64,2.64,0,0,0-.5-1.72,1.69,1.69,0,0,0-1.38-.6,2,2,0,0,0-1.11.32,2.87,2.87,0,0,0-.85.84,4.18,4.18,0,0,0-.55,1.2,5.06,5.06,0,0,0-.2,1.41,2.68,2.68,0,0,0,.49,1.73A1.67,1.67,0,0,0,380.76,321.88Z"/><path class="cls-2" d="M385.42,322.32l.84-7h.3a.22.22,0,0,1,.25.25l-.2,1.95a5.22,5.22,0,0,1,1.26-1.68,2.32,2.32,0,0,1,1.5-.6,1.37,1.37,0,0,1,.67.15,1,1,0,0,1,.41.43,1.92,1.92,0,0,1,.19.7,5.25,5.25,0,0,1,0,.95,5.47,5.47,0,0,1,.6-1,3.85,3.85,0,0,1,.69-.69,2.74,2.74,0,0,1,.74-.41,2.2,2.2,0,0,1,.75-.14,1.46,1.46,0,0,1,.75.18,1.15,1.15,0,0,1,.46.51,2.23,2.23,0,0,1,.19.82,6,6,0,0,1,0,1.11l-.52,4.45h-.65l.52-4.45a5.85,5.85,0,0,0,.05-.88,2,2,0,0,0-.11-.65.79.79,0,0,0-.31-.4,1,1,0,0,0-.55-.13,1.71,1.71,0,0,0-.7.16,2.58,2.58,0,0,0-.69.47,4,4,0,0,0-.64.79,6.11,6.11,0,0,0-.55,1.12l-.47,4h-.65l.53-4.45a7.1,7.1,0,0,0,.06-.88,2,2,0,0,0-.09-.65.75.75,0,0,0-.29-.4,1,1,0,0,0-.54-.13,2,2,0,0,0-1.47.73,6.36,6.36,0,0,0-1.19,2.06l-.44,3.72Z"/><path class="cls-2" d="M406.76,313h-3.19l-1.15,9.32h-.69l1.15-9.32h-3.21l.07-.59h7.09Z"/><path class="cls-2" d="M406.69,317.65a6.89,6.89,0,0,1,.63-1.19,3.38,3.38,0,0,1,.72-.8,1.79,1.79,0,0,1,.79-.36,1.56,1.56,0,0,1,.84.1l-.12.62a1.56,1.56,0,0,0-.9-.09,1.71,1.71,0,0,0-.8.45,3.63,3.63,0,0,0-.69,1,8.15,8.15,0,0,0-.57,1.43l-.43,3.56h-.65l.84-7h.3a.22.22,0,0,1,.25.25Z"/><path class="cls-2" d="M411.68,315.35l-.85,7h-.65l.85-7Zm.51-2.4a.53.53,0,0,1-.05.23.7.7,0,0,1-.14.19.64.64,0,0,1-.19.13.54.54,0,0,1-.22,0,.53.53,0,0,1-.22,0,.57.57,0,0,1-.18-.13.72.72,0,0,1-.13-.19.56.56,0,0,1,0-.23.58.58,0,0,1,0-.24.72.72,0,0,1,.13-.2.61.61,0,0,1,.19-.14.53.53,0,0,1,.22,0,.54.54,0,0,1,.22,0,.65.65,0,0,1,.19.13.62.62,0,0,1,.13.2A.61.61,0,0,1,412.19,312.95Z"/><path class="cls-2" d="M414.25,317.77a6.59,6.59,0,0,1,.61-1,4.89,4.89,0,0,1,.72-.8,3.07,3.07,0,0,1,.79-.51,2.06,2.06,0,0,1,.84-.18,1.73,1.73,0,0,1,.8.18,1.59,1.59,0,0,1,.57.49,2.28,2.28,0,0,1,.35.77,4,4,0,0,1,.12,1,5.54,5.54,0,0,1-.11,1.1,6.3,6.3,0,0,1-.32,1.08,5.65,5.65,0,0,1-.5,1,4,4,0,0,1-.68.8,3.06,3.06,0,0,1-.83.54,2.34,2.34,0,0,1-1,.2,2.21,2.21,0,0,1-1-.25,2,2,0,0,1-.78-.74l-.41,3.37h-.64l1.15-9.45h.3a.22.22,0,0,1,.25.25Zm-.36,3.11a1.82,1.82,0,0,0,.76.78,2.06,2.06,0,0,0,.93.22,1.91,1.91,0,0,0,.82-.18,2.47,2.47,0,0,0,.69-.49,3.56,3.56,0,0,0,.55-.72,5.14,5.14,0,0,0,.41-.86,5.79,5.79,0,0,0,.25-.93,5.19,5.19,0,0,0,.09-.93,2.56,2.56,0,0,0-.36-1.46,1.18,1.18,0,0,0-1-.52,1.64,1.64,0,0,0-.8.22,3.1,3.1,0,0,0-.77.63,5.52,5.52,0,0,0-.7,1,7.87,7.87,0,0,0-.58,1.27Z"/><path class="cls-2" d="M427.35,322.32h-.54a.21.21,0,0,1-.15-.05.27.27,0,0,1-.08-.13l-.71-2.9h-4.44l-1.42,2.9a.32.32,0,0,1-.11.13.29.29,0,0,1-.17.05h-.53l4.94-9.91h.69Zm-1.6-3.59-1.22-5-.06-.28-.06-.33-.14.33-.12.28-2.46,5Z"/><path class="cls-2" d="M434.78,312.13l-1.25,10.18h-.32a.21.21,0,0,1-.19-.08.32.32,0,0,1,0-.17l.23-2.19a6.64,6.64,0,0,1-.61,1,5,5,0,0,1-.72.8,3,3,0,0,1-.79.52,2.07,2.07,0,0,1-.84.18,1.74,1.74,0,0,1-.8-.17,1.58,1.58,0,0,1-.57-.5,2.32,2.32,0,0,1-.35-.78,4,4,0,0,1-.12-1,5.51,5.51,0,0,1,.11-1.09,6.25,6.25,0,0,1,.32-1.08,5.55,5.55,0,0,1,.5-1,4.05,4.05,0,0,1,.68-.8,3.11,3.11,0,0,1,.83-.54,2.32,2.32,0,0,1,1-.2,2.24,2.24,0,0,1,1,.25,2,2,0,0,1,.78.74l.51-4.1Zm-1.22,4.63a2.15,2.15,0,0,0-.35-.47,1.75,1.75,0,0,0-.41-.31,1.79,1.79,0,0,0-.46-.17,2.2,2.2,0,0,0-.48-.05,1.92,1.92,0,0,0-.82.18,2.47,2.47,0,0,0-.69.49,3.54,3.54,0,0,0-.55.71,5,5,0,0,0-.41.86,5.72,5.72,0,0,0-.25.94,5.21,5.21,0,0,0-.09.93,2.58,2.58,0,0,0,.36,1.46,1.18,1.18,0,0,0,1,.52,1.61,1.61,0,0,0,.8-.22A3.19,3.19,0,0,0,432,321a5.31,5.31,0,0,0,.7-1,8.25,8.25,0,0,0,.58-1.26Z"/><path class="cls-2" d="M441.71,315.35l-3.57,7h-.55l-1.87-7h.51a.2.2,0,0,1,.15.05.23.23,0,0,1,.07.12l1.42,5.5c0,.11,0,.21,0,.32s0,.21,0,.32l.1-.32c0-.1.08-.21.13-.32l2.78-5.5a.31.31,0,0,1,.1-.12.24.24,0,0,1,.15,0Z"/><path class="cls-2" d="M443.76,315.35l-.85,7h-.65l.85-7Zm.51-2.4a.53.53,0,0,1-.05.23.7.7,0,0,1-.14.19.64.64,0,0,1-.19.13.54.54,0,0,1-.22,0,.53.53,0,0,1-.22,0,.57.57,0,0,1-.18-.13.72.72,0,0,1-.13-.19.56.56,0,0,1,0-.23.58.58,0,0,1,0-.24.72.72,0,0,1,.13-.2.61.61,0,0,1,.19-.14.53.53,0,0,1,.22,0,.54.54,0,0,1,.22,0,.65.65,0,0,1,.19.13.62.62,0,0,1,.13.2A.61.61,0,0,1,444.27,312.95Z"/><path class="cls-2" d="M449.46,316.2a.17.17,0,0,1-.15.1.29.29,0,0,1-.17-.09l-.27-.2a2,2,0,0,0-.43-.2,2,2,0,0,0-.64-.09,1.92,1.92,0,0,0-.68.12,1.83,1.83,0,0,0-.55.32,1.53,1.53,0,0,0-.37.46,1.19,1.19,0,0,0-.14.56.84.84,0,0,0,.13.48,1.24,1.24,0,0,0,.35.34,2.61,2.61,0,0,0,.5.25l.57.21c.2.07.39.15.57.23a2.32,2.32,0,0,1,.5.31,1.37,1.37,0,0,1,.35.44,1.39,1.39,0,0,1,.13.63,2.2,2.2,0,0,1-.18.87,2.3,2.3,0,0,1-.51.75,2.54,2.54,0,0,1-.8.52,2.65,2.65,0,0,1-1,.2,2.47,2.47,0,0,1-1.13-.23,2.61,2.61,0,0,1-.79-.61l.17-.24a.23.23,0,0,1,.19-.11s.1,0,.17.11a2.24,2.24,0,0,0,.29.25,2.16,2.16,0,0,0,1.95.22,1.73,1.73,0,0,0,.58-.37,1.7,1.7,0,0,0,.37-.55,1.66,1.66,0,0,0,.13-.66,1,1,0,0,0-.13-.52,1.24,1.24,0,0,0-.35-.36,2.37,2.37,0,0,0-.5-.25l-.57-.21-.57-.22a2.27,2.27,0,0,1-.5-.3,1.32,1.32,0,0,1-.35-.43,1.3,1.3,0,0,1-.13-.62,1.82,1.82,0,0,1,.18-.78,2.11,2.11,0,0,1,.49-.67,2.38,2.38,0,0,1,.75-.46,2.84,2.84,0,0,1,2,0,2.2,2.2,0,0,1,.77.55Z"/><path class="cls-2" d="M453.11,322.41a2.56,2.56,0,0,1-1-.2,2.15,2.15,0,0,1-.78-.57,2.61,2.61,0,0,1-.5-.9,3.74,3.74,0,0,1-.18-1.2,5.24,5.24,0,0,1,.25-1.62,4.5,4.5,0,0,1,.71-1.37,3.57,3.57,0,0,1,1.09-.95,2.79,2.79,0,0,1,1.39-.35,2.56,2.56,0,0,1,1,.2,2.16,2.16,0,0,1,.78.57,2.61,2.61,0,0,1,.5.9,3.69,3.69,0,0,1,.18,1.19,5.17,5.17,0,0,1-.26,1.62,4.65,4.65,0,0,1-.71,1.38,3.56,3.56,0,0,1-1.08,1A2.77,2.77,0,0,1,453.11,322.41Zm.06-.52a2,2,0,0,0,1.11-.32,2.92,2.92,0,0,0,.86-.85,4.18,4.18,0,0,0,.55-1.21,5.14,5.14,0,0,0,.19-1.4,2.64,2.64,0,0,0-.5-1.72,1.69,1.69,0,0,0-1.38-.6,2,2,0,0,0-1.11.32,2.87,2.87,0,0,0-.85.84,4.18,4.18,0,0,0-.55,1.2,5.06,5.06,0,0,0-.2,1.41,2.68,2.68,0,0,0,.49,1.73A1.67,1.67,0,0,0,453.17,321.88Z"/><path class="cls-2" d="M459,317.65a6.89,6.89,0,0,1,.63-1.19,3.38,3.38,0,0,1,.72-.8,1.79,1.79,0,0,1,.79-.36,1.56,1.56,0,0,1,.84.1l-.12.62a1.56,1.56,0,0,0-.9-.09,1.71,1.71,0,0,0-.8.45,3.63,3.63,0,0,0-.69,1,8.15,8.15,0,0,0-.57,1.43l-.43,3.56h-.65l.84-7h.3a.22.22,0,0,1,.25.25Z"/><circle class="cls-2" cx="295.32" cy="174.17" r="7.22"/><circle class="cls-3" cx="295.32" cy="174.17" r="9.31"/><circle class="cls-2" cx="330.85" cy="174.17" r="7.22"/><circle class="cls-3" cx="330.85" cy="174.17" r="9.31"/><circle class="cls-2" cx="366.38" cy="174.17" r="7.22"/><circle class="cls-3" cx="366.38" cy="174.17" r="9.31"/><circle class="cls-2" cx="401.91" cy="174.17" r="7.22"/><circle class="cls-3" cx="401.91" cy="174.17" r="9.31"/><circle class="cls-2" cx="437.43" cy="174.17" r="7.22"/><circle class="cls-3" cx="437.43" cy="174.17" r="9.31"/></g></g></svg>