<svg xmlns="http://www.w3.org/2000/svg" viewBox="0 0 732.75 348.34"><defs><style>.cls-1{fill:#fff;stroke-width:5px;}.cls-1,.cls-3{stroke:#435871;stroke-miterlimit:10;}.cls-2{fill:#435871;}.cls-3{fill:none;}</style></defs><title>review-02</title><g id="Layer_2" data-name="Layer 2"><g id="Layer_1-2" data-name="Layer 1"><rect class="cls-1" x="2.5" y="2.5" width="727.75" height="343.34"/><path class="cls-2" d="M171,43.89l.14.37c-1.68,1-2.72,2.29-2.84,3.51a2.27,2.27,0,0,1,1.39-.68c.48,0,.74.38.74.94a2.6,2.6,0,0,1-2.19,2.48c-.82,0-1.17-.61-1.17-1.56C167.1,47.09,168.57,45.09,171,43.89Zm4.43,0,.14.37c-1.68,1-2.72,2.29-2.84,3.51a2.27,2.27,0,0,1,1.39-.68c.48,0,.74.38.74.94a2.6,2.6,0,0,1-2.19,2.48c-.82,0-1.17-.61-1.17-1.56C171.53,47.09,173,45.09,175.45,43.89Z"/><path class="cls-2" d="M178.86,60.53a5.64,5.64,0,0,0-.22,1.29c0,.8.51,1,1.8,1l-.1.53c-.83-.05-2.16-.08-3.39-.08-1.4,0-2.62,0-3.4.08l.14-.53c1.76-.08,2.19-.35,2.7-2.29l3.52-13.25a5.45,5.45,0,0,0,.22-1.28c0-.81-.52-1-1.8-1l.13-.54c.73.05,2,.08,3.39.08s2.57,0,3.42-.08l-.13.54c-1.84.08-2.24.35-2.75,2.29Z"/><path class="cls-2" d="M193,61.09a3.68,3.68,0,0,0-.17.94c0,.46.2.72.63.72.69,0,1.28-.69,2-2.73l.35-1h.51l-.66,2c-.7,2-1.85,2.75-3.21,2.75S190.6,63,190.6,62a7.51,7.51,0,0,1,.37-2l4.35-14.44a3,3,0,0,0,.13-.74c0-.69-.48-1-1.81-1l.18-.56a10.38,10.38,0,0,0,4.76-1.09Z"/><path class="cls-2" d="M205.94,49.27c2.22,0,3.65,1.36,3.65,4.18,0,3.92-2.71,10.29-7.7,10.29-2.22,0-3.66-1.37-3.66-4.2C198.23,55.61,201,49.27,205.94,49.27Zm-5.42,11.62c0,1.59.51,2.32,1.53,2.32,2.88,0,5.25-6.31,5.25-11.08,0-1.63-.51-2.32-1.51-2.32C202.92,49.8,200.52,56.12,200.52,60.88Z"/><path class="cls-2" d="M221.39,50.36a1.13,1.13,0,0,1,1.17-1.12c1,0,1.51,1.08,1.51,2.7A10.44,10.44,0,0,1,224,53c-.61,5.24-3.47,10.74-8.44,10.74a2.79,2.79,0,0,1-3.06-3c0-.09,0-.2,0-.29.22-3,2.7-6.82,6.19-10.16-1.17.43-2.56,1.69-3.52,1.69-.66,0-1.09-.68-1.68-.68s-.87.4-1.3,1.66l-.3,1h-.51L212,52c.59-2.14,1.58-2.72,2.52-2.72s1.38,1,2.42,1a3.23,3.23,0,0,0,2.24-.83l.27-.51.56.27c-2.83,3.49-4.48,7-4.81,10.73,0,.22,0,.43,0,.63,0,1.6.47,2.26,1.17,2.26,4.22,0,6.83-6.32,7-9.61A3.09,3.09,0,0,1,221.39,50.36Z"/><path class="cls-2" d="M228,57.47a11.54,11.54,0,0,0-.3,2.58c0,1.81.72,2.57,1.84,2.57,1.29,0,2.75-.68,4.12-2.67l.43.21c-1,1.79-3.1,3.59-5.37,3.59s-3.52-1.29-3.52-3.77c0-3.87,3.73-10.7,8.8-10.7A1.76,1.76,0,0,1,236,51C236,54.28,231.12,56.42,228,57.47Zm.12-.51a13.2,13.2,0,0,0,3.64-1.72A5.31,5.31,0,0,0,233.88,51c0-1-.16-1.2-.43-1.2C231.71,49.77,229.15,53.12,228.16,57Z"/><path class="cls-2" d="M249.48,59l-.63,2c-.66,2.16-2,2.75-3.09,2.75a1.5,1.5,0,0,1-1.68-1.67,9.13,9.13,0,0,1,.34-2.07l.35-1.34c-1.73,3.66-3.42,5.08-5.31,5.08-1.68,0-2.78-1.12-2.78-3.53,0-4.26,3.68-10.94,8.62-10.94a1.74,1.74,0,0,1,1.63,1.28l1.33-5a2.65,2.65,0,0,0,.12-.72c0-.7-.48-1-1.83-1l.17-.56a10.13,10.13,0,0,0,4.72-1.09l-5.23,19a3.44,3.44,0,0,0-.16.91c0,.43.16.74.64.74.69,0,1.25-.69,1.94-2.73l.33-1Zm-3.72-4.09,1-3.7c-.23-1-.81-1.36-1.42-1.36-3.42,0-6.27,6.4-6.27,10.68,0,1.58.4,2.32,1.17,2.32C241.81,62.88,244.4,59.23,245.77,54.94Z"/><path class="cls-2" d="M260.71,57.47a11.54,11.54,0,0,0-.3,2.58c0,1.81.72,2.57,1.84,2.57,1.29,0,2.75-.68,4.12-2.67l.43.21c-1,1.79-3.1,3.59-5.37,3.59s-3.52-1.29-3.52-3.77c0-3.87,3.73-10.7,8.8-10.7a1.76,1.76,0,0,1,2,1.76C268.69,54.28,263.79,56.42,260.71,57.47Zm.12-.51a13.2,13.2,0,0,0,3.64-1.72A5.31,5.31,0,0,0,266.55,51c0-1-.16-1.2-.43-1.2C264.38,49.77,261.82,53.12,260.83,57Z"/><path class="cls-2" d="M279.74,50.36a1.13,1.13,0,0,1,1.17-1.12c1,0,1.51,1.08,1.51,2.7a10.29,10.29,0,0,1-.07,1.06c-.61,5.24-3.47,10.74-8.43,10.74a2.79,2.79,0,0,1-3.06-3c0-.09,0-.2,0-.29.22-3,2.7-6.82,6.19-10.16-1.17.43-2.56,1.69-3.52,1.69-.67,0-1.1-.68-1.68-.68s-.87.4-1.3,1.66l-.3,1h-.51l.59-1.94c.59-2.14,1.58-2.72,2.52-2.72s1.38,1,2.42,1a3.23,3.23,0,0,0,2.24-.83l.27-.51.56.27c-2.83,3.49-4.48,7-4.81,10.73,0,.22,0,.43,0,.63,0,1.6.47,2.26,1.17,2.26,4.22,0,6.83-6.32,7-9.61A3.09,3.09,0,0,1,279.74,50.36Z"/><path class="cls-2" d="M286.4,57.47a11.54,11.54,0,0,0-.3,2.58c0,1.81.72,2.57,1.84,2.57,1.29,0,2.75-.68,4.12-2.67l.43.21c-1,1.79-3.1,3.59-5.37,3.59s-3.52-1.29-3.52-3.77c0-3.87,3.73-10.7,8.8-10.7a1.76,1.76,0,0,1,2,1.76C294.38,54.28,289.47,56.42,286.4,57.47Zm.12-.51a13.2,13.2,0,0,0,3.64-1.72A5.31,5.31,0,0,0,292.24,51c0-1-.16-1.2-.43-1.2C290.06,49.77,287.51,53.12,286.52,57Z"/><path class="cls-2" d="M306.85,50.78A1.93,1.93,0,0,1,305,52.71a1,1,0,0,1-1.06-1,1.8,1.8,0,0,1,1.2-1.71.39.39,0,0,0-.3-.1c-1.94,0-4.33,4.62-6.3,11.2L298,63.36h-2.32l3.19-11.46a3.9,3.9,0,0,0,.2-1c0-.43-.2-.61-.56-.61-.78,0-1.39.76-2.09,2.72L296,54h-.51L296.2,52c.77-2.24,2.12-2.75,3.22-2.75A1.36,1.36,0,0,1,301,50.82a10.16,10.16,0,0,1-.38,2.18l-.86,3.39c1.93-5.21,3.47-7.12,5.55-7.12A1.45,1.45,0,0,1,306.85,50.78Z"/><path class="cls-2" d="M318.32,51.43c0,3.6-2.72,8.67-5.25,11.85a15.92,15.92,0,0,1-5.27,4.43,5.72,5.72,0,0,1-2.32.67c-.72,0-1.34-.38-1.34-1.1a1.3,1.3,0,0,1,1.45-1.2,3.7,3.7,0,0,1,2.22,1,14.63,14.63,0,0,0,4-3.19l-2-12c-.2-1.09-.4-1.47-.86-1.47s-.85.43-1.58,2.45l-.34,1h-.51l.66-1.94c.74-2.16,1.92-2.72,3.08-2.72s1.66.56,1.92,2.45l1.37,10a23.32,23.32,0,0,0,4-8.67c-.83-.44-2-1.29-2-2.46a1.27,1.27,0,0,1,1.36-1.36C317.89,49.27,318.32,50,318.32,51.43Z"/><path class="cls-2" d="M322.16,61.09a2.15,2.15,0,0,0-.09.6,1,1,0,0,0,1.16,1.06c.77,0,1.58-.46,2.37-2.67l.38-1h.51l-.56,1.68c-.78,2.32-2,3-3.66,3s-2.39-.86-2.39-2.22a5.79,5.79,0,0,1,.25-1.53L323,50.17h-2.4l.13-.54h2.43l1.16-4.05a8.13,8.13,0,0,0,2.4-.38l-1.26,4.43h3.53l-.08.54h-3.6Z"/><path class="cls-2" d="M340.2,61c-.77,2.24-2.14,2.75-3.23,2.75-1.37,0-1.88-.63-1.88-1.64a6.83,6.83,0,0,1,.44-2.1l2.53-7.64a4.31,4.31,0,0,0,.29-1.33.8.8,0,0,0-.87-.91c-2,0-4.54,4-6.52,9.9l-1,3.35h-2.32l5.28-17.81a2.78,2.78,0,0,0,.13-.73c0-.7-.51-1-1.84-1l.16-.56a10.41,10.41,0,0,0,4.81-1.09l-3.87,13.23c2-4.45,3.81-6.1,6-6.1,1.62,0,2.15.87,2.15,2a6.75,6.75,0,0,1-.39,2l-2.59,7.8a3.81,3.81,0,0,0-.2,1c0,.39.16.64.63.64.66,0,1.3-.59,2.06-2.73l.34-1h.51Z"/><path class="cls-2" d="M346.42,51.9a3.21,3.21,0,0,0,.2-1c0-.44-.2-.68-.57-.68-.83,0-1.42.89-2.11,2.72l-.38,1h-.5l.69-1.94c.8-2.24,2.22-2.75,3.31-2.75,1.34,0,1.77.73,1.77,1.67a6.72,6.72,0,0,1-.44,2.06l-2.85,8.1a2.93,2.93,0,0,0-.21,1c0,.43.21.68.64.68.72,0,1.3-.67,2.09-2.73l.37-1h.51l-.69,2c-.74,2.07-2.06,2.75-3.29,2.75-1.39,0-1.86-.68-1.86-1.63a6.55,6.55,0,0,1,.47-2.11Zm2.78-8.83a1.32,1.32,0,0,1,1.36,1.39,2.1,2.1,0,0,1-2,2,1.31,1.31,0,0,1-1.34-1.37A2.11,2.11,0,0,1,349.2,43.07Z"/><path class="cls-2" d="M363.73,61c-.77,2.24-2.14,2.75-3.23,2.75a1.82,1.82,0,0,1-1.68-.78,1.67,1.67,0,0,1-.21-.87,6.88,6.88,0,0,1,.46-2.09l2.53-7.64a4.38,4.38,0,0,0,.27-1.32c0-.51-.2-.93-.86-.93-2.1,0-5.16,4.92-7,11.38l-.47,1.86h-2.32l3.19-11.46a3.72,3.72,0,0,0,.2-1c0-.37-.13-.65-.59-.65-.78,0-1.32.65-2.06,2.72l-.35,1h-.51l.68-1.94c.77-2.24,2-2.75,3.17-2.75a1.38,1.38,0,0,1,1.58,1.58,9.4,9.4,0,0,1-.37,2.15l-.93,3.65c2.31-5.47,4.26-7.38,6.69-7.38,1.62,0,2.15.86,2.15,2a6.9,6.9,0,0,1-.39,2l-2.59,7.8a3.35,3.35,0,0,0-.21,1,.57.57,0,0,0,.64.65c.66,0,1.32-.59,2.06-2.73l.35-1h.5Z"/><path class="cls-2" d="M379.19,47.74a1.6,1.6,0,0,1-1.49,1.55.72.72,0,0,1-.76-.78,1.56,1.56,0,0,1,.35-1,.21.21,0,0,0-.16-.05,1.56,1.56,0,0,0-.65.26A5.42,5.42,0,0,0,375,49.51a2.63,2.63,0,0,1,2,2.74,5.78,5.78,0,0,1-5.29,5.38c-1.58.89-3.17,1.58-3.17,2.28,0,.37.56.64,1.6.9l1.94.51c1.83.48,3,1,3,2.29,0,1.93-2.54,4.94-7.93,4.94-2.78,0-4-.82-4-1.94s1-2.48,4.55-3.87a1.5,1.5,0,0,1-1-1.4c0-1.06.61-2,4.11-3.68-2.16-.05-3.62-1-3.62-2.91a5.7,5.7,0,0,1,6-5.5,6.31,6.31,0,0,1,1.37.13,7.1,7.1,0,0,1,1.73-2A3.15,3.15,0,0,1,378,46.8C378.73,46.8,379.19,47.08,379.19,47.74ZM368.13,62.88c-2.41,1.29-2.72,2.52-2.72,3.29,0,1.3,1.1,2,2.54,2,2.42,0,5.37-1.5,5.37-3.48,0-.48-.53-.56-1.6-.85Zm6.52-11.39c0-1-.35-1.73-1.58-1.73-3,0-3.57,4.85-3.57,5.71,0,1.28.61,1.73,1.6,1.73C374.09,57.19,374.65,53.53,374.65,51.48Z"/><path class="cls-2" d="M397.13,59l-.66,2c-.78,2.14-2,2.78-3.08,2.78a1.69,1.69,0,0,1-1.47-.7,1.85,1.85,0,0,1-.22-.94,8.86,8.86,0,0,1,.42-2.12l.48-1.94c-1.76,4.12-3.52,5.71-5.37,5.71-1.68,0-2.52-1.34-2.52-3.23,0-4.28,3.85-11.24,7.89-11.24.94,0,1.6.72,1.71,2l.42-1.63a9.08,9.08,0,0,0,2.46-.36l-3.34,11.8a3.92,3.92,0,0,0-.2,1c0,.36.14.66.6.66.69,0,1.38-.66,2-2.73l.33-1Zm-3.68-4.38.5-1.94c0-.21,0-.4,0-.59,0-1.41-.52-2.32-1.47-2.32-2.35,0-5.44,6.32-5.44,11,0,1.53.34,2.06.93,2.06C389.49,62.88,392.12,59.07,393.45,54.62Z"/><path class="cls-2" d="M410.86,53c0,4-2.83,10.72-7.82,10.72A2.28,2.28,0,0,1,400.8,62l-2.27,1.84-.4-.2a5.63,5.63,0,0,0,.51-1.54l4.68-16.51a3.16,3.16,0,0,0,.1-.72c0-.7-.44-1-1.79-1l.13-.56a9.91,9.91,0,0,0,4.69-1.09L403,54.74c1.7-3.88,3.29-5.47,5.08-5.47S410.86,50.49,410.86,53Zm-2.29-.59c0-1.56-.48-2.32-1.25-2.32-1.47,0-3.7,3.66-5.28,8.17l-.93,3.35c.46,1.11,1.08,1.49,1.9,1.49C406,63.12,408.57,56.45,408.57,52.43Z"/><path class="cls-2" d="M420.15,49.27c2.22,0,3.65,1.36,3.65,4.18,0,3.92-2.71,10.29-7.7,10.29-2.22,0-3.66-1.37-3.66-4.2C412.44,55.61,415.16,49.27,420.15,49.27Zm-5.42,11.62c0,1.59.51,2.32,1.53,2.32,2.88,0,5.25-6.31,5.25-11.08,0-1.63-.51-2.32-1.51-2.32C417.13,49.8,414.73,56.12,414.73,60.88Z"/><path class="cls-2" d="M438.73,59l-.67,2c-.78,2.24-2.14,2.75-3.23,2.75a1.51,1.51,0,0,1-1.37-.73,1.88,1.88,0,0,1-.16-.82,9.66,9.66,0,0,1,.38-2.19l.85-3.35c-2.14,5.2-4,7.09-6.24,7.09-1.6,0-2.26-.81-2.26-2.06a6.38,6.38,0,0,1,.39-2L429,51.9a3.52,3.52,0,0,0,.21-1c0-.43-.2-.65-.63-.65-.68,0-1.32.59-2.06,2.72l-.35,1h-.51l.68-1.94c.77-2.24,2.12-2.75,3.22-2.75,1.42,0,1.88.69,1.88,1.65A7.28,7.28,0,0,1,431,53l-2.54,7.64a4.36,4.36,0,0,0-.26,1.33c0,.63.29.91.85.91,2.06,0,5-4.8,6.83-11.65l.4-1.59a8.45,8.45,0,0,0,2.44-.36l-3.31,11.82a4.1,4.1,0,0,0-.2,1c0,.38.16.61.57.61.77,0,1.38-.74,2.07-2.73l.35-1Z"/><path class="cls-2" d="M443.26,61.09a2.15,2.15,0,0,0-.09.6c0,.74.51,1.06,1.16,1.06s1.58-.46,2.37-2.67l.38-1h.51L447,60.71c-.78,2.32-2,3-3.66,3S441,62.88,441,61.52a5.79,5.79,0,0,1,.25-1.53l2.83-9.83h-2.4l.13-.54h2.43l1.16-4.05a8.13,8.13,0,0,0,2.4-.38l-1.26,4.43H450l-.08.54h-3.6Z"/><path class="cls-2" d="M459,61.09a2.15,2.15,0,0,0-.09.6A1,1,0,0,0,460,62.75c.77,0,1.58-.46,2.37-2.67l.38-1h.51l-.56,1.68c-.78,2.32-2,3-3.66,3s-2.39-.86-2.39-2.22a5.79,5.79,0,0,1,.25-1.53l2.83-9.83h-2.4l.13-.54h2.43l1.16-4.05a8.13,8.13,0,0,0,2.4-.38l-1.26,4.43h3.53l-.08.54h-3.6Z"/><path class="cls-2" d="M477,61c-.77,2.24-2.14,2.75-3.23,2.75-1.37,0-1.88-.63-1.88-1.64a6.81,6.81,0,0,1,.44-2.1l2.53-7.64a4.33,4.33,0,0,0,.29-1.33.8.8,0,0,0-.87-.91c-2,0-4.54,4-6.52,9.9l-1,3.35h-2.32l5.28-17.81a2.78,2.78,0,0,0,.13-.73c0-.7-.51-1-1.84-1l.16-.56A10.41,10.41,0,0,0,473,42.13l-3.87,13.23c2-4.45,3.81-6.1,6-6.1,1.62,0,2.15.87,2.15,2a6.77,6.77,0,0,1-.39,2l-2.59,7.8a3.83,3.83,0,0,0-.2,1c0,.39.16.64.63.64.66,0,1.3-.59,2.06-2.73l.34-1h.51Z"/><path class="cls-2" d="M483.24,51.9a3.21,3.21,0,0,0,.2-1c0-.44-.2-.68-.57-.68-.83,0-1.42.89-2.11,2.72l-.38,1h-.5l.69-1.94c.8-2.24,2.22-2.75,3.31-2.75,1.34,0,1.77.73,1.77,1.67A6.72,6.72,0,0,1,485.2,53l-2.85,8.1a2.93,2.93,0,0,0-.21,1c0,.43.21.68.64.68.72,0,1.3-.67,2.09-2.73l.37-1h.51L485,61c-.74,2.07-2.06,2.75-3.29,2.75-1.39,0-1.86-.68-1.86-1.63a6.55,6.55,0,0,1,.47-2.11ZM486,43.07a1.32,1.32,0,0,1,1.36,1.39,2.1,2.1,0,0,1-2,2A1.31,1.31,0,0,1,484,45.12,2.11,2.11,0,0,1,486,43.07Z"/><path class="cls-2" d="M489.87,63.2a2.53,2.53,0,0,0,2.7-2.75,5.72,5.72,0,0,0-1.39-3.53A6.44,6.44,0,0,1,489.44,53a3.87,3.87,0,0,1,4.15-3.78c1.51,0,3.26.42,3.26,2.32A1.31,1.31,0,0,1,495.6,53a1.06,1.06,0,0,1-1.07-1.12,2.86,2.86,0,0,1,.76-1.79,2.62,2.62,0,0,0-1.34-.31,2.28,2.28,0,0,0-2.32,2.53c0,1.23.56,1.79,1.6,3.34a7.34,7.34,0,0,1,1.58,3.92,4.33,4.33,0,0,1-4.59,4.2c-1.85,0-3.61-.73-3.61-2.65a1.07,1.07,0,0,1,1-1.2c.86,0,1.17.82,1.17,1.68a6.5,6.5,0,0,1-.18,1.38A2.36,2.36,0,0,0,489.87,63.2Z"/><path class="cls-2" d="M517.68,53c0,4-2.83,10.72-7.82,10.72a2.28,2.28,0,0,1-2.18-1.54l-1,3.51a2.39,2.39,0,0,0-.1.64c0,1,.91,1.29,2.27,1.29l-.17.56c-.72,0-2.12-.12-3.57-.12-1.12,0-2.4.09-3,.12l.16-.56c1.28,0,1.73-.4,2.09-1.65l5-17.8a18.25,18.25,0,0,1-4.51,6l-.3-.34A20.49,20.49,0,0,0,510,45.94l.1-.39a8.38,8.38,0,0,0,2.43-.38l-2.79,9.76c1.71-4,3.31-5.67,5.15-5.67C516.59,49.27,517.68,50.49,517.68,53Zm-2.31-.59c0-1.56-.47-2.32-1.25-2.32-1.55,0-4,4.11-5.55,9l-.69,2.44c.47,1.19,1.1,1.6,2,1.6C512.85,63.12,515.37,56.45,515.37,52.43Z"/><path class="cls-2" d="M521.4,61.09a3.68,3.68,0,0,0-.17.94c0,.46.2.72.63.72.69,0,1.28-.69,2-2.73l.35-1h.51l-.66,2c-.7,2-1.85,2.75-3.21,2.75S519,63,519,62a7.51,7.51,0,0,1,.37-2l4.35-14.44a3,3,0,0,0,.13-.74c0-.69-.48-1-1.81-1l.18-.56A10.38,10.38,0,0,0,527,42.13Z"/><path class="cls-2" d="M538.73,59l-.66,2c-.78,2.14-2,2.78-3.08,2.78a1.69,1.69,0,0,1-1.47-.7,1.85,1.85,0,0,1-.22-.94,8.84,8.84,0,0,1,.42-2.12l.48-1.94c-1.76,4.12-3.52,5.71-5.37,5.71-1.68,0-2.52-1.34-2.52-3.23,0-4.28,3.85-11.24,7.89-11.24.94,0,1.6.72,1.71,2l.42-1.63a9.08,9.08,0,0,0,2.46-.36l-3.34,11.8a3.94,3.94,0,0,0-.2,1c0,.36.14.66.6.66.69,0,1.38-.66,2-2.73l.33-1Zm-3.68-4.38.5-1.94c0-.21,0-.4,0-.59,0-1.41-.52-2.32-1.47-2.32-2.35,0-5.44,6.32-5.44,11,0,1.53.34,2.06.93,2.06C531.09,62.88,533.72,59.07,535.05,54.62Z"/><path class="cls-2" d="M543,60c0,1.81.76,2.57,1.88,2.57,1.28,0,2.63-.68,4-2.67l.53.21c-1,1.79-3.1,3.59-5.37,3.59s-3.52-1.32-3.52-3.92c0-4.12,3.06-10.55,8.06-10.55,1.58,0,2.89.85,2.89,2.27a2.05,2.05,0,0,1-1.9,2.14,1,1,0,0,1-1.1-1,2.25,2.25,0,0,1,2-2,2,2,0,0,0-1.81-.82C545.93,49.8,543,54.62,543,60Z"/><path class="cls-2" d="M554.69,57.47a11.54,11.54,0,0,0-.3,2.58c0,1.81.72,2.57,1.84,2.57,1.29,0,2.75-.68,4.12-2.67l.43.21c-1,1.79-3.1,3.59-5.37,3.59s-3.52-1.29-3.52-3.77c0-3.87,3.73-10.7,8.8-10.7a1.76,1.76,0,0,1,2,1.76C562.67,54.28,557.76,56.42,554.69,57.47Zm.12-.51a13.2,13.2,0,0,0,3.64-1.72A5.31,5.31,0,0,0,560.53,51c0-1-.16-1.2-.43-1.2C558.35,49.77,555.8,53.12,554.8,57Z"/><path class="cls-2" d="M565,60.32a1.32,1.32,0,0,1,1.36,1.39,2.1,2.1,0,0,1-2,2A1.31,1.31,0,0,1,563,62.37,2.11,2.11,0,0,1,565,60.32Z"/><path class="cls-2" d="M134.75,93c-.78,2.24-2.14,2.75-3.23,2.75-1.37,0-1.86-.64-1.86-1.67a6.86,6.86,0,0,1,.42-2.07l2.54-7.64a4.41,4.41,0,0,0,.27-1.33c0-.51-.2-.91-.86-.91-2.09,0-4.84,4.43-6.86,10.9l-.65,2.35H122.2l5.06-18a9.31,9.31,0,0,1-3.61.56,26.1,26.1,0,0,1-4.09-.38l-3.92,14.73a5.26,5.26,0,0,0-.23,1.36c0,.93.61,1.17,2.24,1.21l-.1.53c-.94-.05-2.46-.08-4-.08s-3,0-3.9.08l.12-.53c2.24-.08,2.8-.64,3.39-2.57l4-15.11a23.91,23.91,0,0,0-3.43-.31,6.7,6.7,0,0,0-3,.46,2.83,2.83,0,0,1,.48,1.54,1.39,1.39,0,0,1-1.33,1.55c-.78,0-1.17-.53-1.17-1.33A2.23,2.23,0,0,1,110.12,77a9.11,9.11,0,0,1,3.59-.61c3.7,0,6.48,1,10.12,1a7.83,7.83,0,0,0,3.6-.64l.63-2.22a9,9,0,0,0,2.43-.38l-3.92,14c2.12-5,4-6.83,6.35-6.83,1.59,0,2.15.82,2.15,2a7,7,0,0,1-.39,2l-2.58,7.8a3.11,3.11,0,0,0-.22,1,.58.58,0,0,0,.65.65c.66,0,1.3-.59,2-2.73l.35-1h.51Z"/><path class="cls-2" d="M139.86,89.49a11.54,11.54,0,0,0-.3,2.58c0,1.81.72,2.57,1.84,2.57,1.29,0,2.75-.68,4.12-2.67l.43.21c-1,1.79-3.1,3.59-5.37,3.59s-3.52-1.29-3.52-3.77c0-3.87,3.73-10.7,8.8-10.7a1.76,1.76,0,0,1,2,1.76C147.84,86.31,142.94,88.45,139.86,89.49ZM140,89a13.2,13.2,0,0,0,3.64-1.72A5.31,5.31,0,0,0,145.7,83c0-1-.16-1.2-.43-1.2C143.52,81.8,141,85.15,140,89Z"/><path class="cls-2" d="M167.06,82.8a1.93,1.93,0,0,1-1.88,1.93,1,1,0,0,1-1.06-1,1.8,1.8,0,0,1,1.2-1.71.39.39,0,0,0-.3-.1c-1.94,0-4.33,4.62-6.3,11.2l-.56,2.23h-2.32L159,83.93a3.91,3.91,0,0,0,.2-1c0-.43-.2-.61-.56-.61-.78,0-1.39.76-2.09,2.72l-.35,1h-.51l.68-1.94c.77-2.24,2.12-2.75,3.22-2.75a1.36,1.36,0,0,1,1.54,1.55,10.19,10.19,0,0,1-.38,2.18l-.86,3.39c1.93-5.21,3.47-7.12,5.55-7.12A1.45,1.45,0,0,1,167.06,82.8Z"/><path class="cls-2" d="M174,81.29c2.22,0,3.65,1.36,3.65,4.18,0,3.92-2.71,10.29-7.7,10.29-2.22,0-3.66-1.37-3.66-4.2C166.33,87.64,169.05,81.29,174,81.29Zm-5.42,11.62c0,1.59.51,2.32,1.53,2.32,2.88,0,5.25-6.31,5.25-11.08,0-1.63-.51-2.32-1.51-2.32C171,81.83,168.62,88.15,168.62,92.91Z"/><path class="cls-2" d="M187.06,81.29c2.22,0,3.65,1.36,3.65,4.18,0,3.92-2.71,10.29-7.7,10.29-2.22,0-3.66-1.37-3.66-4.2C179.34,87.64,182.07,81.29,187.06,81.29Zm-5.42,11.62c0,1.59.51,2.32,1.53,2.32,2.88,0,5.25-6.31,5.25-11.08,0-1.63-.51-2.32-1.51-2.32C184,81.83,181.64,88.15,181.64,92.91Z"/><path class="cls-2" d="M211.4,93c-.77,2.24-2.14,2.75-3.23,2.75a1.8,1.8,0,0,1-1.66-.73,1.69,1.69,0,0,1-.22-.91,7.31,7.31,0,0,1,.44-2.1l2.53-7.64a5.05,5.05,0,0,0,.27-1.41c0-.5-.17-.83-.59-.83-2.11,0-4.84,5.35-7.13,12.71l0-.13-.18.66h-2.41l3.34-11a4.72,4.72,0,0,0,.27-1.37c0-.51-.2-.87-.74-.87-2,0-4.84,5.08-6.65,11.53L195,95.38h-2.32l3.19-11.46a3.69,3.69,0,0,0,.2-1c0-.36-.13-.68-.56-.68-.78,0-1.39.76-2.09,2.72l-.35,1h-.51l.68-1.94c.77-2.24,2.12-2.75,3.22-2.75s1.55.7,1.55,1.6a8,8,0,0,1-.39,2.12l-.85,3.36c2.15-5.25,3.9-7.09,6.18-7.09,1.36,0,1.75.83,1.75,1.88a8.74,8.74,0,0,1-.35,2.15l-1,3.53c2.22-5.46,3.9-7.56,6.39-7.56,1.41,0,1.88.89,1.88,2a6.65,6.65,0,0,1-.38,2l-2.59,7.8a3.58,3.58,0,0,0-.2,1c0,.43.18.64.63.64.66,0,1.32-.59,2.06-2.73l.35-1h.5Z"/><path class="cls-2" d="M236.9,86.66c0,4-1.92,9.1-6.58,9.1a2.8,2.8,0,0,1-2.82-1.64,5.52,5.52,0,0,1-3.69,1.64c-2.46,0-3.31-1.47-3.31-3.05,0-3.32,4.13-7.3,7.68-10A7.1,7.1,0,0,1,225.57,84c-.66,0-1.07-.68-1.68-.68s-.91.4-1.32,1.66l-.31,1h-.51l.61-1.94c.69-2.11,1.55-2.72,2.48-2.72s1.42,1,2.46,1a3,3,0,0,0,2.14-.83l.37-.51.56.27c-3.68,3.09-7.26,7-7.26,11.29,0,1.79.56,2.4,1.47,2.4a4.3,4.3,0,0,0,2.76-1.28,5.6,5.6,0,0,1-.2-1.58c0-3.16,2.42-6.3,3.9-6.3.77,0,.93,1.07.93,1.86a7.24,7.24,0,0,1-3.06,5.55A2.25,2.25,0,0,0,231,95c3.64,0,5.27-4.94,5.27-8.28a7,7,0,0,0-.2-1.76c-1-.18-2.54-.9-2.54-2.37a1.13,1.13,0,0,1,1.12-1.28c1,0,1.66,1.36,2,3.14A10.68,10.68,0,0,1,236.9,86.66ZM228.58,91a7.28,7.28,0,0,0,.18,1.71,7,7,0,0,0,2.59-5.1c0-.72-.1-1.25-.51-1.25C230,86.39,228.58,88.71,228.58,91Z"/><path class="cls-2" d="M251.09,91l-.66,2c-.78,2.14-2,2.78-3.08,2.78a1.69,1.69,0,0,1-1.47-.7,1.85,1.85,0,0,1-.22-.94,8.84,8.84,0,0,1,.42-2.12l.48-1.94c-1.76,4.12-3.52,5.71-5.37,5.71-1.68,0-2.52-1.34-2.52-3.23,0-4.28,3.85-11.24,7.89-11.24.94,0,1.6.72,1.71,2l.42-1.63a9.08,9.08,0,0,0,2.46-.36l-3.34,11.8a3.94,3.94,0,0,0-.2,1c0,.36.14.66.6.66.69,0,1.38-.66,2-2.73l.33-1Zm-3.68-4.38.5-1.94c0-.21,0-.4,0-.59,0-1.41-.52-2.32-1.47-2.32-2.35,0-5.44,6.32-5.44,11,0,1.53.34,2.06.93,2.06C243.45,94.9,246.08,91.1,247.41,86.65Z"/><path class="cls-2" d="M255.19,95.23a2.53,2.53,0,0,0,2.7-2.75,5.72,5.72,0,0,0-1.4-3.53,6.44,6.44,0,0,1-1.73-3.87,3.87,3.87,0,0,1,4.15-3.78c1.51,0,3.26.42,3.26,2.32A1.31,1.31,0,0,1,260.92,85a1.06,1.06,0,0,1-1.07-1.12,2.86,2.86,0,0,1,.76-1.79,2.62,2.62,0,0,0-1.34-.31,2.28,2.28,0,0,0-2.32,2.53c0,1.23.56,1.79,1.6,3.34a7.34,7.34,0,0,1,1.58,3.92,4.33,4.33,0,0,1-4.59,4.2c-1.85,0-3.61-.73-3.61-2.65a1.07,1.07,0,0,1,1-1.2c.86,0,1.17.82,1.17,1.68A6.5,6.5,0,0,1,254,95,2.36,2.36,0,0,0,255.19,95.23Z"/><path class="cls-2" d="M272.1,95.23a2.53,2.53,0,0,0,2.7-2.75,5.72,5.72,0,0,0-1.39-3.53,6.44,6.44,0,0,1-1.73-3.87,3.87,3.87,0,0,1,4.15-3.78c1.51,0,3.26.42,3.26,2.32A1.31,1.31,0,0,1,277.84,85a1.06,1.06,0,0,1-1.07-1.12,2.86,2.86,0,0,1,.76-1.79,2.62,2.62,0,0,0-1.34-.31,2.28,2.28,0,0,0-2.32,2.53c0,1.23.56,1.79,1.6,3.34A7.34,7.34,0,0,1,277,91.56a4.33,4.33,0,0,1-4.59,4.2c-1.85,0-3.61-.73-3.61-2.65a1.07,1.07,0,0,1,1-1.2c.86,0,1.17.82,1.17,1.68a6.5,6.5,0,0,1-.18,1.38A2.36,2.36,0,0,0,272.1,95.23Z"/><path class="cls-2" d="M287.74,81.29c2.22,0,3.65,1.36,3.65,4.18,0,3.92-2.71,10.29-7.7,10.29-2.22,0-3.66-1.37-3.66-4.2C280,87.64,282.75,81.29,287.74,81.29Zm-5.42,11.62c0,1.59.51,2.32,1.53,2.32,2.88,0,5.25-6.31,5.25-11.08,0-1.63-.51-2.32-1.51-2.32C284.72,81.83,282.32,88.15,282.32,92.91Z"/><path class="cls-2" d="M302.36,89.49a11.54,11.54,0,0,0-.3,2.58c0,1.81.72,2.57,1.84,2.57,1.29,0,2.75-.68,4.12-2.67l.43.21c-1,1.79-3.1,3.59-5.37,3.59s-3.52-1.29-3.52-3.77c0-3.87,3.73-10.7,8.8-10.7a1.76,1.76,0,0,1,2,1.76C310.34,86.31,305.44,88.45,302.36,89.49Zm.12-.51a13.2,13.2,0,0,0,3.64-1.72A5.31,5.31,0,0,0,308.2,83c0-1-.16-1.2-.43-1.2C306,81.8,303.47,85.15,302.48,89Z"/><path class="cls-2" d="M313.41,93.12a3.68,3.68,0,0,0-.17.94c0,.46.2.72.63.72.69,0,1.28-.69,2-2.73l.35-1h.51l-.66,2c-.7,2-1.85,2.75-3.21,2.75S311,95,311,94a7.53,7.53,0,0,1,.37-2l4.35-14.44a3,3,0,0,0,.13-.74c0-.69-.48-1-1.81-1l.18-.56A10.38,10.38,0,0,0,319,74.16Z"/><path class="cls-2" d="M321.2,89.49a11.54,11.54,0,0,0-.3,2.58c0,1.81.72,2.57,1.84,2.57,1.29,0,2.75-.68,4.12-2.67l.43.21c-1,1.79-3.1,3.59-5.37,3.59S318.4,94.47,318.4,92c0-3.87,3.73-10.7,8.8-10.7a1.76,1.76,0,0,1,2,1.76C329.18,86.31,324.28,88.45,321.2,89.49Zm.12-.51A13.2,13.2,0,0,0,325,87.26,5.31,5.31,0,0,0,327,83c0-1-.16-1.2-.43-1.2C324.87,81.8,322.31,85.15,321.32,89Z"/><path class="cls-2" d="M343,79.77a1.6,1.6,0,0,1-1.49,1.55.72.72,0,0,1-.76-.78,1.56,1.56,0,0,1,.35-1,.21.21,0,0,0-.16-.05,1.56,1.56,0,0,0-.65.26,5.42,5.42,0,0,0-1.46,1.75,2.63,2.63,0,0,1,2,2.74,5.78,5.78,0,0,1-5.29,5.38c-1.58.89-3.17,1.58-3.17,2.28,0,.37.56.64,1.6.9l1.94.51c1.83.48,3,1,3,2.29,0,1.93-2.54,4.94-7.93,4.94-2.78,0-4-.82-4-1.94s1-2.48,4.55-3.87a1.5,1.5,0,0,1-1-1.4c0-1.06.61-2,4.11-3.68-2.16-.05-3.62-1-3.62-2.91a5.7,5.7,0,0,1,6-5.5,6.32,6.32,0,0,1,1.37.13,7.09,7.09,0,0,1,1.73-2,3.14,3.14,0,0,1,1.73-.59C342.53,78.83,343,79.1,343,79.77ZM331.93,94.9c-2.41,1.29-2.72,2.52-2.72,3.29,0,1.3,1.1,2,2.54,2,2.43,0,5.37-1.5,5.37-3.48,0-.48-.53-.56-1.6-.85Zm6.52-11.39c0-1-.35-1.73-1.58-1.73-3,0-3.57,4.85-3.57,5.71,0,1.28.61,1.73,1.6,1.73C337.89,89.22,338.45,85.55,338.45,83.51Z"/><path class="cls-2" d="M354.18,91l-.66,2c-.78,2.14-2,2.78-3.08,2.78a1.69,1.69,0,0,1-1.47-.7,1.85,1.85,0,0,1-.22-.94,8.84,8.84,0,0,1,.42-2.12l.48-1.94c-1.76,4.12-3.52,5.71-5.37,5.71-1.68,0-2.52-1.34-2.52-3.23,0-4.28,3.85-11.24,7.89-11.24.94,0,1.6.72,1.71,2l.42-1.63a9.08,9.08,0,0,0,2.46-.36l-3.34,11.8a3.94,3.94,0,0,0-.2,1c0,.36.14.66.6.66.69,0,1.38-.66,2-2.73l.33-1Zm-3.68-4.38.5-1.94c0-.21,0-.4,0-.59,0-1.41-.52-2.32-1.47-2.32-2.35,0-5.44,6.32-5.44,11,0,1.53.34,2.06.93,2.06C346.54,94.9,349.17,91.1,350.5,86.65Z"/><path class="cls-2" d="M369,93c-.77,2.24-2.14,2.75-3.23,2.75A1.82,1.82,0,0,1,364,95a1.67,1.67,0,0,1-.21-.87,6.88,6.88,0,0,1,.46-2.09l2.53-7.64a4.38,4.38,0,0,0,.27-1.32c0-.51-.2-.93-.86-.93-2.1,0-5.16,4.92-7,11.38l-.47,1.86h-2.32l3.19-11.46a3.72,3.72,0,0,0,.2-1c0-.37-.13-.65-.59-.65-.78,0-1.32.65-2.06,2.72l-.35,1h-.51L357,84c.77-2.24,2-2.75,3.17-2.75a1.38,1.38,0,0,1,1.58,1.58,9.4,9.4,0,0,1-.37,2.15l-.93,3.65c2.31-5.47,4.26-7.38,6.69-7.38,1.62,0,2.15.86,2.15,2a6.9,6.9,0,0,1-.39,2l-2.59,7.8a3.35,3.35,0,0,0-.21,1,.57.57,0,0,0,.64.65c.66,0,1.32-.59,2.06-2.73l.35-1h.5Z"/><path class="cls-2" d="M374.19,93.12a2.15,2.15,0,0,0-.09.6c0,.74.51,1.06,1.16,1.06s1.58-.46,2.37-2.67l.38-1h.51L378,92.74c-.78,2.32-2,3-3.66,3s-2.39-.86-2.39-2.22a5.79,5.79,0,0,1,.25-1.53L375,82.19h-2.4l.13-.54h2.43l1.16-4.05a8.13,8.13,0,0,0,2.4-.38l-1.26,4.43H381l-.08.54h-3.6Z"/><path class="cls-2" d="M379.44,99l-.13-.37c1.68-1,2.72-2.29,2.83-3.51a2.28,2.28,0,0,1-1.4.68.9.9,0,0,1-1-.94,2.73,2.73,0,0,1,2.45-2.48c.83,0,1.17.77,1.17,1.56C383.36,95.76,381.9,97.76,379.44,99Z"/><path class="cls-2" d="M405.7,93c-.77,2.24-2.14,2.75-3.23,2.75-1.37,0-1.88-.63-1.88-1.64A6.83,6.83,0,0,1,401,92l2.53-7.64a4.31,4.31,0,0,0,.29-1.33.8.8,0,0,0-.87-.91c-2,0-4.54,4-6.52,9.9l-1,3.35h-2.32l5.28-17.81a2.78,2.78,0,0,0,.13-.73c0-.7-.51-1-1.84-1l.16-.56a10.41,10.41,0,0,0,4.81-1.09l-3.87,13.23c2-4.45,3.81-6.1,6-6.1,1.62,0,2.15.87,2.15,2a6.75,6.75,0,0,1-.39,2L403,93.12a3.81,3.81,0,0,0-.2,1c0,.39.16.64.63.64.66,0,1.3-.59,2.06-2.73l.34-1h.51Z"/><path class="cls-2" d="M416,81.29c2.22,0,3.65,1.36,3.65,4.18,0,3.92-2.71,10.29-7.7,10.29-2.22,0-3.66-1.37-3.66-4.2C408.27,87.64,411,81.29,416,81.29Zm-5.42,11.62c0,1.59.51,2.32,1.53,2.32,2.88,0,5.25-6.31,5.25-11.08,0-1.63-.51-2.32-1.51-2.32C413,81.83,410.56,88.15,410.56,92.91Z"/><path class="cls-2" d="M440.32,93c-.77,2.24-2.14,2.75-3.23,2.75a1.8,1.8,0,0,1-1.66-.73,1.69,1.69,0,0,1-.22-.91,7.31,7.31,0,0,1,.44-2.1l2.53-7.64a5.05,5.05,0,0,0,.27-1.41c0-.5-.17-.83-.59-.83-2.11,0-4.84,5.35-7.13,12.71l0-.13-.18.66h-2.41l3.34-11a4.72,4.72,0,0,0,.27-1.37c0-.51-.2-.87-.74-.87-2,0-4.84,5.08-6.65,11.53L424,95.38h-2.32l3.19-11.46a3.69,3.69,0,0,0,.2-1c0-.36-.13-.68-.56-.68-.78,0-1.39.76-2.09,2.72L422,86h-.51L422.2,84c.77-2.24,2.12-2.75,3.22-2.75s1.55.7,1.55,1.6a8,8,0,0,1-.39,2.12l-.85,3.36c2.15-5.25,3.9-7.09,6.18-7.09,1.36,0,1.75.83,1.75,1.88a8.74,8.74,0,0,1-.35,2.15l-1,3.53c2.22-5.46,3.9-7.56,6.39-7.56,1.41,0,1.88.89,1.88,2a6.67,6.67,0,0,1-.38,2l-2.59,7.8a3.6,3.6,0,0,0-.2,1c0,.43.18.64.63.64.67,0,1.32-.59,2.06-2.73l.35-1h.5Z"/><path class="cls-2" d="M445.44,89.49a11.54,11.54,0,0,0-.3,2.58c0,1.81.72,2.57,1.84,2.57,1.29,0,2.75-.68,4.12-2.67l.43.21c-1,1.79-3.1,3.59-5.37,3.59s-3.52-1.29-3.52-3.77c0-3.87,3.73-10.7,8.8-10.7a1.76,1.76,0,0,1,2,1.76C453.42,86.31,448.52,88.45,445.44,89.49Zm.12-.51a13.2,13.2,0,0,0,3.64-1.72A5.31,5.31,0,0,0,451.29,83c0-1-.16-1.2-.43-1.2C449.11,81.8,446.55,85.15,445.56,89Z"/><path class="cls-2" d="M466,83.46c0,3.6-2.72,8.67-5.25,11.85a15.92,15.92,0,0,1-5.27,4.43,5.71,5.71,0,0,1-2.32.66c-.72,0-1.34-.38-1.34-1.09a1.3,1.3,0,0,1,1.45-1.2,3.7,3.7,0,0,1,2.22,1,14.61,14.61,0,0,0,4-3.19l-2-12c-.2-1.09-.4-1.47-.86-1.47s-.85.43-1.58,2.45l-.34,1h-.51l.67-1.94c.74-2.16,1.92-2.72,3.08-2.72s1.66.56,1.92,2.45l1.37,10a23.33,23.33,0,0,0,4-8.67c-.83-.44-2-1.29-2-2.46a1.27,1.27,0,0,1,1.36-1.36C465.57,81.29,466,82,466,83.46Z"/><path class="cls-2" d="M486,91l-.66,2c-.78,2.14-2,2.78-3.08,2.78a1.69,1.69,0,0,1-1.47-.7,1.85,1.85,0,0,1-.22-.94A8.86,8.86,0,0,1,481,92l.48-1.94c-1.76,4.12-3.52,5.71-5.37,5.71-1.68,0-2.52-1.34-2.52-3.23,0-4.28,3.85-11.24,7.89-11.24.94,0,1.6.72,1.71,2l.42-1.63a9.08,9.08,0,0,0,2.46-.36l-3.34,11.8a3.92,3.92,0,0,0-.2,1c0,.36.14.66.6.66.69,0,1.38-.66,2-2.73l.33-1Zm-3.68-4.38.5-1.94c0-.21,0-.4,0-.59,0-1.41-.52-2.32-1.47-2.32-2.35,0-5.44,6.32-5.44,11,0,1.53.34,2.06.93,2.06C478.38,94.9,481,91.1,482.34,86.65Z"/><path class="cls-2" d="M500.79,93c-.77,2.24-2.14,2.75-3.23,2.75a1.82,1.82,0,0,1-1.68-.78,1.67,1.67,0,0,1-.21-.87,6.88,6.88,0,0,1,.46-2.09l2.53-7.64a4.36,4.36,0,0,0,.27-1.32c0-.51-.2-.93-.86-.93-2.1,0-5.16,4.92-7,11.38l-.47,1.86h-2.32l3.19-11.46a3.72,3.72,0,0,0,.2-1c0-.37-.13-.65-.59-.65-.78,0-1.32.65-2.06,2.72l-.35,1h-.51l.68-1.94c.77-2.24,2-2.75,3.17-2.75a1.38,1.38,0,0,1,1.58,1.58,9.4,9.4,0,0,1-.37,2.15l-.93,3.65c2.31-5.47,4.26-7.38,6.69-7.38,1.62,0,2.15.86,2.15,2a6.91,6.91,0,0,1-.39,2l-2.59,7.8a3.35,3.35,0,0,0-.21,1,.57.57,0,0,0,.64.65c.67,0,1.32-.59,2.06-2.73l.35-1h.5Z"/><path class="cls-2" d="M515.91,91.06l-.63,2c-.67,2.16-2,2.75-3.09,2.75a1.5,1.5,0,0,1-1.68-1.67,9.13,9.13,0,0,1,.34-2.07l.35-1.34c-1.73,3.66-3.42,5.08-5.31,5.08-1.68,0-2.78-1.12-2.78-3.53,0-4.26,3.68-10.94,8.62-10.94a1.74,1.74,0,0,1,1.63,1.28l1.33-5a2.65,2.65,0,0,0,.12-.72c0-.7-.48-1-1.82-1l.17-.56a10.13,10.13,0,0,0,4.72-1.09l-5.23,19a3.44,3.44,0,0,0-.16.91c0,.43.16.74.64.74.69,0,1.25-.69,1.94-2.73l.33-1ZM512.19,87l1-3.7c-.23-1-.81-1.36-1.42-1.36-3.42,0-6.27,6.4-6.27,10.68,0,1.58.4,2.32,1.17,2.32C508.23,94.9,510.82,91.25,512.19,87Z"/><path class="cls-2" d="M526.81,95.23a2.53,2.53,0,0,0,2.7-2.75,5.72,5.72,0,0,0-1.39-3.53,6.44,6.44,0,0,1-1.73-3.87,3.87,3.87,0,0,1,4.15-3.78c1.51,0,3.26.42,3.26,2.32A1.31,1.31,0,0,1,532.55,85a1.06,1.06,0,0,1-1.07-1.12,2.86,2.86,0,0,1,.76-1.79,2.62,2.62,0,0,0-1.34-.31,2.28,2.28,0,0,0-2.32,2.53c0,1.23.56,1.79,1.6,3.34a7.34,7.34,0,0,1,1.58,3.92,4.33,4.33,0,0,1-4.59,4.2c-1.85,0-3.61-.73-3.61-2.65a1.07,1.07,0,0,1,1-1.2c.86,0,1.17.82,1.17,1.68a6.5,6.5,0,0,1-.18,1.38A2.36,2.36,0,0,0,526.81,95.23Z"/><path class="cls-2" d="M547.88,85c0,4-2.83,10.72-7.82,10.72a2.28,2.28,0,0,1-2.18-1.54l-1,3.51a2.42,2.42,0,0,0-.1.64c0,1,.91,1.29,2.27,1.29l-.17.56c-.72,0-2.12-.12-3.57-.12-1.12,0-2.4.09-3,.12l.16-.56c1.28,0,1.73-.4,2.09-1.66l5-17.79a18.24,18.24,0,0,1-4.51,6l-.3-.34A20.49,20.49,0,0,0,540.21,78l.1-.39a8.38,8.38,0,0,0,2.43-.38L539.95,87c1.71-4,3.31-5.67,5.15-5.67C546.78,81.29,547.88,82.52,547.88,85Zm-2.31-.59c0-1.56-.47-2.32-1.25-2.32-1.55,0-4,4.11-5.55,9l-.69,2.44c.47,1.19,1.1,1.6,2,1.6C543,95.15,545.57,88.47,545.57,84.46Z"/><path class="cls-2" d="M561.53,91l-.66,2c-.78,2.14-2,2.78-3.08,2.78a1.69,1.69,0,0,1-1.47-.7,1.85,1.85,0,0,1-.22-.94,8.86,8.86,0,0,1,.42-2.12l.48-1.94c-1.76,4.12-3.52,5.71-5.37,5.71-1.68,0-2.52-1.34-2.52-3.23,0-4.28,3.85-11.24,7.89-11.24.94,0,1.6.72,1.71,2l.42-1.63a9.08,9.08,0,0,0,2.46-.36l-3.34,11.8a3.92,3.92,0,0,0-.2,1c0,.36.14.66.6.66.69,0,1.38-.66,2-2.73l.33-1Zm-3.68-4.38.5-1.94c0-.21,0-.4,0-.59,0-1.41-.52-2.32-1.47-2.32-2.35,0-5.44,6.32-5.44,11,0,1.53.34,2.06.93,2.06C553.89,94.9,556.53,91.1,557.86,86.65Z"/><path class="cls-2" d="M565.79,92.07c0,1.81.76,2.57,1.88,2.57,1.28,0,2.63-.68,4-2.67l.53.21c-1,1.79-3.1,3.59-5.37,3.59s-3.52-1.32-3.52-3.92c0-4.12,3.06-10.55,8.06-10.55,1.58,0,2.89.85,2.89,2.27a2.05,2.05,0,0,1-1.9,2.14,1,1,0,0,1-1.1-1,2.25,2.25,0,0,1,2-2,2,2,0,0,0-1.81-.82C568.74,81.83,565.79,86.65,565.79,92.07Z"/><path class="cls-2" d="M578.59,83.93a3.21,3.21,0,0,0,.2-1c0-.44-.2-.68-.57-.68-.83,0-1.42.89-2.11,2.72l-.38,1h-.5l.69-1.94c.8-2.24,2.22-2.75,3.31-2.75,1.34,0,1.77.73,1.77,1.67a6.72,6.72,0,0,1-.44,2.06l-2.85,8.1a2.93,2.93,0,0,0-.21,1c0,.43.21.68.64.68.72,0,1.3-.67,2.09-2.73l.37-1h.51l-.69,2c-.74,2.07-2.06,2.75-3.29,2.75-1.39,0-1.86-.68-1.86-1.63a6.55,6.55,0,0,1,.47-2.11Zm2.78-8.83a1.32,1.32,0,0,1,1.36,1.39,2.1,2.1,0,0,1-2,2,1.31,1.31,0,0,1-1.34-1.37A2.11,2.11,0,0,1,581.36,75.1Z"/><path class="cls-2" d="M590.69,81.29c2.22,0,3.65,1.36,3.65,4.18,0,3.92-2.71,10.29-7.7,10.29-2.22,0-3.66-1.37-3.66-4.2C583,87.64,585.7,81.29,590.69,81.29Zm-5.42,11.62c0,1.59.51,2.32,1.53,2.32,2.88,0,5.25-6.31,5.25-11.08,0-1.63-.51-2.32-1.51-2.32C587.67,81.83,585.27,88.15,585.27,92.91Z"/><path class="cls-2" d="M609.27,91.06l-.66,2c-.78,2.24-2.14,2.75-3.23,2.75A1.51,1.51,0,0,1,604,95a1.88,1.88,0,0,1-.16-.82,9.64,9.64,0,0,1,.38-2.19l.85-3.35c-2.14,5.2-4,7.09-6.24,7.09-1.6,0-2.26-.81-2.26-2.06a6.4,6.4,0,0,1,.39-2l2.58-7.8a3.52,3.52,0,0,0,.21-1c0-.43-.2-.65-.63-.65-.68,0-1.32.59-2.06,2.72l-.35,1h-.51l.68-1.94c.77-2.24,2.13-2.75,3.22-2.75,1.42,0,1.88.69,1.88,1.65a7.28,7.28,0,0,1-.43,2.07L599,92.66a4.35,4.35,0,0,0-.26,1.33c0,.63.29.91.85.91,2.06,0,5-4.8,6.83-11.65l.4-1.59a8.45,8.45,0,0,0,2.44-.36L606,93.12a4.08,4.08,0,0,0-.2,1c0,.38.16.61.57.61.77,0,1.38-.74,2.07-2.73l.35-1Z"/><path class="cls-2" d="M613.37,95.23a2.53,2.53,0,0,0,2.7-2.75,5.72,5.72,0,0,0-1.4-3.53,6.44,6.44,0,0,1-1.73-3.87,3.87,3.87,0,0,1,4.15-3.78c1.51,0,3.26.42,3.26,2.32A1.31,1.31,0,0,1,619.1,85,1.06,1.06,0,0,1,618,83.87a2.86,2.86,0,0,1,.76-1.79,2.62,2.62,0,0,0-1.34-.31,2.28,2.28,0,0,0-2.32,2.53c0,1.23.56,1.79,1.6,3.34a7.34,7.34,0,0,1,1.58,3.92,4.33,4.33,0,0,1-4.59,4.2c-1.85,0-3.61-.73-3.61-2.65a1.07,1.07,0,0,1,1-1.2c.86,0,1.17.82,1.17,1.68a6.5,6.5,0,0,1-.18,1.38A2.36,2.36,0,0,0,613.37,95.23Z"/><path class="cls-2" d="M622.68,92.35A1.32,1.32,0,0,1,624,93.74a2.1,2.1,0,0,1-2,2,1.31,1.31,0,0,1-1.34-1.37A2.11,2.11,0,0,1,622.68,92.35Z"/><path class="cls-2" d="M248.52,124.58a5.64,5.64,0,0,0-.22,1.29c0,.8.51,1,1.8,1l-.1.53c-.83-.05-2.16-.08-3.39-.08-1.39,0-2.62,0-3.4.08l.14-.53c1.76-.08,2.19-.35,2.7-2.29l3.52-13.25a5.45,5.45,0,0,0,.22-1.28c0-.81-.52-1-1.8-1l.13-.54c.73.05,2,.08,3.39.08s2.57,0,3.42-.08l-.13.54c-1.84.08-2.24.35-2.75,2.29Z"/><path class="cls-2" d="M276.69,118.69c0,4-1.92,9.1-6.58,9.1a2.8,2.8,0,0,1-2.82-1.64,5.52,5.52,0,0,1-3.69,1.64c-2.46,0-3.31-1.47-3.31-3.05,0-3.32,4.13-7.3,7.68-10a7.1,7.1,0,0,1-2.61,1.25c-.66,0-1.07-.68-1.68-.68s-.91.4-1.32,1.65l-.31,1h-.51l.61-1.94c.69-2.11,1.55-2.72,2.48-2.72s1.42,1,2.46,1a3,3,0,0,0,2.14-.83l.37-.51.56.27c-3.68,3.09-7.26,7-7.26,11.29,0,1.79.56,2.4,1.47,2.4a4.3,4.3,0,0,0,2.76-1.28,5.62,5.62,0,0,1-.2-1.58c0-3.15,2.42-6.3,3.9-6.3.77,0,.93,1.07.93,1.86a7.24,7.24,0,0,1-3.06,5.55,2.24,2.24,0,0,0,2.14,1.76c3.64,0,5.27-4.94,5.27-8.28a7,7,0,0,0-.2-1.76c-1-.18-2.54-.9-2.54-2.37a1.13,1.13,0,0,1,1.12-1.28c1,0,1.66,1.36,2,3.14A10.68,10.68,0,0,1,276.69,118.69Zm-8.32,4.37a7.28,7.28,0,0,0,.18,1.71,7,7,0,0,0,2.59-5.1c0-.72-.1-1.25-.51-1.25C269.77,118.41,268.37,120.73,268.37,123.06Z"/><path class="cls-2" d="M282.44,115.95a3.22,3.22,0,0,0,.2-1c0-.44-.2-.68-.57-.68-.83,0-1.42.89-2.11,2.72l-.38,1h-.5l.69-1.94c.8-2.24,2.22-2.75,3.31-2.75,1.34,0,1.77.73,1.77,1.67a6.72,6.72,0,0,1-.44,2.06l-2.85,8.1a2.93,2.93,0,0,0-.21,1c0,.43.21.68.64.68.72,0,1.3-.66,2.09-2.72l.37-1h.51l-.69,2c-.74,2.07-2.06,2.75-3.29,2.75-1.39,0-1.86-.68-1.86-1.63a6.55,6.55,0,0,1,.47-2.11Zm2.78-8.83a1.32,1.32,0,0,1,1.36,1.39,2.1,2.1,0,0,1-2,2,1.32,1.32,0,0,1-1.34-1.37A2.11,2.11,0,0,1,285.22,107.12Z"/><path class="cls-2" d="M289,125.14a3.68,3.68,0,0,0-.17.94c0,.46.2.72.63.72.69,0,1.28-.69,2-2.72l.35-1h.51l-.66,2c-.7,2-1.85,2.75-3.21,2.75s-1.84-.76-1.84-1.73a7.52,7.52,0,0,1,.37-2l4.35-14.44a3,3,0,0,0,.13-.74c0-.69-.48-1-1.81-1l.18-.56a10.38,10.38,0,0,0,4.76-1.1Z"/><path class="cls-2" d="M296.39,125.14a3.68,3.68,0,0,0-.17.94c0,.46.2.72.63.72.69,0,1.28-.69,2-2.72l.35-1h.51l-.66,2c-.7,2-1.85,2.75-3.21,2.75S294,127,294,126.05a7.52,7.52,0,0,1,.37-2l4.35-14.44a3,3,0,0,0,.13-.74c0-.69-.48-1-1.81-1l.18-.56a10.38,10.38,0,0,0,4.76-1.1Z"/><path class="cls-2" d="M310.6,127.25a2.53,2.53,0,0,0,2.7-2.75,5.72,5.72,0,0,0-1.39-3.53,6.44,6.44,0,0,1-1.73-3.87,3.87,3.87,0,0,1,4.15-3.78c1.51,0,3.26.42,3.26,2.32a1.31,1.31,0,0,1-1.24,1.38,1.06,1.06,0,0,1-1.07-1.12,2.87,2.87,0,0,1,.76-1.79,2.62,2.62,0,0,0-1.34-.31,2.28,2.28,0,0,0-2.32,2.53c0,1.23.56,1.79,1.6,3.34a7.34,7.34,0,0,1,1.58,3.92,4.33,4.33,0,0,1-4.59,4.2c-1.85,0-3.61-.73-3.61-2.65a1.07,1.07,0,0,1,1-1.2c.86,0,1.17.82,1.17,1.68a6.48,6.48,0,0,1-.18,1.38A2.35,2.35,0,0,0,310.6,127.25Z"/><path class="cls-2" d="M321.2,125.14a2.15,2.15,0,0,0-.09.6c0,.74.51,1.06,1.16,1.06s1.58-.46,2.37-2.67l.38-1h.51l-.56,1.68c-.78,2.32-2,3-3.66,3s-2.39-.86-2.39-2.22a5.78,5.78,0,0,1,.25-1.53l2.83-9.83h-2.4l.13-.54h2.43l1.16-4.05a8.13,8.13,0,0,0,2.4-.38l-1.26,4.43H328l-.08.54h-3.6Z"/><path class="cls-2" d="M339.59,123.06l-.66,2c-.78,2.14-2,2.78-3.08,2.78a1.69,1.69,0,0,1-1.47-.7,1.85,1.85,0,0,1-.22-.94,8.85,8.85,0,0,1,.42-2.12l.48-1.94c-1.76,4.12-3.52,5.71-5.37,5.71-1.68,0-2.52-1.34-2.52-3.23,0-4.28,3.85-11.24,7.89-11.24.94,0,1.6.72,1.71,2l.42-1.63a9.17,9.17,0,0,0,2.46-.36l-3.34,11.8a3.91,3.91,0,0,0-.2,1c0,.36.14.66.6.66.69,0,1.38-.66,2-2.73l.33-1Zm-3.68-4.38.5-1.94c0-.21,0-.4,0-.59,0-1.41-.52-2.32-1.47-2.32-2.35,0-5.44,6.32-5.44,11,0,1.53.34,2.06.93,2.06C331.95,126.93,334.58,123.12,335.91,118.68Z"/><path class="cls-2" d="M353.11,115.48c0,3.6-2.72,8.67-5.25,11.85a15.92,15.92,0,0,1-5.27,4.43,5.71,5.71,0,0,1-2.32.66c-.72,0-1.34-.38-1.34-1.09a1.3,1.3,0,0,1,1.45-1.2,3.7,3.7,0,0,1,2.22,1,14.61,14.61,0,0,0,4-3.19l-2-12c-.2-1.09-.4-1.47-.86-1.47s-.85.43-1.58,2.45l-.34,1h-.51L342,116c.74-2.16,1.92-2.72,3.08-2.72s1.66.56,1.92,2.45l1.37,10a23.33,23.33,0,0,0,4-8.67c-.83-.44-2-1.29-2-2.46a1.27,1.27,0,0,1,1.36-1.36C352.68,113.32,353.11,114.06,353.11,115.48Z"/><path class="cls-2" d="M372.78,125c-.77,2.24-2.14,2.75-3.23,2.75-1.37,0-1.88-.63-1.88-1.64a6.81,6.81,0,0,1,.44-2.1l2.53-7.64a4.31,4.31,0,0,0,.29-1.33.8.8,0,0,0-.87-.91c-2,0-4.54,4-6.52,9.9l-1,3.35h-2.32l5.28-17.81a2.78,2.78,0,0,0,.13-.73c0-.7-.51-1-1.84-1l.16-.56a10.41,10.41,0,0,0,4.81-1.1l-3.87,13.23c2-4.45,3.81-6.1,6-6.1,1.62,0,2.15.87,2.15,2a6.77,6.77,0,0,1-.39,2l-2.59,7.8a3.83,3.83,0,0,0-.2,1c0,.39.16.64.63.64.66,0,1.3-.59,2.06-2.72l.34-1h.51Z"/><path class="cls-2" d="M377.91,121.52a11.54,11.54,0,0,0-.3,2.58c0,1.81.72,2.57,1.84,2.57,1.29,0,2.75-.68,4.12-2.67l.43.21c-1,1.79-3.1,3.59-5.37,3.59s-3.52-1.29-3.52-3.77c0-3.87,3.73-10.7,8.8-10.7a1.76,1.76,0,0,1,2,1.76C385.89,118.34,381,120.47,377.91,121.52ZM378,121a13.19,13.19,0,0,0,3.64-1.72,5.31,5.31,0,0,0,2.09-4.26c0-1-.16-1.2-.43-1.2C381.57,113.82,379,117.18,378,121Z"/><path class="cls-2" d="M398.36,114.83a1.93,1.93,0,0,1-1.88,1.93,1,1,0,0,1-1.06-1,1.79,1.79,0,0,1,1.2-1.71.39.39,0,0,0-.3-.1c-1.94,0-4.33,4.62-6.3,11.2l-.56,2.23h-2.32l3.19-11.46a3.89,3.89,0,0,0,.2-1c0-.43-.2-.61-.56-.61-.78,0-1.39.76-2.09,2.72l-.35,1H387l.68-1.94c.77-2.24,2.12-2.75,3.22-2.75a1.36,1.36,0,0,1,1.54,1.55,10.17,10.17,0,0,1-.38,2.18l-.86,3.39c1.93-5.21,3.47-7.12,5.55-7.12A1.45,1.45,0,0,1,398.36,114.83Z"/><path class="cls-2" d="M400.19,121.52a11.54,11.54,0,0,0-.3,2.58c0,1.81.72,2.57,1.84,2.57,1.29,0,2.75-.68,4.12-2.67l.43.21c-1,1.79-3.1,3.59-5.37,3.59s-3.52-1.29-3.52-3.77c0-3.87,3.73-10.7,8.8-10.7a1.76,1.76,0,0,1,2,1.76C408.17,118.34,403.27,120.47,400.19,121.52Zm.12-.51a13.19,13.19,0,0,0,3.64-1.72A5.31,5.31,0,0,0,406,115c0-1-.16-1.2-.43-1.2C403.86,113.82,401.3,117.18,400.31,121Z"/><path class="cls-2" d="M427.93,123.06l-.66,2c-.78,2.14-2,2.78-3.08,2.78a1.69,1.69,0,0,1-1.47-.7,1.85,1.85,0,0,1-.22-.94,8.82,8.82,0,0,1,.42-2.12l.48-1.94c-1.76,4.12-3.52,5.71-5.37,5.71-1.68,0-2.52-1.34-2.52-3.23,0-4.28,3.85-11.24,7.89-11.24.94,0,1.6.72,1.71,2l.42-1.63a9.17,9.17,0,0,0,2.46-.36l-3.34,11.8a3.93,3.93,0,0,0-.2,1c0,.36.14.66.6.66.69,0,1.38-.66,2-2.73l.33-1Zm-3.68-4.38.5-1.94c0-.21,0-.4,0-.59,0-1.41-.52-2.32-1.47-2.32-2.35,0-5.44,6.32-5.44,11,0,1.53.34,2.06.93,2.06C420.29,126.93,422.92,123.12,424.25,118.68Z"/><path class="cls-2" d="M442.68,111.79a1.6,1.6,0,0,1-1.49,1.55.72.72,0,0,1-.76-.78,1.57,1.57,0,0,1,.35-1,.21.21,0,0,0-.16-.05,1.58,1.58,0,0,0-.65.26,5.44,5.44,0,0,0-1.46,1.75,2.63,2.63,0,0,1,2,2.74,5.78,5.78,0,0,1-5.29,5.38c-1.58.89-3.17,1.58-3.17,2.28,0,.36.56.64,1.6.9l1.94.51c1.83.48,3,1,3,2.29,0,1.93-2.54,4.94-7.93,4.94-2.78,0-4-.82-4-1.94s1-2.48,4.55-3.87a1.5,1.5,0,0,1-1-1.39c0-1.06.61-2,4.11-3.68-2.16-.05-3.62-1-3.62-2.91a5.7,5.7,0,0,1,6-5.5,6.39,6.39,0,0,1,1.37.13,7.08,7.08,0,0,1,1.73-2,3.14,3.14,0,0,1,1.73-.59C442.22,110.85,442.68,111.13,442.68,111.79Zm-11.06,15.14c-2.41,1.29-2.72,2.52-2.72,3.29,0,1.3,1.1,2,2.54,2,2.43,0,5.37-1.5,5.37-3.48,0-.48-.53-.56-1.6-.85Zm6.52-11.39c0-1-.35-1.73-1.58-1.73-3,0-3.57,4.85-3.57,5.71,0,1.28.61,1.73,1.6,1.73C437.58,121.24,438.14,117.58,438.14,115.53Z"/><path class="cls-2" d="M453.87,123.06l-.66,2c-.78,2.14-2,2.78-3.08,2.78a1.69,1.69,0,0,1-1.47-.7,1.85,1.85,0,0,1-.22-.94,8.82,8.82,0,0,1,.42-2.12l.48-1.94c-1.76,4.12-3.52,5.71-5.37,5.71-1.68,0-2.52-1.34-2.52-3.23,0-4.28,3.85-11.24,7.89-11.24.94,0,1.6.72,1.71,2l.42-1.63a9.17,9.17,0,0,0,2.46-.36l-3.34,11.8a3.93,3.93,0,0,0-.2,1c0,.36.14.66.6.66.69,0,1.38-.66,2-2.73l.33-1Zm-3.68-4.38.5-1.94c0-.21,0-.4,0-.59,0-1.41-.52-2.32-1.47-2.32-2.35,0-5.44,6.32-5.44,11,0,1.53.34,2.06.93,2.06C446.23,126.93,448.87,123.12,450.2,118.68Z"/><path class="cls-2" d="M459.4,115.95a3.2,3.2,0,0,0,.2-1c0-.44-.2-.68-.57-.68-.83,0-1.42.89-2.11,2.72l-.38,1H456l.69-1.94c.8-2.24,2.22-2.75,3.31-2.75,1.34,0,1.77.73,1.77,1.67a6.72,6.72,0,0,1-.44,2.06l-2.85,8.1a2.93,2.93,0,0,0-.21,1c0,.43.21.68.64.68.72,0,1.3-.66,2.09-2.72l.37-1h.51l-.69,2c-.74,2.07-2.06,2.75-3.29,2.75-1.39,0-1.86-.68-1.86-1.63a6.55,6.55,0,0,1,.47-2.11Zm2.78-8.83a1.32,1.32,0,0,1,1.36,1.39,2.1,2.1,0,0,1-2,2,1.32,1.32,0,0,1-1.34-1.37A2.11,2.11,0,0,1,462.17,107.12Z"/><path class="cls-2" d="M476.7,125c-.77,2.24-2.14,2.75-3.23,2.75a1.82,1.82,0,0,1-1.68-.78,1.66,1.66,0,0,1-.21-.87A6.88,6.88,0,0,1,472,124l2.53-7.64a4.34,4.34,0,0,0,.27-1.32c0-.51-.2-.93-.86-.93-2.1,0-5.16,4.91-7,11.38l-.47,1.86h-2.32l3.19-11.46a3.7,3.7,0,0,0,.2-1c0-.36-.13-.65-.59-.65-.78,0-1.32.65-2.06,2.72l-.35,1H464l.68-1.94c.77-2.24,2-2.75,3.17-2.75a1.38,1.38,0,0,1,1.58,1.58,9.4,9.4,0,0,1-.37,2.15l-.93,3.65c2.31-5.48,4.26-7.38,6.69-7.38,1.62,0,2.15.86,2.15,2a6.91,6.91,0,0,1-.39,2l-2.59,7.8a3.35,3.35,0,0,0-.21,1,.57.57,0,0,0,.64.65c.67,0,1.32-.59,2.06-2.72l.35-1h.5Z"/><path class="cls-2" d="M480.87,124.37a1.32,1.32,0,0,1,1.36,1.39,2.1,2.1,0,0,1-2,2,1.32,1.32,0,0,1-1.34-1.37A2.11,2.11,0,0,1,480.87,124.37Zm.35-2.28c1.46-5.66,2-11.45,2.85-14.52a1.26,1.26,0,0,1,1.2-1c.85,0,1.23.48,1.23,1.08a1.84,1.84,0,0,1-.1.57c-.81,2.84-3.23,8.3-4.71,14Z"/><path class="cls-2" d="M489.09,115l-.14-.37c1.68-1,2.72-2.29,2.84-3.51a2.27,2.27,0,0,1-1.39.68c-.48,0-.74-.38-.74-.94a2.6,2.6,0,0,1,2.19-2.48c.82,0,1.17.61,1.17,1.56C493,111.79,491.54,113.79,489.09,115Zm4.43,0-.14-.37c1.68-1,2.72-2.29,2.84-3.51a2.27,2.27,0,0,1-1.4.68c-.48,0-.74-.38-.74-.94a2.6,2.6,0,0,1,2.19-2.48c.82,0,1.17.61,1.17,1.56C497.45,111.79,496,113.79,493.53,115Z"/><path class="cls-2" d="M268,241.47q0,1.45-5.22,17.14t-5.22,21a12.85,12.85,0,0,0,.14,1.81,13.51,13.51,0,0,1,.14,1.88q0,.51-.83.8a2.1,2.1,0,0,1-1.27.14Q254,283.95,254,280a43.74,43.74,0,0,1,2.68-13.48q2.46-6.59,5-13.19,2.68-7.18,2.68-10.58,0-2.54-3.62-2.54-4.71,0-12.83,7.68-11.38,10.95-22.69,22-.73.65-7.61,8.92-6,7.25-6.89,7.25c-.34,0-.54,0-.62-.14a.65.65,0,0,1,0-.51,7.92,7.92,0,0,0,.07-.8q0-.87,7.54-10.37,8.48-10.58,9.42-12.11Q234,251.11,234,248.21a3,3,0,0,0-.69-1.88,2,2,0,0,0-1.56-.87q-4.78,0-16.89,10.29a160.92,160.92,0,0,0-19.64,19.72Q186,286.7,184.73,286.7c-.19,0-.29-.17-.29-.51q0-1.16,2.86-4.57t5.76-6.81a153.3,153.3,0,0,0,12.18-17.25q6.23-10.44,6.23-15.37a7.17,7.17,0,0,0-2.72-5.65,9.67,9.67,0,0,0-6.49-2.32,23,23,0,0,0-11.89,3.41,38.43,38.43,0,0,0-8.19,6.74q-2.39,2.54-4.71,5.07l-.8-.51q3-3.48,6-7a40.29,40.29,0,0,1,8.84-7.32A24.06,24.06,0,0,1,204,231.18a12.17,12.17,0,0,1,7.9,2.46,8,8,0,0,1,3,6.52,22.82,22.82,0,0,1-1.16,7.76A73.23,73.23,0,0,1,207,260.17q11.89-10.73,18-14.5,4.78-3,8.55-3a4.57,4.57,0,0,1,3.26,1.16,4,4,0,0,1,1.23,3q0,3.55-8.12,16.09,16.31-15.95,21.17-19.93,7.83-6.38,13.19-6.38Q268,236.69,268,241.47Z"/><path class="cls-2" d="M296.07,274.52a1,1,0,0,1-.29.73q-7.1,5.94-9.93,7.83-7.18,4.78-12.61,4.78a3.72,3.72,0,0,1-2.65-1.16,3.56,3.56,0,0,1-1.2-2.61q0-1.31,1.88-3.55,1.74-1.81,3.41-3.7a19.39,19.39,0,0,0-2.94.25,17.71,17.71,0,0,1-2.57.25H269q-7.47,6.31-12.32,8.41c-.77,0-1.16-.12-1.16-.36a2,2,0,0,1,.65-1.23q3.84-1.52,11.53-7.32a1.46,1.46,0,0,1-.51-1q0-1.38,2.28-3.81t3.73-2.43q1.23,0,1.23.91,0,1.62-2.17,3.65a24.85,24.85,0,0,1,3.72-.58q2,0,2,1.45t-2.86,4.17q-2.86,2.65-2.86,4.09a2.43,2.43,0,0,0,.76,1.78,2.5,2.5,0,0,0,1.84.76q4,0,11.2-4.71,1.81-1.16,9.32-6.89a.48.48,0,0,1,.43-.07A.34.34,0,0,1,296.07,274.52Z"/><path class="cls-2" d="M316.58,274.59a1,1,0,0,1-.29.72q-7.83,6.52-9.5,7.61a27.62,27.62,0,0,1-15,4.49,7.29,7.29,0,0,1-4-1,21.11,21.11,0,0,1-2.39-2.1,1.62,1.62,0,0,1,.14-.72,32.41,32.41,0,0,1-4.28,2.17c-.77,0-1.16-.12-1.16-.36a2,2,0,0,1,.65-1.23,70.73,70.73,0,0,0,13.34-8.7.56.56,0,0,0,.07-.22,6.17,6.17,0,0,1,4.06-1.6q3.26,0,3.26,3a8.36,8.36,0,0,1-2,4.68,12.72,12.72,0,0,1-3.62,3.59q4.13,0,10.95-4.28a102.23,102.23,0,0,0,9.06-6.38.48.48,0,0,1,.44-.07A.34.34,0,0,1,316.58,274.59Zm-18.27,3a1.53,1.53,0,0,0-1.74-1.72,4.46,4.46,0,0,0-1.3.14,99.68,99.68,0,0,1-8.77,6.9,1.93,1.93,0,0,1,.58.07,8.44,8.44,0,0,0,4,1.58,8.2,8.2,0,0,0,7.25-7Z"/><path class="cls-2" d="M320.93,284.09q0,2.32-3.12,2.32-2.9,0-2.9-2.32t3-2.39a3.49,3.49,0,0,1,2.1.69A2.05,2.05,0,0,1,320.93,284.09Z"/><path class="cls-2" d="M428.5,241a13.87,13.87,0,0,1-5.65,2,12.16,12.16,0,0,1-3.33-.29l-32.33-8.26a33.82,33.82,0,0,0-8-1.23q-7.18,0-15,4.64-8.77,5.15-8.77,11.6,0,3.91,4.78,7.21a18.46,18.46,0,0,0,10.73,3.3q4.28,0,11-3.26c.53-.1.87.14,1,.73q-9.79,4.5-16,4.49t-10.18-3.08a10,10,0,0,1-3.81-8.16q0-7.32,9.13-13.27a36.55,36.55,0,0,1,20.37-5.94q7.68,0,21.67,3.62Q423.13,240,428.5,241Zm-20.73,2.25q-3,3.62-15,20.73,8.48-1,11.31-1,.72,0,.51.65a3.37,3.37,0,0,1-3.12,2.1l-11,1.23q-5.29,7.25-10.22,13.19-8.7,10.44-11.53,10.44a1.61,1.61,0,0,1-1.74-1.59q0-1.23.65-1.23a6.46,6.46,0,0,0,1.3-.07q3.19-1.09,7.76-5.76a161.22,161.22,0,0,0,12.11-14.68,47.12,47.12,0,0,0-5.8.58q-5.8.87-8.34,1.16a1.94,1.94,0,0,1-.36-1.16q0-2.1,3-2.1,2.68,0,13.84-1.62,5.65-8.25,15.8-21.65Z"/><path class="cls-2" d="M435.16,274.52a1,1,0,0,1-.29.73q-7.1,5.94-9.93,7.83-7.18,4.78-12.61,4.78a3.72,3.72,0,0,1-2.65-1.16,3.56,3.56,0,0,1-1.2-2.61q0-1.31,1.88-3.55,1.74-1.81,3.41-3.7a19.39,19.39,0,0,0-2.94.25,17.71,17.71,0,0,1-2.57.25h-.22q-7.47,6.31-12.32,8.41c-.77,0-1.16-.12-1.16-.36a2,2,0,0,1,.65-1.23q3.84-1.52,11.53-7.32a1.46,1.46,0,0,1-.51-1q0-1.38,2.28-3.81t3.73-2.43q1.23,0,1.23.91,0,1.62-2.17,3.65a24.85,24.85,0,0,1,3.72-.58q2,0,2,1.45t-2.86,4.17q-2.86,2.65-2.86,4.09a2.43,2.43,0,0,0,.76,1.78,2.5,2.5,0,0,0,1.84.76q4,0,11.2-4.71,1.81-1.16,9.32-6.89a.48.48,0,0,1,.43-.07A.34.34,0,0,1,435.16,274.52Z"/><path class="cls-2" d="M462.85,274.59a1,1,0,0,1-.29.72q-7,5.77-9.71,7.64-6.74,4.61-11.16,4.61-3.77,0-3.77-5.36a24.18,24.18,0,0,1-4.64,2.9,12.2,12.2,0,0,1-4.86,1.52A5.18,5.18,0,0,1,426,286a1.84,1.84,0,0,1-1.16-1.63q0-3,5.47-7.25t9.68-4.28q2.54,0,2.54,1.23a2.46,2.46,0,0,1-.83,2,2,2,0,0,1-1.7.58s-.1-.34-.44-1a1.68,1.68,0,0,0-1.59-1q-2.76,0-6.13,2.9t-3.37,5.15q0,1.45,1,1.45a14,14,0,0,0,7.61-2.76,20.59,20.59,0,0,0,3-3q1.45-1.67,2.32-1.52t.87.72a8,8,0,0,1-1.12,2.48,7.09,7.09,0,0,0-1.12,2.77,2.2,2.2,0,0,0,2.46,2.52q3.12,0,9.71-4.46,1.67-1.08,9-6.55a.48.48,0,0,1,.44-.07A.34.34,0,0,1,462.85,274.59Z"/><path class="cls-2" d="M494.17,274.59a1,1,0,0,1-.29.72q-6.6,5.51-9.06,7.18-6.16,4.13-10.58,4.13-3.84,0-3.84-4.06a19.06,19.06,0,0,1,.73-4.42Q466,281,460.46,284.6a32.93,32.93,0,0,1-4.28,2.61,1.3,1.3,0,0,1-.54-.29c-.26-.19-.4-.34-.4-.43q0-.94,2.54-4.49a53.37,53.37,0,0,0,3.33-5.07,2.92,2.92,0,0,1-.22-1.16q0-.58.87-1.16a2.82,2.82,0,0,1,1.45-.58q2.32,0,2.32,1.74,0,.58-2.17,3.41a40.65,40.65,0,0,1-3,3.55q12.83-8.7,16.45-8.7.51,0,.51.87a22.05,22.05,0,0,1-2.07,2.5,7,7,0,0,0-2.07,4.53q0,2.46,3.42,2.46,2.69,0,8.51-4,1.16-.72,8.29-6.09a.48.48,0,0,1,.44-.07A.34.34,0,0,1,494.17,274.59Z"/><path class="cls-2" d="M519.1,274.81q0,.36-3.91,3.62-3.7,3-5.44,4.13-8.55,5.8-16.16,5.8a6.39,6.39,0,0,1-4.49-1.59,5.1,5.1,0,0,1-1.74-3.91q0-3.41,4.49-7.47,4.86-4.49,10.22-4.49,2.32,0,2.32,2t-3,3.84a9.14,9.14,0,0,1-4.57,1.67q-1.52,0-1.52-.73a1.8,1.8,0,0,1,2-2,2,2,0,0,1,.8.25,2.89,2.89,0,0,0,1.3.25,2.4,2.4,0,0,0,1.74-1,2.87,2.87,0,0,0,.87-1.78q0-.71-1.74-.71-3.12,0-6.56,3.22t-3.44,5.76a4,4,0,0,0,1.59,3.19,6.43,6.43,0,0,0,4.2,1.3q4.13,0,9.79-3.12a70.87,70.87,0,0,0,8.55-5.73,41.39,41.39,0,0,1,4.2-3.12Q519.1,274.16,519.1,274.81Z"/><path class="cls-2" d="M535.56,274.59a1,1,0,0,1-.29.72q-7.25,6.09-9.06,7.39-5.94,4.35-9,4.35a6.19,6.19,0,0,1-3.59-1.12,3.21,3.21,0,0,1-1.63-2.65q0-2.54,2.61-5.87,2.46-3.12,4.13-3.48.87,0,.87.58t-2.07,3a7.37,7.37,0,0,0-2.07,4.57q0,2.76,2.46,2.75,3,0,16.89-10.51a.48.48,0,0,1,.44-.07A.34.34,0,0,1,535.56,274.59Zm-10.95-5q0,1.89-2.61,1.89t-2.61-1.89q0-2,2.61-2T524.61,269.59Z"/><path class="cls-2" d="M556.07,274.59a1,1,0,0,1-.29.72q-7.83,6.52-9.5,7.61a27.62,27.62,0,0,1-15,4.49,7.29,7.29,0,0,1-4-1,21.11,21.11,0,0,1-2.39-2.1,1.62,1.62,0,0,1,.14-.72,32.41,32.41,0,0,1-4.28,2.17c-.77,0-1.16-.12-1.16-.36a2,2,0,0,1,.65-1.23,70.73,70.73,0,0,0,13.34-8.7.56.56,0,0,0,.07-.22,6.17,6.17,0,0,1,4.06-1.6q3.26,0,3.26,3a8.36,8.36,0,0,1-2,4.68,12.72,12.72,0,0,1-3.62,3.59q4.13,0,10.95-4.28a102.23,102.23,0,0,0,9.06-6.38.48.48,0,0,1,.44-.07A.34.34,0,0,1,556.07,274.59Zm-18.27,3a1.53,1.53,0,0,0-1.74-1.72,4.46,4.46,0,0,0-1.3.14,99.68,99.68,0,0,1-8.77,6.9,1.93,1.93,0,0,1,.58.07,8.44,8.44,0,0,0,4,1.58,8.2,8.2,0,0,0,7.25-7Z"/><path class="cls-2" d="M245.79,326.13a5.6,5.6,0,0,0,2.16-.4,4.22,4.22,0,0,0,.72-.37c.2-.13.37-.26.51-.37l.34-.29a.37.37,0,0,1,.2-.12.14.14,0,0,1,.12.06l.33.39a6.68,6.68,0,0,1-2,1.37,6.08,6.08,0,0,1-2.58.51,4.93,4.93,0,0,1-2-.41,4.36,4.36,0,0,1-1.55-1.15,5.27,5.27,0,0,1-1-1.79,7.34,7.34,0,0,1-.35-2.32,9,9,0,0,1,.52-3.13,7.47,7.47,0,0,1,1.43-2.43,6.35,6.35,0,0,1,4.81-2.13,6.26,6.26,0,0,1,1.21.11,4.49,4.49,0,0,1,1,.31,3.76,3.76,0,0,1,.82.51,6.68,6.68,0,0,1,.73.69l-.3.37a.32.32,0,0,1-.24.11.3.3,0,0,1-.19-.1l-.27-.24-.4-.31a2.94,2.94,0,0,0-.57-.31,4.36,4.36,0,0,0-.79-.24,5,5,0,0,0-1-.1,5.36,5.36,0,0,0-4.1,1.85,6.48,6.48,0,0,0-1.22,2.15,8.54,8.54,0,0,0-.44,2.84,6.54,6.54,0,0,0,.3,2.07,4.63,4.63,0,0,0,.85,1.56,3.68,3.68,0,0,0,1.3,1A4,4,0,0,0,245.79,326.13Z"/><path class="cls-2" d="M259.62,317.58l-1.11,9.19h-.41a.32.32,0,0,1-.25-.09.37.37,0,0,1-.08-.25l.28-2.62a8.08,8.08,0,0,1-.83,1.3,5.7,5.7,0,0,1-1,1,4.11,4.11,0,0,1-1,.6,3,3,0,0,1-1.08.21,1.78,1.78,0,0,1-1.69-.91,4.21,4.21,0,0,1-.3-2.55l.69-5.85h.87l-.69,5.85a3.83,3.83,0,0,0,.18,2,1.25,1.25,0,0,0,1.25.71,2.31,2.31,0,0,0,1-.26,3.94,3.94,0,0,0,1-.74,6.77,6.77,0,0,0,.92-1.16,8.77,8.77,0,0,0,.77-1.53l.58-4.89Z"/><path class="cls-2" d="M267,318.7a.23.23,0,0,1-.2.13.38.38,0,0,1-.23-.12,3.2,3.2,0,0,0-.36-.26,2.62,2.62,0,0,0-.57-.26,2.68,2.68,0,0,0-.85-.12,2.53,2.53,0,0,0-.89.16,2.42,2.42,0,0,0-.73.42,2,2,0,0,0-.49.61,1.57,1.57,0,0,0-.18.73,1.11,1.11,0,0,0,.18.64,1.63,1.63,0,0,0,.47.45,3.45,3.45,0,0,0,.66.33l.75.28c.26.09.51.2.75.31a3.07,3.07,0,0,1,.66.41,1.81,1.81,0,0,1,.47.59,1.83,1.83,0,0,1,.18.84,2.9,2.9,0,0,1-.24,1.15,3,3,0,0,1-.67,1,3.35,3.35,0,0,1-1.05.69,3.5,3.5,0,0,1-1.37.26,3.25,3.25,0,0,1-1.49-.31,3.45,3.45,0,0,1-1-.81l.22-.31a.3.3,0,0,1,.25-.15c.06,0,.14,0,.23.15a3,3,0,0,0,.38.33,2.85,2.85,0,0,0,2.57.3,2.28,2.28,0,0,0,.77-.49,2.24,2.24,0,0,0,.49-.73,2.19,2.19,0,0,0,.18-.87,1.25,1.25,0,0,0-.18-.68,1.63,1.63,0,0,0-.47-.48,3.12,3.12,0,0,0-.66-.34l-.75-.27q-.39-.13-.75-.3a3,3,0,0,1-.66-.39,1.75,1.75,0,0,1-.47-.56,1.72,1.72,0,0,1-.18-.81,2.41,2.41,0,0,1,.23-1,2.79,2.79,0,0,1,.65-.88,3.14,3.14,0,0,1,1-.61,3.74,3.74,0,0,1,2.61,0,2.9,2.9,0,0,1,1,.72Z"/><path class="cls-2" d="M269.28,325.23s0-.08,0-.14,0-.14,0-.25,0-.25,0-.43,0-.4.08-.67l.63-5.22h-1.21a.2.2,0,0,1-.15-.06.17.17,0,0,1,0-.16l0-.34,1.45-.11.61-3.29a.3.3,0,0,1,.08-.15.21.21,0,0,1,.16-.06h.43l-.43,3.51h2.66l-.07.66h-2.66l-.64,5.19c0,.25-.06.46-.08.62s0,.29,0,.39,0,.18,0,.23,0,.09,0,.11a1.15,1.15,0,0,0,.28.87,1,1,0,0,0,.73.27,1.41,1.41,0,0,0,.54-.1,2.4,2.4,0,0,0,.41-.21,2.57,2.57,0,0,0,.29-.21.32.32,0,0,1,.17-.1.15.15,0,0,1,.14.09l.17.39a2.79,2.79,0,0,1-.9.62,2.56,2.56,0,0,1-1.05.24,1.64,1.64,0,0,1-1.19-.42A1.73,1.73,0,0,1,269.28,325.23Z"/><path class="cls-2" d="M278,326.89a3.38,3.38,0,0,1-1.34-.26,2.84,2.84,0,0,1-1-.75,3.44,3.44,0,0,1-.67-1.19,4.94,4.94,0,0,1-.24-1.59A6.91,6.91,0,0,1,275,321a5.94,5.94,0,0,1,.94-1.81,4.71,4.71,0,0,1,1.44-1.25,3.68,3.68,0,0,1,1.83-.47,3.38,3.38,0,0,1,1.34.26,2.85,2.85,0,0,1,1,.75,3.45,3.45,0,0,1,.67,1.19,4.87,4.87,0,0,1,.24,1.57,6.82,6.82,0,0,1-.34,2.14,6.14,6.14,0,0,1-.94,1.81,4.69,4.69,0,0,1-1.43,1.26A3.65,3.65,0,0,1,278,326.89Zm.07-.69a2.66,2.66,0,0,0,1.46-.42,3.86,3.86,0,0,0,1.13-1.12,5.51,5.51,0,0,0,.73-1.6,6.79,6.79,0,0,0,.25-1.85,3.48,3.48,0,0,0-.66-2.27,2.23,2.23,0,0,0-1.82-.8,2.69,2.69,0,0,0-1.46.42,3.79,3.79,0,0,0-1.13,1.1,5.52,5.52,0,0,0-.73,1.59,6.68,6.68,0,0,0-.26,1.87,3.54,3.54,0,0,0,.65,2.28A2.21,2.21,0,0,0,278,326.2Z"/><path class="cls-2" d="M284.19,326.77l1.11-9.22h.4a.29.29,0,0,1,.32.33l-.26,2.57a6.9,6.9,0,0,1,1.66-2.22,3.06,3.06,0,0,1,2-.79,1.81,1.81,0,0,1,.89.19,1.33,1.33,0,0,1,.55.57,2.54,2.54,0,0,1,.25.92,6.93,6.93,0,0,1,0,1.25,7.22,7.22,0,0,1,.79-1.29,5.08,5.08,0,0,1,.91-.92,3.62,3.62,0,0,1,1-.55,2.9,2.9,0,0,1,1-.18,1.93,1.93,0,0,1,1,.23,1.51,1.51,0,0,1,.61.67,2.94,2.94,0,0,1,.25,1.09,7.85,7.85,0,0,1-.06,1.46l-.69,5.88H295l.69-5.88a7.73,7.73,0,0,0,.07-1.16,2.58,2.58,0,0,0-.15-.85,1,1,0,0,0-.41-.52,1.32,1.32,0,0,0-.73-.18,2.26,2.26,0,0,0-.92.21,3.4,3.4,0,0,0-.92.62,5.33,5.33,0,0,0-.85,1,8.06,8.06,0,0,0-.73,1.48l-.62,5.24h-.86l.69-5.88a9.37,9.37,0,0,0,.08-1.16,2.63,2.63,0,0,0-.12-.85,1,1,0,0,0-.38-.52,1.27,1.27,0,0,0-.72-.18,2.63,2.63,0,0,0-1.94,1,8.39,8.39,0,0,0-1.57,2.72l-.58,4.92Z"/><path class="cls-2" d="M305.41,325.06a9,9,0,0,1-.88.83,4.84,4.84,0,0,1-.87.57,3.91,3.91,0,0,1-.91.33,4.57,4.57,0,0,1-1,.11,3.45,3.45,0,0,1-1.36-.25,2.73,2.73,0,0,1-1-.72,3.16,3.16,0,0,1-.62-1.14,4.94,4.94,0,0,1-.21-1.5,7.21,7.21,0,0,1,.14-1.39,6.92,6.92,0,0,1,.41-1.35,6.23,6.23,0,0,1,.67-1.21,4.86,4.86,0,0,1,.92-1,4.22,4.22,0,0,1,1.15-.66,3.78,3.78,0,0,1,1.36-.24,3.07,3.07,0,0,1,1.14.19,2.34,2.34,0,0,1,.76.47,1.75,1.75,0,0,1,.42.61,1.69,1.69,0,0,1,.13.61,2.52,2.52,0,0,1-.1.72,1.79,1.79,0,0,1-.36.65,2.85,2.85,0,0,1-.7.57,5.62,5.62,0,0,1-1.13.49,13.65,13.65,0,0,1-1.65.41q-1,.18-2.25.32,0,.19,0,.38t0,.38a3.35,3.35,0,0,0,.62,2.15,2.26,2.26,0,0,0,1.88.78,3.38,3.38,0,0,0,.88-.11,3.32,3.32,0,0,0,.7-.27,3.76,3.76,0,0,0,.55-.35l.42-.35.32-.27a.41.41,0,0,1,.24-.11.25.25,0,0,1,.19.09Zm-2.26-7a2.85,2.85,0,0,0-1.34.31,3.59,3.59,0,0,0-1.05.84,4.9,4.9,0,0,0-.77,1.22,6.59,6.59,0,0,0-.46,1.44q1.17-.13,2-.3a13.49,13.49,0,0,0,1.44-.36,4.69,4.69,0,0,0,1-.41,2.27,2.27,0,0,0,.57-.46,1.3,1.3,0,0,0,.27-.48,1.94,1.94,0,0,0,.07-.52,1.17,1.17,0,0,0-.09-.42,1.1,1.1,0,0,0-.29-.41,1.68,1.68,0,0,0-.53-.31A2.3,2.3,0,0,0,303.15,318.09Z"/><path class="cls-2" d="M308.82,320.61a9.1,9.1,0,0,1,.83-1.57,4.47,4.47,0,0,1,1-1.05,2.37,2.37,0,0,1,1-.48,2.05,2.05,0,0,1,1.11.13l-.16.82a2.06,2.06,0,0,0-1.19-.12,2.26,2.26,0,0,0-1.06.59,4.8,4.8,0,0,0-.92,1.26,10.76,10.76,0,0,0-.75,1.89l-.56,4.69h-.86l1.11-9.22h.4a.29.29,0,0,1,.32.33Z"/><path class="cls-2" d="M319.19,320.61A9.1,9.1,0,0,1,320,319a4.47,4.47,0,0,1,1-1.05,2.37,2.37,0,0,1,1-.48,2.05,2.05,0,0,1,1.11.13l-.16.82a2.06,2.06,0,0,0-1.19-.12,2.26,2.26,0,0,0-1.06.59,4.8,4.8,0,0,0-.92,1.26,10.76,10.76,0,0,0-.75,1.89l-.56,4.69h-.86l1.11-9.22h.4a.29.29,0,0,1,.32.33Z"/><path class="cls-2" d="M330,325.06a9,9,0,0,1-.88.83,4.84,4.84,0,0,1-.87.57,3.91,3.91,0,0,1-.91.33,4.57,4.57,0,0,1-1,.11,3.45,3.45,0,0,1-1.36-.25,2.73,2.73,0,0,1-1-.72,3.16,3.16,0,0,1-.62-1.14,4.94,4.94,0,0,1-.21-1.5,7.21,7.21,0,0,1,.14-1.39,6.92,6.92,0,0,1,.41-1.35,6.23,6.23,0,0,1,.67-1.21,4.86,4.86,0,0,1,.92-1,4.22,4.22,0,0,1,1.15-.66,3.78,3.78,0,0,1,1.36-.24,3.07,3.07,0,0,1,1.14.19,2.34,2.34,0,0,1,.76.47,1.75,1.75,0,0,1,.42.61,1.69,1.69,0,0,1,.13.61,2.52,2.52,0,0,1-.1.72,1.79,1.79,0,0,1-.36.65,2.85,2.85,0,0,1-.7.57,5.62,5.62,0,0,1-1.13.49,13.65,13.65,0,0,1-1.65.41q-1,.18-2.25.32,0,.19,0,.38t0,.38a3.35,3.35,0,0,0,.62,2.15,2.26,2.26,0,0,0,1.88.78,3.38,3.38,0,0,0,.88-.11,3.32,3.32,0,0,0,.7-.27,3.76,3.76,0,0,0,.55-.35l.42-.35.32-.27a.41.41,0,0,1,.24-.11.25.25,0,0,1,.19.09Zm-2.26-7a2.85,2.85,0,0,0-1.34.31,3.59,3.59,0,0,0-1.05.84,4.9,4.9,0,0,0-.77,1.22,6.59,6.59,0,0,0-.46,1.44q1.17-.13,2-.3a13.49,13.49,0,0,0,1.44-.36,4.69,4.69,0,0,0,1-.41,2.27,2.27,0,0,0,.57-.46,1.3,1.3,0,0,0,.27-.48,1.94,1.94,0,0,0,.07-.52,1.17,1.17,0,0,0-.09-.42,1.1,1.1,0,0,0-.29-.41,1.68,1.68,0,0,0-.53-.31A2.3,2.3,0,0,0,327.76,318.09Z"/><path class="cls-2" d="M339.67,317.58,335,326.77h-.72l-2.47-9.19h.67a.27.27,0,0,1,.2.07.31.31,0,0,1,.09.15l1.88,7.25c0,.14,0,.28.06.42s0,.28,0,.42c0-.14.09-.28.14-.42s.11-.28.18-.42l3.67-7.25a.41.41,0,0,1,.13-.16.32.32,0,0,1,.19-.06Z"/><path class="cls-2" d="M342.38,317.58l-1.12,9.19h-.86l1.12-9.19Zm.67-3.17a.7.7,0,0,1-.07.31.92.92,0,0,1-.18.25.85.85,0,0,1-.25.18.71.71,0,0,1-.29.06.7.7,0,0,1-.3-.06.75.75,0,0,1-.24-.18,1,1,0,0,1-.17-.25.74.74,0,0,1-.06-.31.77.77,0,0,1,.06-.31.94.94,0,0,1,.17-.26.81.81,0,0,1,.24-.18.7.7,0,0,1,.3-.06.71.71,0,0,1,.29.06.86.86,0,0,1,.25.18.82.82,0,0,1,.18.26A.81.81,0,0,1,343.05,314.41Z"/><path class="cls-2" d="M351,325.06a9,9,0,0,1-.88.83,4.84,4.84,0,0,1-.87.57,3.91,3.91,0,0,1-.91.33,4.57,4.57,0,0,1-1,.11,3.45,3.45,0,0,1-1.36-.25,2.73,2.73,0,0,1-1-.72,3.16,3.16,0,0,1-.62-1.14,4.94,4.94,0,0,1-.21-1.5,7.21,7.21,0,0,1,.14-1.39,6.92,6.92,0,0,1,.41-1.35,6.23,6.23,0,0,1,.67-1.21,4.86,4.86,0,0,1,.92-1,4.22,4.22,0,0,1,1.15-.66,3.78,3.78,0,0,1,1.36-.24,3.07,3.07,0,0,1,1.14.19,2.34,2.34,0,0,1,.76.47,1.75,1.75,0,0,1,.42.61,1.69,1.69,0,0,1,.13.61,2.52,2.52,0,0,1-.1.72,1.79,1.79,0,0,1-.36.65,2.85,2.85,0,0,1-.7.57,5.62,5.62,0,0,1-1.13.49,13.65,13.65,0,0,1-1.65.41q-1,.18-2.25.32,0,.19,0,.38t0,.38a3.35,3.35,0,0,0,.62,2.15,2.26,2.26,0,0,0,1.88.78,3.38,3.38,0,0,0,.88-.11,3.32,3.32,0,0,0,.7-.27,3.76,3.76,0,0,0,.55-.35l.42-.35.32-.27a.41.41,0,0,1,.24-.11.25.25,0,0,1,.19.09Zm-2.26-7a2.85,2.85,0,0,0-1.34.31,3.59,3.59,0,0,0-1.05.84,4.9,4.9,0,0,0-.77,1.22,6.59,6.59,0,0,0-.46,1.44q1.17-.13,2-.3a13.49,13.49,0,0,0,1.44-.36,4.69,4.69,0,0,0,1-.41,2.27,2.27,0,0,0,.57-.46,1.3,1.3,0,0,0,.27-.48,1.94,1.94,0,0,0,.07-.52,1.17,1.17,0,0,0-.09-.42,1.1,1.1,0,0,0-.29-.41,1.68,1.68,0,0,0-.53-.31A2.3,2.3,0,0,0,348.75,318.09Z"/><path class="cls-2" d="M365.14,317.58l-3.95,9.19h-.63c-.1,0-.16-.06-.18-.19l-1.4-7.46a2.65,2.65,0,0,1-.06-.43l-.07.22-.08.22-3.26,7.46c0,.13-.12.19-.22.19h-.6l-1.7-9.19h.62a.26.26,0,0,1,.29.22l1.23,7.25q0,.41.06.79l.15-.39.16-.4,3.16-7.32a.26.26,0,0,1,.27-.2h.34a.2.2,0,0,1,.22.2l1.36,7.32c0,.14,0,.27.06.4s0,.26,0,.39l.13-.38.14-.41,3-7.25a.41.41,0,0,1,.13-.16.31.31,0,0,1,.18-.06Z"/><path class="cls-2" d="M372.52,318.51l-1,8.07-.39,2.13a.45.45,0,0,1-.45.38h-.31l1.28-10.56-1.15-.07a.3.3,0,0,1-.17-.07.2.2,0,0,1,0-.17l0-.34h1.4l.15-1.16a4.87,4.87,0,0,1,.37-1.38,3.24,3.24,0,0,1,.67-1,2.67,2.67,0,0,1,.91-.6,3,3,0,0,1,1.09-.2,2.55,2.55,0,0,1,.51.05,2.27,2.27,0,0,1,.47.14l-.09.44a.11.11,0,0,1-.08.09h-.17l-.25,0-.34,0a2.24,2.24,0,0,0-.79.14,1.84,1.84,0,0,0-.67.44,2.48,2.48,0,0,0-.5.78,4.38,4.38,0,0,0-.29,1.17l-.15,1.14h2.6l-.09.65Z"/><path class="cls-2" d="M377.46,320.61a9.1,9.1,0,0,1,.83-1.57,4.47,4.47,0,0,1,1-1.05,2.37,2.37,0,0,1,1-.48,2.05,2.05,0,0,1,1.11.13l-.16.82a2.06,2.06,0,0,0-1.19-.12,2.26,2.26,0,0,0-1.06.59,4.8,4.8,0,0,0-.92,1.26,10.76,10.76,0,0,0-.75,1.89l-.56,4.69h-.86l1.11-9.22h.4a.29.29,0,0,1,.32.33Z"/><path class="cls-2" d="M384.74,326.89a3.38,3.38,0,0,1-1.34-.26,2.84,2.84,0,0,1-1-.75,3.44,3.44,0,0,1-.67-1.19,4.94,4.94,0,0,1-.24-1.59,6.91,6.91,0,0,1,.33-2.14,5.94,5.94,0,0,1,.94-1.81,4.71,4.71,0,0,1,1.44-1.25,3.68,3.68,0,0,1,1.83-.47,3.38,3.38,0,0,1,1.34.26,2.85,2.85,0,0,1,1,.75,3.45,3.45,0,0,1,.67,1.19,4.87,4.87,0,0,1,.24,1.57,6.82,6.82,0,0,1-.34,2.14,6.14,6.14,0,0,1-.94,1.81,4.69,4.69,0,0,1-1.43,1.26A3.65,3.65,0,0,1,384.74,326.89Zm.07-.69a2.66,2.66,0,0,0,1.46-.42,3.86,3.86,0,0,0,1.13-1.12,5.51,5.51,0,0,0,.73-1.6,6.79,6.79,0,0,0,.25-1.85,3.48,3.48,0,0,0-.66-2.27,2.23,2.23,0,0,0-1.82-.8,2.69,2.69,0,0,0-1.46.42,3.79,3.79,0,0,0-1.13,1.1,5.52,5.52,0,0,0-.73,1.59,6.68,6.68,0,0,0-.26,1.87,3.54,3.54,0,0,0,.65,2.28A2.21,2.21,0,0,0,384.82,326.2Z"/><path class="cls-2" d="M391,326.77l1.11-9.22h.4a.29.29,0,0,1,.32.33l-.26,2.57a6.9,6.9,0,0,1,1.66-2.22,3.06,3.06,0,0,1,2-.79,1.81,1.81,0,0,1,.89.19,1.33,1.33,0,0,1,.55.57,2.54,2.54,0,0,1,.25.92,6.93,6.93,0,0,1,0,1.25,7.22,7.22,0,0,1,.79-1.29,5.08,5.08,0,0,1,.91-.92,3.62,3.62,0,0,1,1-.55,2.9,2.9,0,0,1,1-.18,1.93,1.93,0,0,1,1,.23,1.51,1.51,0,0,1,.61.67,2.94,2.94,0,0,1,.25,1.09,7.85,7.85,0,0,1-.06,1.46l-.69,5.88h-.86l.69-5.88a7.73,7.73,0,0,0,.07-1.16,2.58,2.58,0,0,0-.15-.85,1,1,0,0,0-.41-.52,1.32,1.32,0,0,0-.73-.18,2.26,2.26,0,0,0-.92.21,3.4,3.4,0,0,0-.92.62,5.33,5.33,0,0,0-.85,1,8.06,8.06,0,0,0-.73,1.48l-.62,5.24h-.86l.69-5.88a9.37,9.37,0,0,0,.08-1.16,2.63,2.63,0,0,0-.12-.85,1,1,0,0,0-.38-.52,1.27,1.27,0,0,0-.72-.18,2.63,2.63,0,0,0-1.94,1,8.39,8.39,0,0,0-1.57,2.72l-.58,4.92Z"/><path class="cls-2" d="M419.14,314.47h-4.2l-1.52,12.3h-.92l1.52-12.3h-4.24l.09-.78h9.36Z"/><path class="cls-2" d="M419,320.61a9.1,9.1,0,0,1,.83-1.57,4.47,4.47,0,0,1,1-1.05,2.37,2.37,0,0,1,1-.48,2.05,2.05,0,0,1,1.11.13l-.16.82a2.06,2.06,0,0,0-1.19-.12,2.26,2.26,0,0,0-1.06.59,4.8,4.8,0,0,0-.92,1.26,10.76,10.76,0,0,0-.75,1.89l-.56,4.69h-.86l1.11-9.22h.4a.29.29,0,0,1,.32.33Z"/><path class="cls-2" d="M425.64,317.58l-1.12,9.19h-.86l1.12-9.19Zm.67-3.17a.7.7,0,0,1-.07.31.92.92,0,0,1-.18.25.85.85,0,0,1-.25.18.71.71,0,0,1-.29.06.7.7,0,0,1-.3-.06A.75.75,0,0,1,425,315a1,1,0,0,1-.17-.25.74.74,0,0,1-.06-.31.77.77,0,0,1,.06-.31.94.94,0,0,1,.17-.26.81.81,0,0,1,.24-.18.7.7,0,0,1,.3-.06.71.71,0,0,1,.29.06.86.86,0,0,1,.25.18.82.82,0,0,1,.18.26A.81.81,0,0,1,426.31,314.41Z"/><path class="cls-2" d="M429,320.77a8.69,8.69,0,0,1,.81-1.36,6.45,6.45,0,0,1,.95-1.05,4.05,4.05,0,0,1,1-.68,2.71,2.71,0,0,1,1.11-.24,2.28,2.28,0,0,1,1.05.23,2.1,2.1,0,0,1,.76.65,3,3,0,0,1,.46,1,5.28,5.28,0,0,1,.16,1.34,7.32,7.32,0,0,1-.15,1.45,8.31,8.31,0,0,1-.42,1.42,7.46,7.46,0,0,1-.67,1.3,5.3,5.3,0,0,1-.89,1.06,4,4,0,0,1-1.1.72,3.09,3.09,0,0,1-1.26.26,2.92,2.92,0,0,1-1.38-.33,2.63,2.63,0,0,1-1-1l-.55,4.44h-.85l1.52-12.47h.4a.29.29,0,0,1,.32.33Zm-.47,4.1a2.4,2.4,0,0,0,1,1,2.71,2.71,0,0,0,1.23.3,2.53,2.53,0,0,0,1.09-.24,3.27,3.27,0,0,0,.91-.64,4.69,4.69,0,0,0,.73-.95,6.78,6.78,0,0,0,.54-1.14,7.64,7.64,0,0,0,.33-1.23,6.85,6.85,0,0,0,.12-1.23,3.38,3.38,0,0,0-.47-1.93,1.56,1.56,0,0,0-1.38-.69,2.16,2.16,0,0,0-1.06.3,4.09,4.09,0,0,0-1,.83,7.28,7.28,0,0,0-.92,1.29,10.39,10.39,0,0,0-.77,1.68Z"/><path class="cls-2" d="M446.31,326.77h-.71a.28.28,0,0,1-.2-.07.36.36,0,0,1-.1-.17l-.93-3.83h-5.86l-1.88,3.83a.42.42,0,0,1-.15.17.38.38,0,0,1-.22.07h-.7l6.52-13.07H443ZM444.2,322l-1.62-6.65c0-.11,0-.23-.07-.36s0-.28-.07-.43l-.18.43-.16.37L438.84,322Z"/><path class="cls-2" d="M456.13,313.33l-1.64,13.44h-.42a.27.27,0,0,1-.25-.1.42.42,0,0,1-.06-.23l.3-2.89a8.76,8.76,0,0,1-.81,1.36,6.59,6.59,0,0,1-.95,1.06,4,4,0,0,1-1,.68,2.73,2.73,0,0,1-1.11.24,2.3,2.3,0,0,1-1.05-.23,2.08,2.08,0,0,1-.76-.66,3.06,3.06,0,0,1-.46-1,5.31,5.31,0,0,1-.16-1.35,7.28,7.28,0,0,1,.15-1.44,8.25,8.25,0,0,1,.42-1.42,7.33,7.33,0,0,1,.67-1.29,5.35,5.35,0,0,1,.89-1.06,4.1,4.1,0,0,1,1.09-.72,3.06,3.06,0,0,1,1.27-.26,3,3,0,0,1,1.38.33,2.6,2.6,0,0,1,1,1l.67-5.41Zm-1.61,6.12a2.84,2.84,0,0,0-.46-.61,2.3,2.3,0,0,0-.54-.41,2.37,2.37,0,0,0-.6-.22,2.9,2.9,0,0,0-.63-.07,2.53,2.53,0,0,0-1.09.24,3.27,3.27,0,0,0-.91.64,4.67,4.67,0,0,0-.73.94,6.61,6.61,0,0,0-.54,1.14,7.55,7.55,0,0,0-.33,1.24,6.87,6.87,0,0,0-.12,1.23,3.4,3.4,0,0,0,.47,1.93,1.56,1.56,0,0,0,1.38.69,2.13,2.13,0,0,0,1.05-.3,4.21,4.21,0,0,0,1-.83,7,7,0,0,0,.92-1.29,10.89,10.89,0,0,0,.76-1.67Z"/><path class="cls-2" d="M465.26,317.58l-4.71,9.19h-.72l-2.47-9.19H458a.27.27,0,0,1,.2.07.31.31,0,0,1,.09.15l1.88,7.25c0,.14,0,.28.06.42s0,.28,0,.42c0-.14.09-.28.14-.42s.11-.28.18-.42l3.67-7.25a.41.41,0,0,1,.13-.16.32.32,0,0,1,.19-.06Z"/><path class="cls-2" d="M468,317.58l-1.12,9.19H466l1.12-9.19Zm.67-3.17a.7.7,0,0,1-.07.31.92.92,0,0,1-.18.25.85.85,0,0,1-.25.18.71.71,0,0,1-.29.06.7.7,0,0,1-.3-.06.75.75,0,0,1-.24-.18,1,1,0,0,1-.17-.25.74.74,0,0,1-.06-.31.77.77,0,0,1,.06-.31.94.94,0,0,1,.17-.26.81.81,0,0,1,.24-.18.7.7,0,0,1,.3-.06.71.71,0,0,1,.29.06.86.86,0,0,1,.25.18.82.82,0,0,1,.18.26A.81.81,0,0,1,468.65,314.41Z"/><path class="cls-2" d="M475.49,318.7a.23.23,0,0,1-.2.13.38.38,0,0,1-.23-.12,3.2,3.2,0,0,0-.36-.26,2.62,2.62,0,0,0-.57-.26,2.68,2.68,0,0,0-.85-.12,2.53,2.53,0,0,0-.89.16,2.42,2.42,0,0,0-.73.42,2,2,0,0,0-.49.61,1.57,1.57,0,0,0-.18.73,1.11,1.11,0,0,0,.18.64,1.63,1.63,0,0,0,.47.45,3.45,3.45,0,0,0,.66.33l.75.28c.26.09.51.2.75.31a3.07,3.07,0,0,1,.66.41,1.81,1.81,0,0,1,.47.59,1.83,1.83,0,0,1,.18.84,2.9,2.9,0,0,1-.24,1.15,3,3,0,0,1-.67,1,3.35,3.35,0,0,1-1.05.69,3.5,3.5,0,0,1-1.37.26,3.25,3.25,0,0,1-1.49-.31,3.45,3.45,0,0,1-1-.81l.22-.31a.3.3,0,0,1,.25-.15c.06,0,.14,0,.23.15a3,3,0,0,0,.38.33,2.85,2.85,0,0,0,2.57.3,2.28,2.28,0,0,0,.77-.49,2.24,2.24,0,0,0,.49-.73,2.19,2.19,0,0,0,.18-.87,1.25,1.25,0,0,0-.18-.68,1.63,1.63,0,0,0-.47-.48,3.12,3.12,0,0,0-.66-.34l-.75-.27q-.39-.13-.75-.3a3,3,0,0,1-.66-.39,1.75,1.75,0,0,1-.47-.56,1.72,1.72,0,0,1-.18-.81,2.41,2.41,0,0,1,.23-1,2.79,2.79,0,0,1,.65-.88,3.14,3.14,0,0,1,1-.61,3.74,3.74,0,0,1,2.61,0,2.9,2.9,0,0,1,1,.72Z"/><path class="cls-2" d="M480.31,326.89a3.38,3.38,0,0,1-1.34-.26,2.84,2.84,0,0,1-1-.75,3.44,3.44,0,0,1-.67-1.19,4.94,4.94,0,0,1-.24-1.59,6.91,6.91,0,0,1,.33-2.14,5.94,5.94,0,0,1,.94-1.81,4.71,4.71,0,0,1,1.44-1.25,3.68,3.68,0,0,1,1.83-.47,3.38,3.38,0,0,1,1.34.26,2.85,2.85,0,0,1,1,.75,3.45,3.45,0,0,1,.67,1.19,4.87,4.87,0,0,1,.24,1.57,6.82,6.82,0,0,1-.34,2.14,6.14,6.14,0,0,1-.94,1.81,4.69,4.69,0,0,1-1.43,1.26A3.65,3.65,0,0,1,480.31,326.89Zm.07-.69a2.66,2.66,0,0,0,1.46-.42,3.86,3.86,0,0,0,1.13-1.12,5.51,5.51,0,0,0,.73-1.6,6.79,6.79,0,0,0,.25-1.85,3.48,3.48,0,0,0-.66-2.27,2.23,2.23,0,0,0-1.82-.8,2.69,2.69,0,0,0-1.46.42,3.79,3.79,0,0,0-1.13,1.1,5.52,5.52,0,0,0-.73,1.59,6.68,6.68,0,0,0-.26,1.87,3.54,3.54,0,0,0,.65,2.28A2.21,2.21,0,0,0,480.39,326.2Z"/><path class="cls-2" d="M488.1,320.61a9.1,9.1,0,0,1,.83-1.57,4.47,4.47,0,0,1,1-1.05,2.37,2.37,0,0,1,1-.48,2.05,2.05,0,0,1,1.11.13l-.16.82a2.06,2.06,0,0,0-1.19-.12,2.26,2.26,0,0,0-1.06.59,4.8,4.8,0,0,0-.92,1.26,10.76,10.76,0,0,0-.75,1.89l-.56,4.69h-.86l1.11-9.22h.4a.29.29,0,0,1,.32.33Z"/><circle class="cls-2" cx="280.71" cy="174.17" r="8.71"/><circle class="cls-3" cx="280.71" cy="174.17" r="11.23"/><circle class="cls-2" cx="323.54" cy="174.17" r="8.71"/><circle class="cls-3" cx="323.54" cy="174.17" r="11.23"/><circle class="cls-2" cx="366.38" cy="174.17" r="8.71"/><circle class="cls-3" cx="366.38" cy="174.17" r="11.23"/><circle class="cls-2" cx="409.21" cy="174.17" r="8.71"/><circle class="cls-3" cx="409.21" cy="174.17" r="11.23"/><circle class="cls-2" cx="452.04" cy="174.17" r="8.71"/><circle class="cls-3" cx="452.04" cy="174.17" r="11.23"/></g></g></svg>