<svg xmlns="http://www.w3.org/2000/svg" viewBox="0 0 140.9 140.9"><defs><style>.cls-1{fill:none;stroke:#435871;stroke-miterlimit:10;stroke-width:2px;}.cls-2{fill:#435871;}</style></defs><title>room-logo-big-sur</title><g id="Layer_2" data-name="Layer 2"><g id="Layer_1-2" data-name="Layer 1"><rect class="cls-1" x="1" y="1" width="138.9" height="138.9"/><path class="cls-2" d="M38,23.93a8.65,8.65,0,0,1,1.56-.43A13.49,13.49,0,0,1,42,23.34a6.92,6.92,0,0,1,3.1.8,17.81,17.81,0,0,0,9.24-9.62A12.08,12.08,0,0,0,55.19,10a6.16,6.16,0,0,0-1.25-3.9q-.69.39-1.37.86L51.14,8a51.37,51.37,0,0,0-6.55,5.78A129.41,129.41,0,0,0,35,25.38,69,69,0,0,1,24.64,36.71a38.24,38.24,0,0,1-10,6.46,18.19,18.19,0,0,1-6.55,1,7.87,7.87,0,0,1-4.47-1.25,3.62,3.62,0,0,1-1.85-3,2.26,2.26,0,0,1,1.85-2.38,3.94,3.94,0,0,1,1-.12,1.8,1.8,0,0,1,1,.31,1.08,1.08,0,0,1,.49,1,1.4,1.4,0,0,1-.49,1.1,2,2,0,0,1-1.34.43,2.18,2.18,0,0,1-1.27-.3v.18a2.75,2.75,0,0,0,1.45,2.38,6,6,0,0,0,3.32.92,13.42,13.42,0,0,0,3.05-.28A9.91,9.91,0,0,0,13.3,42a22.46,22.46,0,0,0,3.14-2.26q1.74-1.46,4.13-3.81l5.51-5.78,7.36-8Q43.9,10.29,53.29,5.31,49.86,1.89,42,1.89q-9.21,0-18.17,6.76a37.89,37.89,0,0,0-7.15,6.94q-2.86,3.78-2.86,6.55a3.1,3.1,0,0,0,2.5,3.25,7.48,7.48,0,0,0,2,.21,10.45,10.45,0,0,0,3.26-.68,19.92,19.92,0,0,0,4-1.94,26.75,26.75,0,0,0,3.92-3,26,26,0,0,0,3.46-3.86A20.4,20.4,0,0,0,37,6.59q.18-1,.46-1t.28.66A18.49,18.49,0,0,1,34.61,16.6a21.59,21.59,0,0,1-7.66,7,19,19,0,0,1-9.38,2.62,4.33,4.33,0,0,1-4.26-2.32,5.66,5.66,0,0,1-.42-2.53A10.42,10.42,0,0,1,14,17.15a20.11,20.11,0,0,1,3.2-4.8A29.52,29.52,0,0,1,22.09,8a37.2,37.2,0,0,1,6-3.54,34.32,34.32,0,0,1,14.6-3.25q7.6,0,12,3.34a18.1,18.1,0,0,1,7.45-2.15q1,0,1,.3t-.54.22q-.54.07-1.55.31a21.68,21.68,0,0,0-5.57,2,8.8,8.8,0,0,1,2.8,6.61q0,3.81-3.57,7.66a22.76,22.76,0,0,1-8.22,5.54,7.59,7.59,0,0,1,2.38,6,10.17,10.17,0,0,1-2.47,6.41,18,18,0,0,1-10.16,6.23,16.47,16.47,0,0,1-3.87.51,9.27,9.27,0,0,1-2.74-.31,4.53,4.53,0,0,1-1.52-.79,2.58,2.58,0,0,1-1-2,5.15,5.15,0,0,1,.63-2.38,11.34,11.34,0,0,1,1.71-2.4A17.82,17.82,0,0,1,32,34,20.7,20.7,0,0,1,35.17,32a16.45,16.45,0,0,1,7.33-1.88c.42,0,.63.13.63.39s-.41.39-1.24.39a11.29,11.29,0,0,0-2.89.45,18,18,0,0,0-3.23,1.22,20.47,20.47,0,0,0-3,1.79,17.34,17.34,0,0,0-2.44,2.12q-2.3,2.38-2.29,4.41,0,2.44,4.08,2.44a10.8,10.8,0,0,0,6-2.15,17,17,0,0,0,6.91-9.47,13.31,13.31,0,0,0,.6-3.74,4.83,4.83,0,0,0-.45-2.43,16.64,16.64,0,0,1-5.17,1,5.84,5.84,0,0,1-2.8-.45q-.7-.45-.7-.86a1,1,0,0,1,.4-.76A3.83,3.83,0,0,1,38,23.93Zm6.11.63A4.22,4.22,0,0,0,42,24a14,14,0,0,0-1.85.09,7.18,7.18,0,0,0-1.09.24q-1,.27-1,.6,0,.71,1.73.72A11.78,11.78,0,0,0,44.14,24.56Z"/><path class="cls-2" d="M51.65,42.42q0,.94,1.76.94a7.17,7.17,0,0,0,3.32-.8,21.69,21.69,0,0,0,3.16-2A34.79,34.79,0,0,0,63,37.9l2.68-2.68q1.19-1.25,2-2.16T68.54,32l.6.54q-.3.3-1.12,1.27t-2,2.26q-1.22,1.3-2.74,2.73A30.64,30.64,0,0,1,60,41.42q-3.84,2.77-6.73,2.77a5.65,5.65,0,0,1-3-.67A1.87,1.87,0,0,1,49.26,42a6.15,6.15,0,0,1,.18-1.55,8.75,8.75,0,0,1,.66-1.64,22.05,22.05,0,0,1,1.33-2.23q.85-1.28,2.21-3.07t3.29-4.14l4.59-5.42A7.44,7.44,0,0,0,63,24h1.4A10.44,10.44,0,0,0,65.62,24q-9.86,11.77-11.1,13.39T52.69,39.9A5.09,5.09,0,0,0,51.65,42.42ZM70.58,17.2a3.4,3.4,0,0,1-1,.61,3.16,3.16,0,0,1-1.22.22,1.56,1.56,0,0,1-1.18-.52,1.67,1.67,0,0,1-.49-1.18A2.7,2.7,0,0,1,67,15.17a2.9,2.9,0,0,1,.66-.89,2.6,2.6,0,0,1,1.89-.89,1.93,1.93,0,0,1,1.52.55,1.78,1.78,0,0,1,.49,1.21,2.56,2.56,0,0,1-.25,1.16A3,3,0,0,1,70.58,17.2Z"/><path class="cls-2" d="M74.41,49.14A66.79,66.79,0,0,0,95.89,32l.6.51a66.55,66.55,0,0,1-23.21,18L68,56.85q-6.7,7.63-10.9,9.56a14.5,14.5,0,0,1-6,1.16,3,3,0,0,1-2.71-1.28,2.12,2.12,0,0,1,0-2.1,8,8,0,0,1,1.47-2.25,18,18,0,0,1,2.52-2.17,40.86,40.86,0,0,1,3.93-2.5,129.06,129.06,0,0,1,13-6.2l12-14.93L81,36q-5.45,6.2-9.77,7.72a6.88,6.88,0,0,1-2.2.45q-3.6,0-3.72-3.9a13.3,13.3,0,0,1,3.55-8.76q6.4-7.8,13.94-7.8a6.2,6.2,0,0,1,3.1.66q1.85,1,.83,3.54l2.8-3.6a6,6,0,0,0,1.58.24,18.49,18.49,0,0,0,2.5-.12Zm-6.2,3.22Q53,59,50.13,62.9a4.62,4.62,0,0,0-1,2.68q0,.33.55.76a2.43,2.43,0,0,0,1.53.43,7.85,7.85,0,0,0,2-.25,8.45,8.45,0,0,0,2.06-.86A15.77,15.77,0,0,0,57.55,64q1.25-1.06,2.82-2.65t3.5-3.8ZM86.27,26.43q-.06-1.79-2.68-1.79-2.8,0-8,4.89a45.21,45.21,0,0,0-3.78,4.23q-4.08,5.07-4,8A1.94,1.94,0,0,0,68.18,43a1.5,1.5,0,0,0,1.12.34,5.89,5.89,0,0,0,2-.49,13.49,13.49,0,0,0,2.86-1.65,45.5,45.5,0,0,0,7.87-7.48l2.32-2.83A8.68,8.68,0,0,0,86.27,26.43Z"/><path class="cls-2" d="M8.06,117.29a2.3,2.3,0,0,1-.82,1.79,3,3,0,0,1-2.08.73,4.06,4.06,0,0,1-2.08-.49v.24q0,2.08,2.42,3.63a11.34,11.34,0,0,0,5.94,1.45,17.09,17.09,0,0,0,6.49-1.21,22.28,22.28,0,0,0,5.6-3.32,34.39,34.39,0,0,0,5-5q2.35-2.86,4.53-6.11t4.26-6.79l5.28-8.53q-11.78-.39-19-4.65-7.61-4.46-7.12-11.24a13.84,13.84,0,0,1,3.15-8,26.68,26.68,0,0,1,7.56-6.37q9.93-5.67,23.5-5.67,5.57,0,8.24,1.31.73.39.73.65t-.46.27a3.48,3.48,0,0,1-.78-.07l-1.28-.27a30,30,0,0,0-6.79-.78,41.19,41.19,0,0,0-7.15.65A43.61,43.61,0,0,0,36,61.47a36,36,0,0,0-6.32,3,25.93,25.93,0,0,0-5.11,3.93,15.85,15.85,0,0,0-4.94,10.42q-.34,4.94,5.52,8.87,6.74,4.56,18.17,4.89Q60.16,66,74.12,59.82a20.81,20.81,0,0,1,8.19-2q7.17,0,6.88,6Q88.9,69,83.62,75.33A52.11,52.11,0,0,1,60.74,90.93,46.8,46.8,0,0,1,50.61,93.4L45,101.69q-13,18.9-25.1,22.92a22,22,0,0,1-7,1.21,23.23,23.23,0,0,1-5.4-.51A11.82,11.82,0,0,1,4,123.89a5.51,5.51,0,0,1-2.91-4.7,3.66,3.66,0,0,1,3-3.83,6.39,6.39,0,0,1,1.55-.19,2.84,2.84,0,0,1,1.58.53A1.8,1.8,0,0,1,8.06,117.29ZM51.53,92A48.44,48.44,0,0,0,75.86,80.32a37.19,37.19,0,0,0,9.21-11.39q3.05-6.35.48-8.92a4.4,4.4,0,0,0-3.27-.92A11.78,11.78,0,0,0,76.83,61a32.65,32.65,0,0,0-6.59,5.33Q63.7,72.85,55,86.71,52.16,91,51.53,92Z"/><path class="cls-2" d="M59.14,122.87q0,1.74,2.33,1.75a12.83,12.83,0,0,0,7-2.47q8-5.38,16.77-16.09l11-13.23a34.37,34.37,0,0,0,4.22.29,28.32,28.32,0,0,0,3.15-.15l-4.75,5.48L81.68,119.33a6.08,6.08,0,0,0-1.7,3.39q0,1.74,2.33,1.75a10.84,10.84,0,0,0,4.82-1.24,31.27,31.27,0,0,0,5-3.13A57.52,57.52,0,0,0,97,116q2.37-2.25,4.31-4.29l5.09-5.62,1,.82L105.47,109q-1.41,1.6-3.44,3.68l-4.51,4.41q-9.26,8.72-15.36,8.72a4.88,4.88,0,0,1-3.27-1.09,3.93,3.93,0,0,1-1.38-2.93,15.52,15.52,0,0,1,2.47-8q-11.15,12-18.9,12-4.36,0-5.57-3.1a7,7,0,0,1-.39-2.23,8.73,8.73,0,0,1,.65-3.25,22.11,22.11,0,0,1,2.11-4.09,58.23,58.23,0,0,1,3.44-4.77L70,97.81q2-2.52,4.31-5a21.1,21.1,0,0,0,3.05.29h1.65A14.52,14.52,0,0,0,81.72,93q-5.67,6.2-7.95,9l-9.64,11.58Q59,119.43,59.14,122.87Z"/><path class="cls-2" d="M114.44,121.92q0,2.25,1.92,2.25a9.47,9.47,0,0,0,4.22-1.16,32.07,32.07,0,0,0,4.7-3,55.56,55.56,0,0,0,4.72-4l4.22-4.22q1.94-2,3.34-3.59l2-2.23,1,.82a33.54,33.54,0,0,0-2.47,2.57l-3.49,3.88q-11.83,12.5-20.35,12.5a6.83,6.83,0,0,1-4.43-1.36,4.44,4.44,0,0,1-1.67-3.63q0-7.22,21-21.32-10.27-1.69-14.2-3.44a52.71,52.71,0,0,1-9.84,13.42,10.66,10.66,0,0,1-1.91,1.75,2.52,2.52,0,0,0-.46.22c-.06,0-.11,0-.15-.27a1.31,1.31,0,0,1,0-.51,1.16,1.16,0,0,1,.19-.36q2.28-2.57,4.22-4.94a55.81,55.81,0,0,0,6.64-10,3.94,3.94,0,0,1-2-2.37,5.45,5.45,0,0,1,0-2.35,6.1,6.1,0,0,1,.85-2,3.54,3.54,0,0,1,2.91-1.89q3.05,0,3.05,2.23a3.81,3.81,0,0,1-.44,1.89l-.87,1.5a4.05,4.05,0,0,0-.87,2.57q0,.87,3.71,1.65t5.26,1.07a42.37,42.37,0,0,0,5.38.73q1.36,0,1.36.73,0,.44-1.58,1.7t-3.46,3.05q-1.89,1.79-3.68,3.76t-3.39,4q-1.6,2-2.81,3.93Q114.44,119.67,114.44,121.92Z"/></g></g></svg>