<svg xmlns="http://www.w3.org/2000/svg" viewBox="0 0 140.9 140.9"><defs><style>.cls-1{fill:none;stroke:#435871;stroke-miterlimit:10;stroke-width:2px;}.cls-2{fill:#435871;}</style></defs><title>room-logo-king-suite</title><g id="Layer_2" data-name="Layer 2"><g id="Layer_1-2" data-name="Layer 1"><rect class="cls-1" x="1" y="1" width="138.9" height="138.9"/><path class="cls-2" d="M35.79,4.91q0-1.84-3.24-1.84A13.51,13.51,0,0,0,23,7.2a16.38,16.38,0,0,0-4.61,7.25q-.3,1.13-.48,1.13c-.22,0-.33-.12-.33-.36v-.42a6.9,6.9,0,0,1,.68-2,20.65,20.65,0,0,1,1.58-2.91A21.6,21.6,0,0,1,22,7.14,15.49,15.49,0,0,1,24.85,4.7a13.78,13.78,0,0,1,7.91-2.47Q36,2.23,37.13,4a2.93,2.93,0,0,1,.36,1.61,5.58,5.58,0,0,1-1,2.71,10.3,10.3,0,0,1-3.4,3.15l-1.31.86a.89.89,0,0,0-.48.77q0,1,1.63,1,5.95,0,14.51-7.25,7.13-5.68,9-5.68c.28,0,.42.08.42.25s-.15.3-.46.39a8.52,8.52,0,0,0-1.4.62,17.19,17.19,0,0,0-2.26,1.49,38.23,38.23,0,0,0-3.08,2.65q-1.75,1.65-4,4.15t-5.08,6l-6.3,8.12A65.7,65.7,0,0,1,19.5,39.66q-6.69,4.58-12.25,4.58-4.19,0-5.5-2.44a2.89,2.89,0,0,1-.42-1.47A2.5,2.5,0,0,1,1.6,39.1a2.07,2.07,0,0,1,.68-.74,2.57,2.57,0,0,1,1.52-.57q1.78,0,1.78,1.34a1.31,1.31,0,0,1-.51,1,2,2,0,0,1-1.32.43,2.48,2.48,0,0,1-1.26-.27v.18a2.48,2.48,0,0,0,1.26,2.14A5.73,5.73,0,0,0,7,43.47a11,11,0,0,0,4-.79A19.06,19.06,0,0,0,15.43,40q5.2-3.9,11.56-12.52a61.87,61.87,0,0,1,5.59-6.48l5.62-5.47L43,11Q37.13,15,32.94,15q-3,0-3-2.41,0-2.85,4.43-6Q35.79,5.57,35.79,4.91ZM51.64,28.69Q52,28.69,52,30a7.9,7.9,0,0,1-.67,2.91,17.93,17.93,0,0,1-1.78,3.3A23.18,23.18,0,0,1,47,39.34,25.05,25.05,0,0,1,43.88,42q-3.51,2.56-6.36,2.56-4,0-4-3.09a8.4,8.4,0,0,1,1.31-4.37,48.22,48.22,0,0,1,7.49-9,6.7,6.7,0,0,0,2-3.45,3.8,3.8,0,0,0,.12-.83,1.9,1.9,0,0,0-.09-.59,12.19,12.19,0,0,1-3.32.61,4.75,4.75,0,0,1-2.42-.45q-.89-.49-.89-1t.76-1a4.93,4.93,0,0,1,2.13-.48,5.39,5.39,0,0,1,4.13,1.22q3.18-1.57,8.12-7.19a46.7,46.7,0,0,1,12-9.66q5.65-3.09,9.93-3.09A4.49,4.49,0,0,1,78,3.32a3,3,0,0,1,.8,2.78,3.41,3.41,0,0,1-2,2.76,2.85,2.85,0,0,1-1.14.21,1.15,1.15,0,0,1-1-.55,1.58,1.58,0,0,1-.25-1.16,1.83,1.83,0,0,1,.7-1.1,2.09,2.09,0,0,1,1.37-.49,1.86,1.86,0,0,1,1.28.45,2.31,2.31,0,0,0-.27-2.11,3.56,3.56,0,0,0-2.65-1.22,9.35,9.35,0,0,0-2.75.39,12.44,12.44,0,0,0-2.81,1.34,64.11,64.11,0,0,0-8.17,6.81q-9.16,9-15.87,11.5a5.08,5.08,0,0,1,.54,2.3,12.31,12.31,0,0,1-.3,2.6,11.55,11.55,0,0,1-1.16,3,29.47,29.47,0,0,1-6.51,7.64Q35,40.91,35,42.19a1.33,1.33,0,0,0,.59,1.17,3.45,3.45,0,0,0,1.89.4,7.12,7.12,0,0,0,2.5-.45A12.45,12.45,0,0,0,42.54,42a19.44,19.44,0,0,0,2.62-2.1,22.36,22.36,0,0,0,2.5-2.81,21.05,21.05,0,0,0,3.57-7.49Q51.46,28.69,51.64,28.69ZM39.57,21.87q-.48.25-.48.48c0,.15.17.31.5.48A2.83,2.83,0,0,0,41,23a8.59,8.59,0,0,0,2.76-.51,3.82,3.82,0,0,0-3.06-.92A2.7,2.7,0,0,0,39.57,21.87Z"/><path class="cls-2" d="M53.69,42.47q0,.94,1.75.94a7.15,7.15,0,0,0,3.31-.8,21.63,21.63,0,0,0,3.15-2A34.63,34.63,0,0,0,65,38l2.68-2.68q1.19-1.25,2-2.16t.92-1.06l.59.54q-.3.3-1.11,1.26t-2,2.26q-1.22,1.29-2.74,2.72a30.62,30.62,0,0,1-3.18,2.62q-3.83,2.76-6.72,2.76a5.62,5.62,0,0,1-2.94-.67A1.87,1.87,0,0,1,51.31,42a6.13,6.13,0,0,1,.18-1.55,8.74,8.74,0,0,1,.65-1.63,21.85,21.85,0,0,1,1.32-2.23q.85-1.28,2.2-3.06t3.29-4.13L63.53,24a7.42,7.42,0,0,0,1.46.09h1.4a10.39,10.39,0,0,0,1.25-.06Q57.79,35.8,56.56,37.42T54.73,40A5.09,5.09,0,0,0,53.69,42.47ZM72.58,17.31a3.39,3.39,0,0,1-1,.61,3.15,3.15,0,0,1-1.22.22,1.56,1.56,0,0,1-1.17-.52,1.67,1.67,0,0,1-.49-1.17A2.7,2.7,0,0,1,69,15.29a2.88,2.88,0,0,1,.65-.89,2.59,2.59,0,0,1,1.89-.89,1.93,1.93,0,0,1,1.52.55,1.77,1.77,0,0,1,.49,1.2,2.57,2.57,0,0,1-.25,1.16A3,3,0,0,1,72.58,17.31Z"/><path class="cls-2" d="M71.37,43.62a9.78,9.78,0,0,0-1.78-.15,11.47,11.47,0,0,0-2.76.3L77.14,29a14.21,14.21,0,0,0,2-3.21q.12-1-.62-1-1.1,0-5.47,5.44l-1.9,2.35a.4.4,0,0,1-.49-.13q-.25-.25-.13-.37.86-.92,1.95-2.33t2.27-2.72q2.91-3.24,4.85-3.24,3.27,0,2.08,3.36a7.68,7.68,0,0,1-1,1.84L74.38,37.7l.15.33A137.66,137.66,0,0,1,85.17,27.18a15.37,15.37,0,0,1,4.47-2.93,9,9,0,0,1,2.41-.43,4.32,4.32,0,0,1,1.61.27,3.19,3.19,0,0,1,1.08.68,2.49,2.49,0,0,1,.76,1.86,6.86,6.86,0,0,1-.42,2.21,14.7,14.7,0,0,1-1.35,2.68A61.31,61.31,0,0,1,87,39.81,13.55,13.55,0,0,0,85,42.2a2.26,2.26,0,0,0-.09.52q0,.68,1.83.68a7.84,7.84,0,0,0,3.42-.76,18,18,0,0,0,3.12-1.92,28.23,28.23,0,0,0,2.91-2.54q1.38-1.38,2.48-2.65t1.84-2.2q.74-.94,1-1.23l.62.5q-.3.33-1.07,1.31t-1.92,2.26Q98,37.46,96.54,38.89a28,28,0,0,1-3,2.62q-3.75,2.74-6.78,2.74Q84,44.24,83,42.9a1.54,1.54,0,0,1-.33-1,6,6,0,0,1,.16-1.29,7.53,7.53,0,0,1,.79-1.86,33.3,33.3,0,0,1,4-5.29Q90.16,30.6,91,29.58a21.67,21.67,0,0,0,1.28-1.75,4.73,4.73,0,0,0,.89-2.2q0-1.07-1.43-1.07-2.94,0-9.72,6.66A104.92,104.92,0,0,0,74.14,40Z"/><path class="cls-2" d="M107.37,49.18a66.63,66.63,0,0,0,21.43-17.06l.59.5a66.4,66.4,0,0,1-23.16,17.93L101,56.87q-6.69,7.61-10.88,9.54a14.48,14.48,0,0,1-6,1.16,3,3,0,0,1-2.71-1.28,2.11,2.11,0,0,1,0-2.1A7.92,7.92,0,0,1,82.83,62a17.93,17.93,0,0,1,2.51-2.17,40.62,40.62,0,0,1,3.92-2.5,128.69,128.69,0,0,1,13-6.18l12-14.89L114,36.1q-5.44,6.18-9.75,7.7a6.84,6.84,0,0,1-2.2.45q-3.6,0-3.72-3.89a13.26,13.26,0,0,1,3.54-8.74q6.39-7.79,13.91-7.79a6.18,6.18,0,0,1,3.09.65q1.84,1,.83,3.54l2.79-3.6a6,6,0,0,0,1.58.24,18.26,18.26,0,0,0,2.5-.12Zm-6.18,3.21Q86,59,83.15,62.91a4.61,4.61,0,0,0-1,2.68q0,.33.55.76a2.43,2.43,0,0,0,1.53.43,7.86,7.86,0,0,0,2-.25,8.5,8.5,0,0,0,2.05-.86A15.72,15.72,0,0,0,90.55,64q1.25-1.06,2.81-2.65t3.49-3.79Zm18-25.86q-.06-1.78-2.68-1.78-2.79,0-8,4.88a45,45,0,0,0-3.78,4.22q-4.07,5.06-4,8a1.94,1.94,0,0,0,.39,1.2,1.5,1.5,0,0,0,1.12.34,5.89,5.89,0,0,0,2-.49,13.48,13.48,0,0,0,2.85-1.65A45.42,45.42,0,0,0,115,33.75l2.32-2.82A8.65,8.65,0,0,0,119.21,26.52Z"/><path class="cls-2" d="M6.75,95.87a1.76,1.76,0,0,1-.63,1.37,2.32,2.32,0,0,1-1.6.56,3.11,3.11,0,0,1-1.6-.37v.19a3.35,3.35,0,0,0,1.86,2.78,8.69,8.69,0,0,0,4.55,1.11,13.09,13.09,0,0,0,5-.93A17,17,0,0,0,18.59,98a26.32,26.32,0,0,0,3.8-3.8q1.8-2.19,3.47-4.68t3.27-5.2l4-6.53q-9-.3-14.58-3.56-5.83-3.41-5.46-8.61a10.6,10.6,0,0,1,2.41-6.1,20.41,20.41,0,0,1,5.79-4.88,35.71,35.71,0,0,1,18-4.34,15,15,0,0,1,6.31,1q.56.3.56.5c0,.14-.12.2-.35.2a2.69,2.69,0,0,1-.59-.06l-1-.2a22.94,22.94,0,0,0-5.2-.59,31.49,31.49,0,0,0-5.47.5,33.39,33.39,0,0,0-5.44,1.43,27.59,27.59,0,0,0-4.84,2.26,19.86,19.86,0,0,0-3.92,3,12.14,12.14,0,0,0-3.79,8q-.26,3.79,4.23,6.79Q25,76.64,33.77,76.9,46.65,56.56,57.33,51.85a15.93,15.93,0,0,1,6.27-1.52q5.49,0,5.27,4.6-.22,3.93-4.27,8.8a39.9,39.9,0,0,1-17.52,12,36,36,0,0,1-7.76,1.89l-4.27,6.35q-10,14.47-19.22,17.55a16.86,16.86,0,0,1-5.34.93A17.82,17.82,0,0,1,6.36,102a9.08,9.08,0,0,1-2.69-1.09,4.22,4.22,0,0,1-2.23-3.6,2.8,2.8,0,0,1,2.3-2.93,4.9,4.9,0,0,1,1.19-.15,2.17,2.17,0,0,1,1.21.41A1.37,1.37,0,0,1,6.75,95.87ZM40,76.53a37.09,37.09,0,0,0,18.63-9,28.48,28.48,0,0,0,7.05-8.72Q68.06,54,66.09,52a3.36,3.36,0,0,0-2.5-.71,9,9,0,0,0-4.17,1.45,25,25,0,0,0-5,4.08q-5,5-11.69,15.63Q40.52,75.75,40,76.53Z"/><path class="cls-2" d="M45.87,100.13q0,1.34,1.78,1.34A9.82,9.82,0,0,0,53,99.58,61.07,61.07,0,0,0,65.83,87.26l8.42-10.13a26.24,26.24,0,0,0,3.23.22,21.65,21.65,0,0,0,2.41-.11l-3.64,4.19-13.14,16a4.65,4.65,0,0,0-1.3,2.6q0,1.34,1.78,1.34a8.31,8.31,0,0,0,3.69-.95A24,24,0,0,0,71.12,98a44.31,44.31,0,0,0,3.73-3.17q1.82-1.73,3.3-3.28l3.9-4.3.74.63-1.45,1.63q-1.08,1.22-2.63,2.82l-3.45,3.38q-7.09,6.68-11.76,6.68a3.73,3.73,0,0,1-2.5-.83,3,3,0,0,1-1.06-2.25,11.9,11.9,0,0,1,1.89-6.12q-8.54,9.21-14.47,9.2-3.34,0-4.27-2.37a5.32,5.32,0,0,1-.3-1.71,6.67,6.67,0,0,1,.5-2.49,17,17,0,0,1,1.61-3.14A44.8,44.8,0,0,1,47.54,89l6.68-8.09q1.56-1.93,3.3-3.82a16.13,16.13,0,0,0,2.34.22h1.26a11.11,11.11,0,0,0,2-.11Q58.82,82,57.07,84.1L49.69,93Q45.79,97.5,45.87,100.13Z"/><path class="cls-2" d="M77.86,100.19q0,1.17,2.19,1.17a8.92,8.92,0,0,0,4.14-1,27,27,0,0,0,3.93-2.5A43.29,43.29,0,0,0,92,94.57l3.34-3.34q1.48-1.56,2.45-2.69t1.15-1.32l.74.67q-.37.37-1.39,1.58t-2.54,2.82q-1.52,1.61-3.41,3.4a38,38,0,0,1-4,3.27q-4.79,3.45-8.39,3.45a7,7,0,0,1-3.67-.83,2.33,2.33,0,0,1-1.37-1.91,7.66,7.66,0,0,1,.22-1.93,10.93,10.93,0,0,1,.82-2,27.35,27.35,0,0,1,1.65-2.78q1.06-1.6,2.75-3.82t4.1-5.16l5.72-6.75a9.28,9.28,0,0,0,1.82.11H93.7a13,13,0,0,0,1.56-.07Q83,91.86,81.44,93.88t-2.28,3.17A6.34,6.34,0,0,0,77.86,100.19Zm23.58-31.42a4.23,4.23,0,0,1-1.21.76,3.93,3.93,0,0,1-1.52.28,1.94,1.94,0,0,1-1.47-.65,2.08,2.08,0,0,1-.61-1.47,3.36,3.36,0,0,1,.3-1.45,3.6,3.6,0,0,1,.82-1.11A3.23,3.23,0,0,1,100.11,64a2.41,2.41,0,0,1,1.89.69,2.21,2.21,0,0,1,.61,1.5,3.19,3.19,0,0,1-.32,1.45A3.73,3.73,0,0,1,101.44,68.77Z"/><path class="cls-2" d="M94.89,100.17q0,1.11,1.78,1.15a8.2,8.2,0,0,0,3.58-.78,21.79,21.79,0,0,0,3.58-2.08,31.62,31.62,0,0,0,3.45-2.84Q109,94,110.4,92.49t2.6-2.93l1.93-2.3.82.63-1.93,2.23Q103.46,102.4,96.41,102.4a4.84,4.84,0,0,1-3.06-.82,2.3,2.3,0,0,1-1-1.78,11.35,11.35,0,0,1,.09-1.6,6.53,6.53,0,0,1,.39-1.39,15.61,15.61,0,0,1,.87-1.8q.58-1,1.54-2.52L101,84.14l9.58-13.47h-2.93q-1.11,0-1.11-.54t1.41-.54h3.38l6.87-9.65a16.38,16.38,0,0,0,5.16,0l-7.16,9.65h9.58q1,0,1,.54t-.93.54h-10.5L100,91.56a65.33,65.33,0,0,0-4.55,6.9A5.78,5.78,0,0,0,94.89,100.17Z"/><path class="cls-2" d="M129,99.11a24.82,24.82,0,0,1-5.08,2.47,15.52,15.52,0,0,1-5.18,1A10.72,10.72,0,0,1,115,102a5.52,5.52,0,0,1-2.1-1.39q-3.49-3.79,0-11.17a18.07,18.07,0,0,1,4.6-6,35.11,35.11,0,0,1,5.42-4,17.21,17.21,0,0,1,8.5-2.6q3.93,0,4.12,2.45.26,4-9.65,8.65a83.18,83.18,0,0,1-9.17,3.53q-2.19,3.56-2.19,5.81a3.88,3.88,0,0,0,1.17,3.19,5.32,5.32,0,0,0,3.42.95,14.11,14.11,0,0,0,4.86-1,24.53,24.53,0,0,0,4.9-2.45,29.38,29.38,0,0,0,4.14-3.23q1.85-1.74,3.28-3.34t2.34-2.76a13.75,13.75,0,0,1,1.24-1.47l.78.63a12.67,12.67,0,0,0-1.47,1.67q-1,1.26-2.49,2.88t-3.45,3.4A31.23,31.23,0,0,1,129,99.11Zm-11.38-8.89q11.21-3.93,14.44-7.83a4,4,0,0,0,1.08-2.52q0-2.08-1.93-2.08-3.42,0-8.54,6A66.22,66.22,0,0,0,117.64,90.22Z"/></g></g></svg>