<svg xmlns="http://www.w3.org/2000/svg" viewBox="0 0 140.91 140.9"><defs><style>.cls-1{fill:none;stroke:#435871;stroke-miterlimit:10;stroke-width:2px;}.cls-2{fill:#435871;}</style></defs><title>room-logo-the-land</title><g id="Layer_2" data-name="Layer 2"><g id="Layer_1-2" data-name="Layer 1"><rect class="cls-1" x="1" y="1" width="138.9" height="138.9"/><path class="cls-2" d="M4.48,41.14a1.72,1.72,0,0,1-1.2.42,2.38,2.38,0,0,1-1.22-.28v.17q0,2.66,3.79,3.41a15.56,15.56,0,0,0,2.87.22,12.25,12.25,0,0,0,3.92-.76A17.93,17.93,0,0,0,17,42a32,32,0,0,0,8.5-9.3,47.6,47.6,0,0,1,2.77-3.88l3.41-4.18a77.32,77.32,0,0,1,8.64-8.61q3.74-3.13,4.76-3.13.39,0,.39.25t-.77.77q-.78.5-1.54,1.05a15,15,0,0,0-1.44,1.19,17,17,0,0,0-1.34,1.43q-.66.79-1.47,1.9t-1.8,2.63l-2.33,3.54Q21.74,45.85,8.12,45.85a9.49,9.49,0,0,1-5-1.22A3.92,3.92,0,0,1,1,41.22a1.83,1.83,0,0,1,.64-1.58,2.84,2.84,0,0,1,1.66-.75q1.69,0,1.69,1.27A1.27,1.27,0,0,1,4.48,41.14ZM35,11.3q.3,0,.3,1.12A8,8,0,0,1,34.77,15a13.18,13.18,0,0,1-1.45,2.88,15.42,15.42,0,0,1-2.13,2.55,16.07,16.07,0,0,1-2.58,2,10.3,10.3,0,0,1-5.32,1.83,4.87,4.87,0,0,1-3.56-1.16,3.84,3.84,0,0,1-1.18-2.84,6.64,6.64,0,0,1,.9-3.28A13.86,13.86,0,0,1,22,13.9a23.51,23.51,0,0,1,8.72-5.12,32.73,32.73,0,0,1,10.13-1.3,35.77,35.77,0,0,1,7.64.8,30.62,30.62,0,0,0,5.23.55,14.66,14.66,0,0,0,3.67-.4,14.72,14.72,0,0,0,2.87-1.07,10,10,0,0,0,4-3.35c.18-.31.37-.47.55-.47s.28.11.28.33a4.06,4.06,0,0,1-1,1.52,11.35,11.35,0,0,1-2.6,2.24A19.72,19.72,0,0,1,57.9,9.47a24.49,24.49,0,0,1-8.8,1.61,30.49,30.49,0,0,1-6.28-.72,43.54,43.54,0,0,0-7.74-1.08,15.81,15.81,0,0,0-4.19.48,19.64,19.64,0,0,0-3.41,1.3A21.19,21.19,0,0,0,24.33,13a17,17,0,0,0-2.59,2.3q-2.41,2.66-2.41,5a2.94,2.94,0,0,0,1.94,3,4.45,4.45,0,0,0,1.61.25,5.15,5.15,0,0,0,2.2-.6,13.49,13.49,0,0,0,2.48-1.58A24.34,24.34,0,0,0,30,19.06a28.18,28.18,0,0,0,2.16-2.5A13.58,13.58,0,0,0,34.67,12C34.78,11.53,34.89,11.3,35,11.3Z"/><path class="cls-2" d="M36.44,45.26a9.21,9.21,0,0,0-1.66-.14,10.2,10.2,0,0,0-2.6.28L62.82,1.64a13.43,13.43,0,0,0,3.85,0L39.21,39.76l.14.3q2.1-2.44,3.9-4.32l3.29-3.32a33.45,33.45,0,0,1,4.57-3.88,9.2,9.2,0,0,1,5-1.72q2.46,0,3.1,1.77Q60.44,32,51.42,41.72l-1.08,1.19a2.83,2.83,0,0,0-.89,1.52q0,.28.61.46a6.34,6.34,0,0,0,1.72.18,6.28,6.28,0,0,0,2.6-.71,16.11,16.11,0,0,0,2.91-1.79A25,25,0,0,0,60,40.2q1.27-1.3,2.28-2.46t1.7-2q.69-.88.94-1.13l.61.47q-.28.3-1,1.22t-1.8,2.12q-1.06,1.2-2.41,2.53a22.88,22.88,0,0,1-2.87,2.41,11.11,11.11,0,0,1-6.34,2.55,4.2,4.2,0,0,1-3.35-1.25,1.36,1.36,0,0,1-.33-.91,5.58,5.58,0,0,1,.15-1.21,6.59,6.59,0,0,1,.76-1.73,32.92,32.92,0,0,1,3.74-5q2.32-2.62,3.07-3.56t1.19-1.63a4.41,4.41,0,0,0,.83-2q0-1-1.3-1a7.42,7.42,0,0,0-4,1.55Q46.32,32.75,39,41.89Z"/><path class="cls-2" d="M75.41,43.4a18.52,18.52,0,0,1-3.79,1.84,11.57,11.57,0,0,1-3.86.72A8,8,0,0,1,65,45.58a4.11,4.11,0,0,1-1.56-1q-2.6-2.82,0-8.33a13.46,13.46,0,0,1,3.43-4.44,26.25,26.25,0,0,1,4-3,12.85,12.85,0,0,1,6.34-1.94q2.93,0,3.07,1.83.19,3-7.2,6.45a62.08,62.08,0,0,1-6.84,2.63,9,9,0,0,0-1.63,4.33,2.9,2.9,0,0,0,.87,2.38,4,4,0,0,0,2.55.71,10.51,10.51,0,0,0,3.63-.72,18.26,18.26,0,0,0,3.65-1.83,22.12,22.12,0,0,0,3.09-2.41q1.38-1.3,2.45-2.49t1.74-2.06a10.12,10.12,0,0,1,.93-1.09l.58.47A9.37,9.37,0,0,0,83,36.27q-.73.94-1.86,2.15t-2.57,2.53A23.39,23.39,0,0,1,75.41,43.4Zm-8.49-6.63q8.36-2.93,10.77-5.84a3,3,0,0,0,.8-1.88q0-1.55-1.44-1.55-2.55,0-6.37,4.46A49.31,49.31,0,0,0,66.92,36.77Z"/><path class="cls-2" d="M17.49,87.52a23.88,23.88,0,0,1-9.66,1.93Q3.36,89.44,2,88A1.41,1.41,0,0,1,1.69,87,1.66,1.66,0,0,1,2.13,86a3.41,3.41,0,0,1,1.28-.89,12,12,0,0,1,4.9-.78,28.16,28.16,0,0,1,8.75,2q4-2.6,9.71-10.44a17.75,17.75,0,0,1-9.3-2.51,6.93,6.93,0,0,1-3.52-6,9.12,9.12,0,0,1,3.35-6.76,11,11,0,0,1,7.62-3.16c.41,0,.61.11.61.33s-.51.3-1.54.41a8.66,8.66,0,0,0-3.14,1,9.14,9.14,0,0,0-2.67,2,7.54,7.54,0,0,0-2.15,5,9.21,9.21,0,0,0,.8,4.16A7,7,0,0,0,19.13,73q2.9,2,8.24,2l3.8-5.5Q38.09,59.18,43.9,54.66a19,19,0,0,1,11.75-4.38q3.24,0,4.3,2A3.84,3.84,0,0,1,60.28,54a7,7,0,0,1-.74,2.75,16.72,16.72,0,0,1-2.07,3.34,30,30,0,0,1-3.14,3.41,44.31,44.31,0,0,1-4,3.29,52.59,52.59,0,0,1-4.56,3q-2.42,1.42-4.93,2.6A37.15,37.15,0,0,1,31,75.54q-6.14,8.21-12.2,11.36a36.19,36.19,0,0,0,12.14,1.81q6.25,0,9.13-2.88.42-.42.53-.17.19.45-.42,1.06a13.17,13.17,0,0,1-9,3.35Q26.06,90.09,17.49,87.52ZM8.16,85.73q-5.7,0-5.7,1.4,0,1,2.88,1.48a16.36,16.36,0,0,0,2.71.17A16,16,0,0,0,15.81,87,32,32,0,0,0,8.16,85.73ZM31.64,74.65a37.85,37.85,0,0,0,12.42-4.8,40.59,40.59,0,0,0,10.13-8q4.21-4.66,4.21-8.32a2.45,2.45,0,0,0-1.79-2.34,2.93,2.93,0,0,0-1.14-.22q-8.88,0-17.34,13.9L34.8,70.07Q33.2,72.53,31.64,74.65Z"/><path class="cls-2" d="M58.25,89.44q-2.79,0-2.79-1.73a6.51,6.51,0,0,1,1.62-3.57l1.76-2.23-.28-.11q-4.69,5.78-8.85,7.26a6.28,6.28,0,0,1-2,.39q-3.43,0-3.43-3.66a12.31,12.31,0,0,1,3.43-8.21q5.08-5.92,10.22-7a13.69,13.69,0,0,1,2.62-.31,7.53,7.53,0,0,1,1.72.15,4.11,4.11,0,0,1,1.1.43,1.86,1.86,0,0,1,1,1.58,4.74,4.74,0,0,1-.33,1.77l2.74-3.38a4.92,4.92,0,0,0,1.4.22,17.63,17.63,0,0,0,2.37-.11L61.15,82.27q-3.35,3.91-3.35,5.5,0,.89,1.06.89A5.93,5.93,0,0,0,61.3,88a16.16,16.16,0,0,0,2.75-1.65,28.31,28.31,0,0,0,2.67-2.23q1.3-1.23,2.4-2.4t1.94-2.18l1.34-1.51.59.47-1.42,1.62Q63.52,89.44,58.25,89.44Zm-7.73-10q-3.94,4.77-3.94,7.82,0,1.4,1.26,1.4,4.08,0,11.75-9l2.34-2.82q1.68-2.54,1.67-3.68a1.73,1.73,0,0,0-2-2Q59,71.13,54,75.65A38.56,38.56,0,0,0,50.51,79.39Z"/><path class="cls-2" d="M73.21,88.86a9.25,9.25,0,0,0-1.67-.14,10.76,10.76,0,0,0-2.6.28l9.69-13.85a13.41,13.41,0,0,0,1.87-3q.11-.92-.59-.92-1,0-5.14,5.11L73,78.53a.38.38,0,0,1-.46-.12q-.24-.24-.13-.35.81-.86,1.83-2.19t2.14-2.55q2.73-3,4.55-3,3.07,0,2,3.16a7.19,7.19,0,0,1-1,1.73L76,83.3l.14.31a129.28,129.28,0,0,1,10-10.19,14.45,14.45,0,0,1,4.2-2.75,8.44,8.44,0,0,1,2.26-.41,4.05,4.05,0,0,1,1.51.25,3,3,0,0,1,1,.64,2.34,2.34,0,0,1,.71,1.75A6.47,6.47,0,0,1,95.48,75a13.86,13.86,0,0,1-1.27,2.51,57.59,57.59,0,0,1-6.31,7.79A12.69,12.69,0,0,0,86,87.53a2.13,2.13,0,0,0-.08.49q0,.64,1.72.64a7.37,7.37,0,0,0,3.21-.71,16.94,16.94,0,0,0,2.93-1.8,26.37,26.37,0,0,0,2.74-2.39q1.3-1.3,2.33-2.49t1.73-2.07q.7-.88.95-1.16l.59.47q-.28.31-1,1.23t-1.8,2.12q-1.08,1.2-2.43,2.54A26.45,26.45,0,0,1,94,86.87q-3.52,2.57-6.37,2.57-2.51,0-3.49-1.26a1.45,1.45,0,0,1-.31-.92A5.62,5.62,0,0,1,84,86.05a7,7,0,0,1,.74-1.75,31.28,31.28,0,0,1,3.73-5q2.41-2.71,3.17-3.66T92.81,74A4.46,4.46,0,0,0,93.65,72q0-1-1.34-1-2.76,0-9.13,6.25a98.24,98.24,0,0,0-7.37,8.24Z"/><path class="cls-2" d="M112,81.79q-6.84,7.65-10.89,7.65-3.54,0-3.54-3.66A12.35,12.35,0,0,1,101,77.58q6.28-7.31,13.26-7.31a3.69,3.69,0,0,1,3.1,1.29,1.35,1.35,0,0,1,.31.78c0,.24,0,.4,0,.46a1.64,1.64,0,0,0,0,.24L131.5,53.15l5.86-8.29a4.88,4.88,0,0,0,1.93.45,14,14,0,0,0,1.62-.08L114.39,82.41q-1.62,2.18-2.44,3.45a4.14,4.14,0,0,0-.82,2q0,.74.7.74,2.71,0,6.14-2.51a38.94,38.94,0,0,0,6.9-6.87,15.19,15.19,0,0,1,1-1.17l.61.47q-.31.31-1.07,1.23t-1.9,2.12q-1.13,1.2-2.54,2.54a26,26,0,0,1-3,2.46q-3.6,2.57-6.35,2.57t-2.72-1.8q0-1.8,3.32-5.74Zm-8.1-2.34q-4,4.86-4,7.76a1.23,1.23,0,0,0,1.4,1.4q2.48,0,6.92-4l2.29-2.21a27.77,27.77,0,0,0,3.24-3.74l2.49-3.54a5.13,5.13,0,0,0,.64-2.21,1.43,1.43,0,0,0-.67-1.33,2.66,2.66,0,0,0-1.4-.4,4.76,4.76,0,0,0-1.83.49,13.65,13.65,0,0,0-2.5,1.52A38.87,38.87,0,0,0,103.86,79.45Z"/></g></g></svg>