<svg xmlns="http://www.w3.org/2000/svg" viewBox="0 0 140.9 140.9"><defs><style>.cls-1{fill:none;stroke:#435871;stroke-miterlimit:10;stroke-width:2px;}.cls-2{fill:#435871;}</style></defs><title>room-logo-garden-room</title><g id="Layer_2" data-name="Layer 2"><g id="Layer_1-2" data-name="Layer 1"><rect class="cls-1" x="1" y="1" width="138.9" height="138.9"/><path class="cls-2" d="M35.49,16.55c.4,0,.6.09.6.28s-.19.31-.57.49a6.29,6.29,0,0,0-1.34.93A15.72,15.72,0,0,0,32.45,20q-1,1.13-2.14,2.82l-2.74,4.07Q18.69,40.79,7.81,40.78a8.25,8.25,0,0,1-4.27-1.07,3,3,0,0,1-1.81-2.55,1.87,1.87,0,0,1,1.53-2,2.93,2.93,0,0,1,.83-.13,1.58,1.58,0,0,1,.83.26.91.91,0,0,1,.43.83,1.17,1.17,0,0,1-.43.93,1.66,1.66,0,0,1-1.12.37,2.09,2.09,0,0,1-1.07-.23v.15q0,1.89,3.09,2.54a10.55,10.55,0,0,0,2.35.23,8.8,8.8,0,0,0,2.93-.55,12.53,12.53,0,0,0,3.27-1.84,45.76,45.76,0,0,0,8-8.65Q24,27,25,25.85q2.44-2.79,3.22-3.65-7.27,5.2-11.66,5.2A4.58,4.58,0,0,1,14,26.93a2.79,2.79,0,0,1-1.18-2.44A10.08,10.08,0,0,1,13,23.16q-1,.08-2.21.08A9.83,9.83,0,0,1,5.87,22q-.68-.33-.68-.55c0-.15.06-.23.18-.23A1.58,1.58,0,0,1,6,21.5,7.85,7.85,0,0,0,7,22a11.54,11.54,0,0,0,1.29.42,10,10,0,0,0,2.56.33q1.33,0,2.16-.08.93-3.92,5.08-8.29a36,36,0,0,1,9-6.94q5.23-2.92,9.18-2.92A4,4,0,0,1,38.67,5a2.16,2.16,0,0,1,.69,1.82,5.58,5.58,0,0,1-1.14,3A17.83,17.83,0,0,1,35,13.33a48.16,48.16,0,0,1-11.31,7,36.26,36.26,0,0,1-8,2.51,5.92,5.92,0,0,0-.8,2.2,2.57,2.57,0,0,0,.1.88,1.22,1.22,0,0,0,.33.44,2.55,2.55,0,0,0,1.62.43,8.73,8.73,0,0,0,2.48-.41A18,18,0,0,0,22.57,25a64.47,64.47,0,0,0,9.08-6.11Q34.53,16.55,35.49,16.55ZM38.76,6.45q0-1.36-2-1.36-4.37,0-11.39,6.11a50.5,50.5,0,0,0-7.69,8.37,27,27,0,0,0-1.66,2.56,32.73,32.73,0,0,0,7.3-2.8,57.07,57.07,0,0,0,6.55-3.87,49.21,49.21,0,0,0,4.68-3.66Q38.76,8.1,38.76,6.45Z"/><path class="cls-2" d="M43.83,40.76q-2.51,0-2.51-1.56A5.86,5.86,0,0,1,42.78,36l1.58-2-.25-.1q-4.22,5.2-8,6.54a5.64,5.64,0,0,1-1.79.35q-3.09,0-3.09-3.29a11.08,11.08,0,0,1,3.09-7.39q4.58-5.33,9.2-6.31a12.31,12.31,0,0,1,2.36-.28,6.83,6.83,0,0,1,1.55.14,3.7,3.7,0,0,1,1,.39,1.67,1.67,0,0,1,.91,1.42,4.25,4.25,0,0,1-.3,1.6l2.46-3a4.45,4.45,0,0,0,1.26.2,15.93,15.93,0,0,0,2.14-.1L46.45,34.3q-3,3.52-3,5,0,.8,1,.8a5.34,5.34,0,0,0,2.2-.58A14.57,14.57,0,0,0,49.06,38a25.26,25.26,0,0,0,2.4-2q1.17-1.11,2.16-2.16t1.75-2l1.21-1.36.53.43-1.28,1.46Q48.58,40.76,43.83,40.76Zm-7-9q-3.54,4.3-3.54,7,0,1.26,1.13,1.26Q38.13,40,45,31.89l2.11-2.54A7.44,7.44,0,0,0,48.66,26a1.56,1.56,0,0,0-1.76-1.76q-2.39,0-6.86,4.07A34.9,34.9,0,0,0,36.87,31.71Z"/><path class="cls-2" d="M60.75,38.74q0,1.17,1,1.17a4.91,4.91,0,0,0,2.19-.6,16.57,16.57,0,0,0,2.44-1.53,28.45,28.45,0,0,0,2.45-2.06L71,33.52q1-1,1.73-1.86l1-1.16.5.43A17.5,17.5,0,0,0,73,32.26l-1.81,2q-6.13,6.49-10.56,6.49a3.54,3.54,0,0,1-2.3-.7,2.3,2.3,0,0,1-.87-1.89q0-3.75,10.91-11.06A34.42,34.42,0,0,1,61,25.32a27.34,27.34,0,0,1-5.1,7,5.48,5.48,0,0,1-1,.91l-.24.11s-.06,0-.08-.14a.69.69,0,0,1,0-.26.59.59,0,0,1,.1-.19q1.18-1.33,2.19-2.56A29,29,0,0,0,60.33,25a2,2,0,0,1-1-1.23,2.84,2.84,0,0,1,0-1.22,3.18,3.18,0,0,1,.44-1,1.84,1.84,0,0,1,1.51-1q1.58,0,1.58,1.16a2,2,0,0,1-.23,1l-.45.78a2.1,2.1,0,0,0-.45,1.33q0,.45,1.92.85l2.73.55a22,22,0,0,0,2.79.38c.47,0,.7.14.7.38s-.27.44-.82.88-1.14,1-1.8,1.58-1.29,1.27-1.91,1.95-1.21,1.37-1.76,2.07-1,1.38-1.46,2A6.91,6.91,0,0,0,60.75,38.74Z"/><path class="cls-2" d="M83.2,33.87Q77,40.76,73.4,40.76q-3.19,0-3.19-3.29a11.12,11.12,0,0,1,3.14-7.39Q79,23.49,85.29,23.49a3.32,3.32,0,0,1,2.79,1.16,1.21,1.21,0,0,1,.28.7c0,.22,0,.36,0,.41a1.5,1.5,0,0,0,0,.21L100.8,8.08,106.08.61a4.39,4.39,0,0,0,1.74.4,12.69,12.69,0,0,0,1.46-.08L85.39,34.43q-1.46,2-2.2,3.1a3.73,3.73,0,0,0-.74,1.81q0,.67.63.67a9.76,9.76,0,0,0,5.53-2.26,35,35,0,0,0,6.21-6.18q.63-.8.88-1.06l.55.43q-.28.28-1,1.11t-1.71,1.91q-1,1.08-2.29,2.29a23.45,23.45,0,0,1-2.7,2.21,10.32,10.32,0,0,1-5.72,2.31q-2.48,0-2.45-1.62t3-5.17Zm-7.29-2.11q-3.59,4.37-3.59,7A1.11,1.11,0,0,0,73.57,40q2.24,0,6.23-3.64l2.06-2A25.07,25.07,0,0,0,84.79,31L87,27.81a4.6,4.6,0,0,0,.58-2,1.29,1.29,0,0,0-.6-1.19,2.4,2.4,0,0,0-1.26-.36,4.28,4.28,0,0,0-1.65.44,12.35,12.35,0,0,0-2.25,1.37A35,35,0,0,0,75.91,31.76Z"/><path class="cls-2" d="M105.24,38.53a16.8,16.8,0,0,1-3.44,1.67,10.51,10.51,0,0,1-3.51.65,7.25,7.25,0,0,1-2.53-.34,3.75,3.75,0,0,1-1.42-.94Q92,37,94.36,32a12.22,12.22,0,0,1,3.12-4,23.76,23.76,0,0,1,3.67-2.73,11.66,11.66,0,0,1,5.76-1.76q2.66,0,2.79,1.66.18,2.69-6.54,5.86A56.36,56.36,0,0,1,97,33.39a8.17,8.17,0,0,0-1.48,3.93,2.63,2.63,0,0,0,.79,2.16,3.61,3.61,0,0,0,2.31.64,9.57,9.57,0,0,0,3.29-.65,16.62,16.62,0,0,0,3.32-1.66,20,20,0,0,0,2.8-2.19q1.26-1.18,2.22-2.26t1.58-1.87a9.21,9.21,0,0,1,.84-1l.53.43a8.57,8.57,0,0,0-1,1.13q-.67.85-1.68,1.95t-2.34,2.3A21.18,21.18,0,0,1,105.24,38.53Zm-7.71-6q7.59-2.66,9.78-5.3A2.72,2.72,0,0,0,108,25.5q0-1.41-1.31-1.41-2.31,0-5.78,4A44.9,44.9,0,0,0,97.53,32.51Z"/><path class="cls-2" d="M113.37,40.23a8.3,8.3,0,0,0-1.51-.13,9.69,9.69,0,0,0-2.34.25l8.72-12.47a12,12,0,0,0,1.68-2.71q.1-.83-.53-.83-.93,0-4.63,4.6l-1.61,2a.34.34,0,0,1-.42-.11q-.21-.21-.11-.31.73-.78,1.65-2t1.92-2.3q2.46-2.74,4.1-2.74,2.77,0,1.76,2.84a6.44,6.44,0,0,1-.88,1.56l-5.28,7.34.13.28a116.6,116.6,0,0,1,9-9.17,13,13,0,0,1,3.78-2.48,7.62,7.62,0,0,1,2-.36,3.64,3.64,0,0,1,1.36.23,2.68,2.68,0,0,1,.92.58,2.1,2.1,0,0,1,.64,1.57,5.84,5.84,0,0,1-.35,1.87A12.43,12.43,0,0,1,132.27,30a51.86,51.86,0,0,1-5.68,7,11.42,11.42,0,0,0-1.73,2,1.9,1.9,0,0,0-.08.44q0,.58,1.55.58a6.63,6.63,0,0,0,2.89-.64,15.23,15.23,0,0,0,2.64-1.62,23.86,23.86,0,0,0,2.46-2.15q1.17-1.17,2.1-2.24T138,31.55q.63-.79.85-1l.53.43q-.25.28-.91,1.11t-1.62,1.91q-1,1.08-2.19,2.29a23.75,23.75,0,0,1-2.58,2.21,10.07,10.07,0,0,1-5.73,2.31,3.77,3.77,0,0,1-3.14-1.13,1.3,1.3,0,0,1-.28-.83,5.09,5.09,0,0,1,.14-1.09,6.35,6.35,0,0,1,.67-1.57,28.18,28.18,0,0,1,3.36-4.47q2.17-2.44,2.85-3.29A18.34,18.34,0,0,0,131,26.88a4,4,0,0,0,.75-1.86q0-.91-1.21-.91-2.49,0-8.22,5.63a88.7,88.7,0,0,0-6.64,7.42Z"/><path class="cls-2" d="M33.52,71.4q0-.4.54-.73a5.08,5.08,0,0,1,2.26-.34,6.06,6.06,0,0,1,3,.73A17.64,17.64,0,0,0,46.59,65q3.2-4.37,3.08-8a5.65,5.65,0,0,0-1.85-4q-7.22,4.87-14.9,16Q21,85.67,12.18,89a13.4,13.4,0,0,1-4.71,1.06,12.92,12.92,0,0,1-3.15-.31,6.1,6.1,0,0,1-2-.87,3.36,3.36,0,0,1-1.5-2.85,2.21,2.21,0,0,1,1.79-2.32,4.29,4.29,0,0,1,1-.12,1.72,1.72,0,0,1,1,.32,1.09,1.09,0,0,1,.48,1A1.41,1.41,0,0,1,4.57,86a1.83,1.83,0,0,1-1.28.44A2.18,2.18,0,0,1,2,86.11v.18a2.48,2.48,0,0,0,1.23,2.14,5.24,5.24,0,0,0,3,.82A13.58,13.58,0,0,0,9.16,89a8.91,8.91,0,0,0,2.43-1,15.48,15.48,0,0,0,2.67-2,39.1,39.1,0,0,0,3.17-3.3q1.76-2,4-4.9L26.5,71a67.35,67.35,0,0,1,14.2-14.78,47,47,0,0,1,6-4.11q-3.55-2.38-10.47-2.38a29.79,29.79,0,0,0-12.61,2.84,26.47,26.47,0,0,0-9.09,6.69Q11.1,63.35,11.21,67a4.11,4.11,0,0,0,1.64,3.34,4.74,4.74,0,0,0,3,.94,7.62,7.62,0,0,0,3.54-.94,16.67,16.67,0,0,0,3.48-2.45A28.16,28.16,0,0,0,26,64.54a38.64,38.64,0,0,0,2.63-3.71,16.53,16.53,0,0,0,2.64-6.1q.09-1,.38-1t.32.22q0,.22.06,1.33a12.74,12.74,0,0,1-.44,3.08,18.66,18.66,0,0,1-1.42,3.9A19.79,19.79,0,0,1,27.77,66a17.81,17.81,0,0,1-3.24,3.11,14.25,14.25,0,0,1-8.8,3A5.75,5.75,0,0,1,12,70.71,4.78,4.78,0,0,1,10.2,67a9.8,9.8,0,0,1,1-4.56,16.61,16.61,0,0,1,3-4.31,25.15,25.15,0,0,1,4.53-3.72,34.31,34.31,0,0,1,5.57-2.93A33.35,33.35,0,0,1,37,48.92a19.07,19.07,0,0,1,10.6,2.7Q52,49.41,54,49.42q.56,0,.57.23a.36.36,0,0,1-.16.35,3.49,3.49,0,0,1-1,.26,14.7,14.7,0,0,0-4.72,2.11,9.21,9.21,0,0,1,3.58,7.07q.18,3.75-3.14,7.19a19.66,19.66,0,0,1-8.89,5.13,3.07,3.07,0,0,1,.89,2.08A10.13,10.13,0,0,1,41,76a7.61,7.61,0,0,1-.79,2.14,28.75,28.75,0,0,1-5,6.07,3.71,3.71,0,0,0-1.67,2.87q0,2.14,3.08,2.14,3.58,0,7.42-3.78a24.24,24.24,0,0,0,5.81-9.53q.26-.88.41-.88.53,0,.53,1.28a8.41,8.41,0,0,1-.66,3,15.3,15.3,0,0,1-1.77,3.29,18.85,18.85,0,0,1-2.58,2.95,19.85,19.85,0,0,1-3.08,2.36,11.58,11.58,0,0,1-6,2.17,6.24,6.24,0,0,1-3.89-1,3.34,3.34,0,0,1-1.35-2.61,8.69,8.69,0,0,1,.38-3,11.18,11.18,0,0,1,1.19-2.57,15.59,15.59,0,0,1,1.69-2.21l1.82-2a6,6,0,0,0,2.35-3,5.2,5.2,0,0,0,.06-.79,1.69,1.69,0,0,0-.18-.76,11.29,11.29,0,0,1-2.64.32,4.31,4.31,0,0,1-1.94-.34Q33.56,71.8,33.52,71.4Zm4.59.07A4.36,4.36,0,0,0,35.94,71q-1.35,0-1.35.23,0,.56,1.2.56A8.27,8.27,0,0,0,38.11,71.47Z"/><path class="cls-2" d="M67.12,85.29a1.69,1.69,0,0,1-1.58-.88A17.08,17.08,0,0,1,58,89.66a9,9,0,0,1-2.62.41,7.18,7.18,0,0,1-2.19-.29,4.08,4.08,0,0,1-1.5-.82q-2.38-2.05-.47-7.07a17.09,17.09,0,0,1,1.89-3.67,22,22,0,0,1,5.73-5.75,13.23,13.23,0,0,1,7.39-2.55,4.49,4.49,0,0,1,2.68.81A2.89,2.89,0,0,1,70.14,73,11.12,11.12,0,0,1,70,75.87a15.15,15.15,0,0,1-.79,2.64,19.38,19.38,0,0,1-3,5.1,1,1,0,0,0,1.13.85A3.83,3.83,0,0,0,69.07,84,11.17,11.17,0,0,0,70.74,83a17.68,17.68,0,0,0,1.64-1.41q.81-.78,1.48-1.48L75,78.86q.47-.56.67-.76l.65.5q-.38.35-1,1T74,81L72.46,82.5Q69.44,85.29,67.12,85.29ZM54.95,89a3,3,0,0,0,1.32.23q1.91,0,4.9-2.14a22,22,0,0,0,4.08-3.78v-.12a4.23,4.23,0,0,1,1.88-3.75,3.71,3.71,0,0,1,.94-.5A11,11,0,0,0,69.38,74q-.18-3-2.23-3-3.46,0-9.71,7.8-4,5-3.78,7.86A2.44,2.44,0,0,0,54.95,89Z"/><path class="cls-2" d="M88.65,85.29a1.69,1.69,0,0,1-1.58-.88,17.08,17.08,0,0,1-7.54,5.25,9,9,0,0,1-2.62.41,7.18,7.18,0,0,1-2.19-.29,4.08,4.08,0,0,1-1.5-.82q-2.38-2.05-.47-7.07a17.09,17.09,0,0,1,1.89-3.67,22,22,0,0,1,5.73-5.75,13.23,13.23,0,0,1,7.39-2.55,4.49,4.49,0,0,1,2.68.81A2.89,2.89,0,0,1,91.67,73a11.12,11.12,0,0,1-.18,2.83,15.15,15.15,0,0,1-.79,2.64,19.38,19.38,0,0,1-3,5.1,1,1,0,0,0,1.13.85A3.83,3.83,0,0,0,90.6,84,11.17,11.17,0,0,0,92.27,83a17.68,17.68,0,0,0,1.64-1.41q.81-.78,1.48-1.48l1.12-1.23q.47-.56.67-.76l.65.5q-.38.35-1,1T95.54,81L94,82.5Q91,85.29,88.65,85.29ZM76.48,89a3,3,0,0,0,1.32.23q1.91,0,4.9-2.14a22,22,0,0,0,4.08-3.78v-.12a4.23,4.23,0,0,1,1.88-3.75,3.71,3.71,0,0,1,.94-.5A11,11,0,0,0,90.91,74q-.18-3-2.23-3-3.46,0-9.71,7.8-4,5-3.78,7.86A2.44,2.44,0,0,0,76.48,89Z"/><path class="cls-2" d="M98,89.45a8.22,8.22,0,0,0-1.7-.15,10,10,0,0,0-2.76.29l10.18-14.55a14.07,14.07,0,0,0,2-3.17q.12-1-.62-1-1.09,0-5.4,5.37L97.8,78.6a.4.4,0,0,1-.48-.13q-.25-.25-.13-.37.85-.91,1.92-2.3t2.24-2.68q2.87-3.2,4.78-3.2,3.23,0,2.05,3.31a7.59,7.59,0,0,1-1,1.82L101,83.62l.15.32q7.89-9.12,11.59-11.79a9.22,9.22,0,0,1,5.43-2.23,3.78,3.78,0,0,1,2.7.94,2.19,2.19,0,0,1,.75,1.67,13.19,13.19,0,0,1-.12,1.33,6.62,6.62,0,0,1-.22.92A12.59,12.59,0,0,1,120,77.13q6.28-6.39,9.5-7.07a6.43,6.43,0,0,1,1.42-.15,3.84,3.84,0,0,1,1.44.26,3.13,3.13,0,0,1,1.07.67,2.45,2.45,0,0,1,.75,1.83,6.79,6.79,0,0,1-.41,2.19,14.47,14.47,0,0,1-1.33,2.64,60.52,60.52,0,0,1-6.63,8.18,13.36,13.36,0,0,0-2,2.36,2.22,2.22,0,0,0-.09.51l-.21,0q0,.7,1.67.7a6.37,6.37,0,0,0,3.07-.75,18.44,18.44,0,0,0,2.83-1.91,33.86,33.86,0,0,0,2.8-2.54q1.36-1.38,2.48-2.61l1.88-2.17q.76-.94,1-1.23l.62.5q-.29.29-1.1,1.28t-2,2.27q-1.16,1.29-2.6,2.7a32.94,32.94,0,0,1-3,2.58q-3.55,2.73-6,2.73a4.32,4.32,0,0,1-3.61-1.35,1.52,1.52,0,0,1-.32-1,5.18,5.18,0,0,1,.19-1.29,7.41,7.41,0,0,1,.87-1.85,34.53,34.53,0,0,1,3.93-5.19q2.58-2.9,3.36-3.9T131,73.88a4.74,4.74,0,0,0,.91-2.17q0-1.06-1.5-1.06-2.93,0-10.15,7.33a96.15,96.15,0,0,0-6.86,7.89l-2.73,3.58a8.23,8.23,0,0,0-1.7-.15,10.81,10.81,0,0,0-2.76.29q4.34-5.31,4.78-5.87,6.6-8.71,7.3-9.86a6,6,0,0,0,1-2.32q0-.91-1.44-.91a7.6,7.6,0,0,0-4.46,2.05,90.64,90.64,0,0,0-12.64,13.17Z"/></g></g></svg>