<svg xmlns="http://www.w3.org/2000/svg" viewBox="0 0 140.9 140.9"><defs><style>.cls-1{fill:none;stroke:#435871;stroke-miterlimit:10;stroke-width:2px;}.cls-2{fill:#435871;}</style></defs><title>room-logo-the-fireplace</title><g id="Layer_2" data-name="Layer 2"><g id="Layer_1-2" data-name="Layer 1"><rect class="cls-1" x="1" y="1" width="138.9" height="138.9"/><path class="cls-2" d="M4.48,41.14a1.72,1.72,0,0,1-1.2.42,2.38,2.38,0,0,1-1.22-.28v.17q0,2.66,3.79,3.41a15.56,15.56,0,0,0,2.87.22,12.25,12.25,0,0,0,3.92-.76A17.93,17.93,0,0,0,17,42a32,32,0,0,0,8.5-9.3,47.6,47.6,0,0,1,2.77-3.88l3.41-4.18a77.32,77.32,0,0,1,8.64-8.61q3.74-3.13,4.76-3.13.39,0,.39.25t-.77.77q-.78.5-1.54,1.05a15,15,0,0,0-1.44,1.19,17,17,0,0,0-1.34,1.43q-.66.79-1.47,1.9t-1.8,2.63l-2.33,3.54Q21.74,45.85,8.12,45.85a9.49,9.49,0,0,1-5-1.22A3.92,3.92,0,0,1,1,41.22a1.83,1.83,0,0,1,.64-1.58,2.84,2.84,0,0,1,1.66-.75q1.69,0,1.69,1.27A1.27,1.27,0,0,1,4.48,41.14ZM35,11.3q.3,0,.3,1.12A8,8,0,0,1,34.77,15a13.18,13.18,0,0,1-1.45,2.88,15.42,15.42,0,0,1-2.13,2.55,16.07,16.07,0,0,1-2.58,2,10.3,10.3,0,0,1-5.32,1.83,4.87,4.87,0,0,1-3.56-1.16,3.84,3.84,0,0,1-1.18-2.84,6.64,6.64,0,0,1,.9-3.28A13.86,13.86,0,0,1,22,13.9a23.51,23.51,0,0,1,8.72-5.12,32.73,32.73,0,0,1,10.13-1.3,35.77,35.77,0,0,1,7.64.8,30.62,30.62,0,0,0,5.23.55,14.66,14.66,0,0,0,3.67-.4,14.72,14.72,0,0,0,2.87-1.07,10,10,0,0,0,4-3.35c.18-.31.37-.47.55-.47s.28.11.28.33a4.06,4.06,0,0,1-1,1.52,11.35,11.35,0,0,1-2.6,2.24A19.72,19.72,0,0,1,57.9,9.47a24.49,24.49,0,0,1-8.8,1.61,30.49,30.49,0,0,1-6.28-.72,43.54,43.54,0,0,0-7.74-1.08,15.81,15.81,0,0,0-4.19.48,19.64,19.64,0,0,0-3.41,1.3A21.19,21.19,0,0,0,24.33,13a17,17,0,0,0-2.59,2.3q-2.41,2.66-2.41,5a2.94,2.94,0,0,0,1.94,3,4.45,4.45,0,0,0,1.61.25,5.15,5.15,0,0,0,2.2-.6,13.49,13.49,0,0,0,2.48-1.58A24.34,24.34,0,0,0,30,19.06a28.18,28.18,0,0,0,2.16-2.5A13.58,13.58,0,0,0,34.67,12C34.78,11.53,34.89,11.3,35,11.3Z"/><path class="cls-2" d="M36.44,45.26a9.21,9.21,0,0,0-1.66-.14,10.2,10.2,0,0,0-2.6.28L62.82,1.64a13.43,13.43,0,0,0,3.85,0L39.21,39.76l.14.3q2.1-2.44,3.9-4.32l3.29-3.32a33.45,33.45,0,0,1,4.57-3.88,9.2,9.2,0,0,1,5-1.72q2.46,0,3.1,1.77Q60.44,32,51.42,41.72l-1.08,1.19a2.83,2.83,0,0,0-.89,1.52q0,.28.61.46a6.34,6.34,0,0,0,1.72.18,6.28,6.28,0,0,0,2.6-.71,16.11,16.11,0,0,0,2.91-1.79A25,25,0,0,0,60,40.2q1.27-1.3,2.28-2.46t1.7-2q.69-.88.94-1.13l.61.47q-.28.3-1,1.22t-1.8,2.12q-1.06,1.2-2.41,2.53a22.88,22.88,0,0,1-2.87,2.41,11.11,11.11,0,0,1-6.34,2.55,4.2,4.2,0,0,1-3.35-1.25,1.36,1.36,0,0,1-.33-.91,5.58,5.58,0,0,1,.15-1.21,6.59,6.59,0,0,1,.76-1.73,32.92,32.92,0,0,1,3.74-5q2.32-2.62,3.07-3.56t1.19-1.63a4.41,4.41,0,0,0,.83-2q0-1-1.3-1a7.42,7.42,0,0,0-4,1.55Q46.32,32.75,39,41.89Z"/><path class="cls-2" d="M75.41,43.4a18.52,18.52,0,0,1-3.79,1.84,11.57,11.57,0,0,1-3.86.72A8,8,0,0,1,65,45.58a4.11,4.11,0,0,1-1.56-1q-2.6-2.82,0-8.33a13.46,13.46,0,0,1,3.43-4.44,26.25,26.25,0,0,1,4-3,12.85,12.85,0,0,1,6.34-1.94q2.93,0,3.07,1.83.19,3-7.2,6.45a62.08,62.08,0,0,1-6.84,2.63,9,9,0,0,0-1.63,4.33,2.9,2.9,0,0,0,.87,2.38,4,4,0,0,0,2.55.71,10.51,10.51,0,0,0,3.63-.72,18.26,18.26,0,0,0,3.65-1.83,22.12,22.12,0,0,0,3.09-2.41q1.38-1.3,2.45-2.49t1.74-2.06a10.12,10.12,0,0,1,.93-1.09l.58.47A9.37,9.37,0,0,0,83,36.27q-.73.94-1.86,2.15t-2.57,2.53A23.39,23.39,0,0,1,75.41,43.4Zm-8.49-6.63q8.36-2.93,10.77-5.84a3,3,0,0,0,.8-1.88q0-1.55-1.44-1.55-2.55,0-6.37,4.46A49.31,49.31,0,0,0,66.92,36.77Z"/><path class="cls-2" d="M3.66,78.13a1,1,0,0,1-.35.76,1.3,1.3,0,0,1-.89.31A1.73,1.73,0,0,1,1.53,79v.1a1.9,1.9,0,0,0,1.19,1.64,5,5,0,0,0,2.48.64,12.55,12.55,0,0,0,2.31-.18,8.46,8.46,0,0,0,2-.68,12.1,12.1,0,0,0,2.18-1.36,18.56,18.56,0,0,0,2.39-2.25A47.85,47.85,0,0,0,19.71,69a.66.66,0,0,1,.1-.16q-6.93,1.54-10,4.31a5.81,5.81,0,0,0-1.19,1.31q-.41.7-.55.7c-.1,0-.14,0-.14-.1a.6.6,0,0,1,.14-.41q.78-1.86,4.12-3.75a28.37,28.37,0,0,1,8-2.87l.1,0a29.7,29.7,0,0,1,7.91-8.47Q32,56.9,34.54,56.9q.47,0,.47.14c0,.1-.05.15-.16.17l-1,.29a9.11,9.11,0,0,0-2.18,1.1,20.35,20.35,0,0,0-2.69,2.09,34.51,34.51,0,0,0-5.39,6.54q2.89-.74,4.33-1.25a2.07,2.07,0,0,0,.7-.82,16.41,16.41,0,0,1,1.88.12,10.29,10.29,0,0,1,1.24.18,10.9,10.9,0,0,0-4.35,4A8.21,8.21,0,0,0,26.47,71a2.9,2.9,0,0,1-.31.66.26.26,0,0,1-.17.06q-.25,0-.25-.29a6.93,6.93,0,0,1,.72-2,18.56,18.56,0,0,1,1.23-2.35q-.82.27-2.11.55L23,68.18a44.66,44.66,0,0,1-4.37,6.36A27.64,27.64,0,0,1,14.09,79a14,14,0,0,1-8.63,2.89A6,6,0,0,1,2.2,81,2.58,2.58,0,0,1,.7,78.92,1.54,1.54,0,0,1,2,77.3a3,3,0,0,1,.68-.08,1.25,1.25,0,0,1,.68.23A.75.75,0,0,1,3.66,78.13ZM11.8,62.19A2,2,0,0,0,14,64.43q2.77,0,5.82-2.63A10.81,10.81,0,0,0,22.25,59,6.43,6.43,0,0,0,23,57.33q.08-.68.21-.68c.14,0,.21.24.21.73A5.08,5.08,0,0,1,23,59.11,8.06,8.06,0,0,1,22,61a10.45,10.45,0,0,1-1.5,1.67A11,11,0,0,1,18.69,64a7.82,7.82,0,0,1-3.86,1.19,4.3,4.3,0,0,1-2.71-.73,2.46,2.46,0,0,1-.92-2A5.17,5.17,0,0,1,12,59.79a9.61,9.61,0,0,1,2.21-2.5,19.22,19.22,0,0,1,8-3.73,34.46,34.46,0,0,1,7.4-.66,30.23,30.23,0,0,1,3.53.25q4,.47,5.38.47a12,12,0,0,0,2.61-.27,8.35,8.35,0,0,0,2.11-.76A6.84,6.84,0,0,0,45.94,50q.22-.35.43-.35t.21.12a.64.64,0,0,1-.18.43q-3.3,5.27-10.54,5.27a37.86,37.86,0,0,1-4.43-.33q-5.21-.63-6.85-.64a15.81,15.81,0,0,0-3.19.32,18.1,18.1,0,0,0-3,.87A16.27,16.27,0,0,0,15.8,57a12.8,12.8,0,0,0-2.11,1.61A5.16,5.16,0,0,0,11.8,62.19Z"/><path class="cls-2" d="M28,80.72q0,.65,1.21.65a4.93,4.93,0,0,0,2.29-.55,15,15,0,0,0,2.17-1.38,23.85,23.85,0,0,0,2.12-1.81l1.85-1.85q.82-.86,1.35-1.49l.64-.73.41.37q-.21.21-.77.87t-1.4,1.56Q37,77.24,36,78.23A21.14,21.14,0,0,1,33.76,80a8.34,8.34,0,0,1-4.63,1.91,3.88,3.88,0,0,1-2-.46,1.29,1.29,0,0,1-.76-1.06,4.24,4.24,0,0,1,.12-1.07,6,6,0,0,1,.45-1.13,15.05,15.05,0,0,1,.91-1.54q.58-.88,1.52-2.11t2.27-2.85L34.76,68a5.11,5.11,0,0,0,1,.06h1a7.23,7.23,0,0,0,.86,0q-6.79,8.1-7.64,9.22T28.69,79A3.52,3.52,0,0,0,28,80.72ZM41,63.36a2.34,2.34,0,0,1-.67.42,2.17,2.17,0,0,1-.84.15,1.08,1.08,0,0,1-.81-.36,1.15,1.15,0,0,1-.34-.81,1.86,1.86,0,0,1,.16-.8,2,2,0,0,1,.45-.62,1.79,1.79,0,0,1,1.3-.62,1.33,1.33,0,0,1,1,.38,1.22,1.22,0,0,1,.34.83,1.76,1.76,0,0,1-.17.8A2.05,2.05,0,0,1,41,63.36Z"/><path class="cls-2" d="M43,80.29q0,1,.81,1a4,4,0,0,0,1.78-.49,13.55,13.55,0,0,0,2-1.25,23.29,23.29,0,0,0,2-1.68L51.35,76q.82-.84,1.42-1.52l.84-.94.41.35A14.07,14.07,0,0,0,53,75l-1.48,1.64q-5,5.29-8.61,5.29A2.89,2.89,0,0,1,41,81.36a1.88,1.88,0,0,1-.71-1.54q0-3.05,8.9-9a28.06,28.06,0,0,1-6-1.46A22.32,22.32,0,0,1,39,75a4.52,4.52,0,0,1-.81.74l-.19.09s0,0-.06-.11a.55.55,0,0,1,0-.21.49.49,0,0,1,.08-.15q1-1.09,1.78-2.09a23.61,23.61,0,0,0,2.81-4.22,1.67,1.67,0,0,1-.84-1,2.31,2.31,0,0,1,0-1,2.6,2.6,0,0,1,.36-.83,1.5,1.5,0,0,1,1.23-.8q1.29,0,1.29.94a1.6,1.6,0,0,1-.18.8l-.37.64a1.71,1.71,0,0,0-.37,1.09q0,.37,1.57.7l2.22.45a18,18,0,0,0,2.28.31q.57,0,.57.31t-.67.72q-.67.53-1.47,1.29t-1.56,1.59Q46,75.09,45.28,76t-1.19,1.66A5.62,5.62,0,0,0,43,80.29Z"/><path class="cls-2" d="M61.39,80.12a13.69,13.69,0,0,1-2.81,1.36,8.58,8.58,0,0,1-2.86.53,5.94,5.94,0,0,1-2.06-.28A3.05,3.05,0,0,1,52.5,81q-1.93-2.09,0-6.17a10,10,0,0,1,2.54-3.29,19.36,19.36,0,0,1,3-2.22,9.51,9.51,0,0,1,4.7-1.44q2.17,0,2.28,1.35Q65.17,71.4,59.7,74a45.93,45.93,0,0,1-5.06,1.95,6.66,6.66,0,0,0-1.21,3.21,2.15,2.15,0,0,0,.65,1.76,2.94,2.94,0,0,0,1.89.52,7.8,7.8,0,0,0,2.69-.53,13.5,13.5,0,0,0,2.71-1.35,16.24,16.24,0,0,0,2.29-1.78q1-1,1.81-1.85t1.29-1.53a7.59,7.59,0,0,1,.69-.81l.43.35a6.91,6.91,0,0,0-.81.92q-.54.7-1.37,1.59t-1.91,1.88A17.38,17.38,0,0,1,61.39,80.12ZM55.1,75.21q6.19-2.17,8-4.33a2.21,2.21,0,0,0,.59-1.39q0-1.15-1.07-1.15-1.89,0-4.72,3.3A36.4,36.4,0,0,0,55.1,75.21Z"/><path class="cls-2" d="M74.81,81.94q-2.38,0-2.38-2,0-3.07,6.75-8,2.34-1.7,2.58-2.46a1.67,1.67,0,0,0,.06-.44.59.59,0,0,0-.22-.42,1.4,1.4,0,0,0-.91-.21q-3.22,0-10,6.29-3.16,3-4.39,4.39l-2.17,2.46q-.86,1.13-1.91,2.63l-4.18,6.25-3.12,4.92q-.53.82-.62,1a5,5,0,0,1-1.32.16h-.92l-.42,0a4.75,4.75,0,0,1-.76-.14L61.38,82,68,72.67,76.1,61.86a16.49,16.49,0,0,0,1.66.12,4.91,4.91,0,0,0,1.43-.14l-6.6,8.08-4.88,6.52.14.16q6.38-6.13,9.41-7.71A8.35,8.35,0,0,1,79.6,68,9.63,9.63,0,0,1,81,67.85q1.95,0,1.95,1.7,0,3.36-6.17,7.69A13,13,0,0,0,73.6,80a1.05,1.05,0,0,0-.12.47q0,.92,1.46.92,3.53,0,9-6.52L85,73.57l.45.35L84.4,75.15Q78.68,81.94,74.81,81.94Z"/><path class="cls-2" d="M82.89,80.69q0,.68,1,.68a5,5,0,0,0,2.1-.52,13.47,13.47,0,0,0,2.21-1.32,23.08,23.08,0,0,0,2.12-1.75q1-1,1.87-1.81l1.42-1.52q.57-.66.78-.86l.41.35q-.23.23-.83.9t-1.48,1.56q-.87.88-1.95,1.87a22.35,22.35,0,0,1-2.25,1.8,8.81,8.81,0,0,1-4.78,1.89,2.15,2.15,0,0,1-1.42-.47,1.33,1.33,0,0,1-.56-1,5.91,5.91,0,0,1,.05-.87,3.67,3.67,0,0,1,.22-.75,8.78,8.78,0,0,1,.47-1q.31-.56.82-1.36l3.14-4.63,15.85-22.66a10,10,0,0,0,2.85,0Q85.35,76.38,84.65,77.42t-1,1.56q-.33.52-.49.85A2,2,0,0,0,82.89,80.69Z"/><path class="cls-2" d="M102.41,81.94q-2,0-2-1.27A4.78,4.78,0,0,1,101.55,78l1.29-1.64-.21-.08q-3.44,4.24-6.5,5.33a4.61,4.61,0,0,1-1.46.29q-2.52,0-2.52-2.69a9,9,0,0,1,2.52-6q3.73-4.35,7.5-5.15a10.07,10.07,0,0,1,1.93-.23,5.54,5.54,0,0,1,1.26.11,3,3,0,0,1,.81.32,1.36,1.36,0,0,1,.74,1.16,3.47,3.47,0,0,1-.25,1.3l2-2.48a3.63,3.63,0,0,0,1,.16,12.9,12.9,0,0,0,1.74-.08l-6.91,8.33q-2.46,2.87-2.46,4,0,.66.78.66a4.36,4.36,0,0,0,1.79-.47,11.9,11.9,0,0,0,2-1.21,20.69,20.69,0,0,0,2-1.64q1-.9,1.76-1.76t1.42-1.6l1-1.11.43.35-1,1.19Q106.28,81.94,102.41,81.94Zm-5.68-7.38q-2.89,3.51-2.89,5.74,0,1,.92,1,3,0,8.63-6.62l1.72-2.07a6.07,6.07,0,0,0,1.23-2.71,1.27,1.27,0,0,0-1.44-1.44q-1.95,0-5.6,3.32A28.48,28.48,0,0,0,96.73,74.56Z"/><path class="cls-2" d="M123.24,69.57q0-1.19-1.5-1.19-3,0-7.69,6.19a8.07,8.07,0,0,0-1.95,4.67,1.81,1.81,0,0,0,.49,1.37,3.11,3.11,0,0,0,2.2.8,8.28,8.28,0,0,0,2.85-.55,13.84,13.84,0,0,0,2.8-1.39,17.12,17.12,0,0,0,2.36-1.83q1.07-1,1.85-1.87t1.23-1.49l.53-.72.45.35-.55.74a19.21,19.21,0,0,1-8.61,6.79,8.93,8.93,0,0,1-3,.57,6.79,6.79,0,0,1-2.21-.29,3.87,3.87,0,0,1-1.33-.78,3.36,3.36,0,0,1-1-2.5,9.38,9.38,0,0,1,2.54-6,13.57,13.57,0,0,1,4.72-3.65,9.75,9.75,0,0,1,4.31-1A2.33,2.33,0,0,1,124,69.1,2.3,2.3,0,0,1,122.17,72q-1.48,0-1.52-1.21a1.13,1.13,0,0,1,.44-1,1.7,1.7,0,0,1,.91-.42,2.5,2.5,0,0,1,1.23.23Z"/><path class="cls-2" d="M134.22,80.12a13.69,13.69,0,0,1-2.81,1.36,8.59,8.59,0,0,1-2.86.53,6,6,0,0,1-2.06-.28,3.05,3.05,0,0,1-1.16-.77q-1.93-2.09,0-6.17a10,10,0,0,1,2.54-3.29,19.32,19.32,0,0,1,3-2.22,9.51,9.51,0,0,1,4.7-1.44q2.17,0,2.28,1.35Q138,71.4,132.53,74a46,46,0,0,1-5.06,1.95,6.66,6.66,0,0,0-1.21,3.21,2.15,2.15,0,0,0,.65,1.76,2.94,2.94,0,0,0,1.89.52,7.8,7.8,0,0,0,2.69-.53,13.53,13.53,0,0,0,2.71-1.35,16.23,16.23,0,0,0,2.29-1.78q1-1,1.82-1.85t1.29-1.53a7.67,7.67,0,0,1,.69-.81l.43.35a7,7,0,0,0-.81.92q-.54.7-1.37,1.59t-1.91,1.88A17.38,17.38,0,0,1,134.22,80.12Zm-6.28-4.91q6.19-2.17,8-4.33a2.21,2.21,0,0,0,.59-1.39q0-1.15-1.07-1.15-1.89,0-4.72,3.3A36.35,36.35,0,0,0,127.94,75.21Z"/></g></g></svg>